SplineFontDB: 3.2
FontName: PassionOne-Share-Italic
FullName: Passion One Share Italic
FamilyName: Passion One Share
Weight: Regular
Copyright: Copyright (c) 2011 Fontstage (info@fontstage.com), with Reserved Font Name "Passion"\n"Fair and Share" tax glyphs by Vector Hasting and released under CC 4.0 SA-BY 
Version: 1.002
ItalicAngle: 0
UnderlinePosition: -102
UnderlineWidth: 51
Ascent: 819
Descent: 205
InvalidEm: 0
sfntRevision: 0x00010083
LayerCount: 2
Layer: 0 1 "Back" 1
Layer: 1 1 "Fore" 0
XUID: [1021 508 542950195 19447]
StyleMap: 0x0040
FSType: 0
OS2Version: 2
OS2_WeightWidthSlopeOnly: 0
OS2_UseTypoMetrics: 0
CreationTime: 1323135632
ModificationTime: 1758756919
PfmFamily: 17
TTFWeight: 400
TTFWidth: 5
LineGap: 0
VLineGap: 0
Panose: 2 0 5 6 8 0 0 2 0 4
OS2TypoAscent: 855
OS2TypoAOffset: 0
OS2TypoDescent: -272
OS2TypoDOffset: 0
OS2TypoLinegap: 0
OS2WinAscent: 855
OS2WinAOffset: 0
OS2WinDescent: 272
OS2WinDOffset: 0
HheadAscent: 855
HheadAOffset: 0
HheadDescent: -272
HheadDOffset: 0
OS2SubXSize: 717
OS2SubYSize: 666
OS2SubXOff: 0
OS2SubYOff: 143
OS2SupXSize: 717
OS2SupYSize: 666
OS2SupXOff: 0
OS2SupYOff: 488
OS2StrikeYSize: 51
OS2StrikeYPos: 256
OS2CapHeight: 636
OS2XHeight: 490
OS2Vendor: 'PYRS'
OS2CodePages: 20000001.00000000
OS2UnicodeRanges: 800000ef.4000204a.00000000.00000000
MarkAttachClasses: 1
DEI: 91125
TtTable: prep
PUSHW_1
 511
SCANCTRL
PUSHB_1
 4
SCANTYPE
EndTTInstrs
ShortTable: maxp 16
  1
  0
  269
  82
  7
  0
  0
  2
  0
  1
  1
  0
  64
  0
  0
  0
EndShort
LangName: 1033 "" "" "" "" "" "Version 1.002" "" "Passion is a trademark of Fontstage." "Fontstage" "Alejandro Lo Celso" "" "www.fontstage.com" "www.fontstage.com" "This Font Software is licensed under the SIL Open Font License, Version 1.1. This license is available with a FAQ at: http://scripts.sil.org/OFL" "http://scripts.sil.org/OFL"
GaspTable: 1 65535 15 1
Encoding: UnicodeBmp
UnicodeInterp: none
NameList: AGL For New Fonts
DisplaySize: -72
AntiAlias: 1
FitToEm: 0
WinInfo: 57360 12 4

StartChar: exclam
Encoding: 33 33 4
Width: 305
GlyphClass: 2
Flags: W
LayerCount: 2
Fore
SplineSet
72 195 m 1,0,-1
 139 636 l 1,1,-1
 313 636 l 1,2,-1
 221 195 l 1,3,-1
 72 195 l 1,0,-1
37 70 m 0,4,5
 44 111 44 111 69.5 131 c 128,-1,6
 95 151 95 151 142 151 c 0,7,8
 188 151 188 151 206 131 c 0,9,10
 218 117 218 117 219 91 c 0,11,12
 219 81 219 81 217 68 c 0,13,14
 203 -11 203 -11 113 -11 c 0,15,16
 35 -11 35 -11 35 50 c 0,17,18
 35 59 35 59 37 70 c 0,4,5
EndSplineSet
EndChar

StartChar: quotedbl
Encoding: 34 34 5
Width: 447
GlyphClass: 2
Flags: W
LayerCount: 2
Fore
SplineSet
160 656 m 0,0,1
 237 656 237 656 237 589 c 0,2,3
 237 578 237 578 235 564 c 0,4,5
 219 472 219 472 76 390 c 1,6,-1
 20 413 l 1,7,-1
 97 496 l 1,8,-1
 96 501 l 1,9,10
 53 510 53 510 53 555 c 0,11,12
 53 564 53 564 55 575 c 0,13,14
 69 656 69 656 160 656 c 0,0,1
365 656 m 0,15,16
 442 656 442 656 442 589 c 0,17,18
 442 578 442 578 440 564 c 0,19,20
 424 472 424 472 281 390 c 1,21,-1
 225 413 l 1,22,-1
 302 496 l 1,23,-1
 301 501 l 1,24,25
 258 510 258 510 258 555 c 0,26,27
 258 564 258 564 260 575 c 0,28,29
 274 656 274 656 365 656 c 0,15,16
EndSplineSet
EndChar

StartChar: numbersign
Encoding: 35 35 6
Width: 507
GlyphClass: 2
Flags: W
LayerCount: 2
Fore
SplineSet
487 330 m 1,0,-1
 407 330 l 1,1,-1
 392 286 l 1,2,-1
 459 286 l 1,3,-1
 436 158 l 1,4,-1
 353 158 l 1,5,-1
 304 0 l 1,6,-1
 175 0 l 1,7,-1
 222 158 l 1,8,-1
 192 158 l 1,9,-1
 141 0 l 1,10,-1
 5 0 l 1,11,-1
 57 158 l 1,12,-1
 -1 158 l 1,13,-1
 22 286 l 1,14,-1
 97 286 l 1,15,-1
 113 330 l 1,16,-1
 51 330 l 1,17,-1
 74 456 l 1,18,-1
 151 456 l 1,19,-1
 200 610 l 1,20,-1
 334 610 l 1,21,-1
 286 456 l 1,22,-1
 314 456 l 1,23,-1
 361 610 l 1,24,-1
 494 610 l 1,25,-1
 447 456 l 1,26,-1
 510 456 l 1,27,-1
 487 330 l 1,0,-1
283 336 m 1,28,-1
 243 336 l 1,29,-1
 224 280 l 1,30,-1
 264 280 l 1,31,-1
 283 336 l 1,28,-1
EndSplineSet
EndChar

StartChar: dollar
Encoding: 36 36 7
Width: 470
GlyphClass: 2
Flags: W
LayerCount: 2
Fore
SplineSet
60 347 m 0,0,1
 51 371 51 371 51 402 c 0,2,3
 52 426 52 426 56 454 c 0,4,5
 68 520 68 520 112.5 571.5 c 128,-1,6
 157 623 157 623 227 639 c 1,7,-1
 244 735 l 1,8,-1
 379 735 l 1,9,-1
 363 643 l 1,10,11
 413 639 413 639 475 628 c 1,12,-1
 425 464 l 1,13,14
 332 487 332 487 293 487 c 0,15,16
 291 487 291 487 290 487 c 0,17,18
 236 487 236 487 236 445 c 0,19,20
 236 432 236 432 254 419 c 0,21,22
 274 404 274 404 304 388.5 c 128,-1,23
 334 373 334 373 362.5 351 c 128,-1,24
 391 329 391 329 407 288 c 0,25,26
 416 264 416 264 416 232 c 0,27,28
 416 209 416 209 412 182 c 0,29,30
 400 117 400 117 358 66 c 128,-1,31
 316 15 316 15 249 -1 c 1,32,-1
 235 -81 l 1,33,-1
 100 -81 l 1,34,-1
 113 -7 l 1,35,36
 48 0 48 0 -4 19 c 1,37,-1
 34 172 l 1,38,39
 138 140 138 140 181 140 c 0,40,41
 231 140 231 140 231 183 c 0,42,43
 231 200 231 200 214 214 c 0,44,45
 194 230 194 230 164 246.5 c 128,-1,46
 134 263 134 263 105 284.5 c 128,-1,47
 76 306 76 306 60 347 c 0,0,1
EndSplineSet
EndChar

StartChar: percent
Encoding: 37 37 8
Width: 830
GlyphClass: 2
Flags: W
LayerCount: 2
Fore
SplineSet
625 646 m 1,0,-1
 325 -10 l 1,1,-1
 205 -10 l 1,2,-1
 504 646 l 1,3,-1
 625 646 l 1,0,-1
244 413 m 2,4,-1
 246 424 l 2,5,6
 257 481 257 481 257 503 c 0,7,8
 256 526 256 526 248 534 c 128,-1,9
 240 542 240 542 226 541.5 c 128,-1,10
 212 541 212 541 203 533.5 c 128,-1,11
 194 526 194 526 188 508 c 0,12,13
 179 484 179 484 167 424 c 2,14,-1
 165 413 l 2,15,16
 154 349 154 349 154 325 c 0,17,18
 154 300 154 300 162 292 c 0,19,20
 168 286 168 286 183 286 c 128,-1,21
 198 286 198 286 207 292.5 c 128,-1,22
 216 299 216 299 223 319 c 0,23,24
 232 345 232 345 244 413 c 2,4,-1
360 417 m 0,25,26
 338 296 338 296 297 241 c 128,-1,27
 256 186 256 186 165 186 c 128,-1,28
 74 186 74 186 52 242 c 0,29,30
 40 270 40 270 40 315 c 0,31,32
 40 358 40 358 50 417 c 0,33,34
 72 537 72 537 113 591.5 c 128,-1,35
 154 646 154 646 245.5 646 c 128,-1,36
 337 646 337 646 359 592 c 0,37,38
 370 565 370 565 370 520 c 0,39,40
 371 477 371 477 360 417 c 0,25,26
665 216 m 2,41,-1
 667 227 l 2,42,43
 678 284 678 284 678 307 c 128,-1,44
 678 330 678 330 670 337 c 128,-1,45
 662 344 662 344 648 344 c 128,-1,46
 634 344 634 344 624 337 c 128,-1,47
 614 330 614 330 607 311 c 0,48,49
 599 287 599 287 588 227 c 2,50,-1
 586 216 l 2,51,52
 574 150 574 150 574 126 c 128,-1,53
 574 102 574 102 582 96 c 128,-1,54
 590 90 590 90 604.5 89.5 c 128,-1,55
 619 89 619 89 628 95.5 c 128,-1,56
 637 102 637 102 644 123 c 0,57,58
 653 148 653 148 665 216 c 2,41,-1
780 220 m 0,59,60
 758 99 758 99 717 44.5 c 128,-1,61
 676 -10 676 -10 585.5 -10 c 0,62,63
 494 -10 494 -10 472 45 c 0,64,65
 460 73 460 73 461 119 c 0,66,67
 461 162 461 162 471 220 c 0,68,69
 492 340 492 340 533.5 395 c 128,-1,70
 575 450 575 450 666 450 c 0,71,72
 758 450 758 450 780 396 c 0,73,74
 792 368 792 368 791 322 c 0,75,76
 791 279 791 279 780 220 c 0,59,60
EndSplineSet
EndChar

StartChar: ampersand
Encoding: 38 38 9
Width: 623
GlyphClass: 2
Flags: W
LayerCount: 2
Fore
SplineSet
345 26 m 1,0,1
 272 -10 272 -10 176.5 -10 c 0,2,3
 80 -10 80 -10 36 40 c 0,4,5
 4 76 4 76 4 136 c 0,6,7
 4 159 4 159 9 186 c 0,8,9
 21 255 21 255 55 293.5 c 128,-1,10
 89 332 89 332 147 359 c 1,11,12
 118 405 118 405 118 459 c 0,13,14
 118 479 118 479 122 500 c 0,15,16
 150 660 150 660 338 660 c 0,17,18
 339 660 339 660 339 660 c 0,19,20
 504 660 504 660 504 538 c 0,21,22
 504 520 504 520 500 500 c 0,23,24
 488 432 488 432 455.5 393 c 128,-1,25
 423 354 423 354 352 317 c 1,26,-1
 413 220 l 1,27,-1
 417 220 l 1,28,29
 434 246 434 246 441 291 c 2,30,-1
 449 335 l 1,31,-1
 585 335 l 1,32,-1
 579 300 l 2,33,34
 559 186 559 186 487 125 c 1,35,-1
 486 118 l 1,36,-1
 570 118 l 1,37,-1
 537 -10 l 1,38,-1
 485 -10 l 2,39,40
 430 -10 430 -10 402 -3 c 128,-1,41
 374 4 374 4 345 26 c 1,0,1
220 126 m 2,42,-1
 282 126 l 1,43,-1
 283 130 l 1,44,-1
 207 247 l 1,45,46
 177 225 177 225 173 193 c 0,47,48
 171 182 171 182 171 172 c 0,49,50
 171 126 171 126 220 126 c 2,42,-1
347 470 m 0,51,52
 348 476 348 476 348 481 c 0,53,54
 348 508 348 508 318 508 c 0,55,56
 282 508 282 508 276 472 c 0,57,58
 275 468 275 468 275 464 c 0,59,60
 275 440 275 440 299 412 c 1,61,62
 317 426 317 426 324 432 c 0,63,64
 343 446 343 446 347 470 c 0,51,52
EndSplineSet
EndChar

StartChar: quotesingle
Encoding: 39 39 10
Width: 242
GlyphClass: 2
Flags: W
LayerCount: 2
Fore
SplineSet
160 656 m 0,0,1
 237 656 237 656 237 589 c 0,2,3
 237 578 237 578 235 564 c 0,4,5
 219 472 219 472 76 390 c 1,6,-1
 20 413 l 1,7,-1
 97 496 l 1,8,-1
 96 501 l 1,9,10
 53 510 53 510 53 555 c 0,11,12
 53 564 53 564 55 575 c 0,13,14
 69 656 69 656 160 656 c 0,0,1
EndSplineSet
EndChar

StartChar: parenleft
Encoding: 40 40 11
Width: 337
GlyphClass: 2
Flags: W
LayerCount: 2
Fore
SplineSet
266 665 m 1,0,-1
 383 610 l 1,1,2
 250 450 250 450 217 266 c 0,3,4
 207 210 207 210 207 154 c 0,5,6
 207 28 207 28 259 -94 c 1,7,-1
 119 -138 l 1,8,9
 54 -48 54 -48 28 42 c 0,10,11
 15 89 15 89 14 147 c 0,12,13
 14 199 14 199 25 261 c 0,14,15
 67 503 67 503 266 665 c 1,0,-1
EndSplineSet
EndChar

StartChar: parenright
Encoding: 41 41 12
Width: 337
GlyphClass: 2
Flags: W
LayerCount: 2
Fore
SplineSet
77 610 m 1,0,-1
 214 665 l 1,1,2
 323 540 323 540 323 368 c 0,3,4
 323 317 323 317 313 261 c 0,5,6
 290 132 290 132 232 42 c 128,-1,7
 174 -48 174 -48 76 -138 c 1,8,-1
 -47 -94 l 1,9,10
 90 82 90 82 122 266 c 0,11,12
 132 321 132 321 131 373 c 0,13,14
 131 497 131 497 77 610 c 1,0,-1
EndSplineSet
EndChar

StartChar: asterisk
Encoding: 42 42 13
Width: 434
GlyphClass: 2
Flags: W
LayerCount: 2
Fore
SplineSet
415 457 m 1,0,-1
 309 420 l 1,1,-1
 366 325 l 1,2,-1
 263 263 l 1,3,-1
 203 349 l 1,4,-1
 118 264 l 1,5,-1
 35 326 l 1,6,-1
 113 421 l 1,7,-1
 21 458 l 1,8,-1
 67 558 l 1,9,-1
 168 536 l 1,10,-1
 196 637 l 1,11,-1
 308 637 l 1,12,-1
 300 535 l 1,13,-1
 403 555 l 1,14,-1
 415 457 l 1,0,-1
EndSplineSet
EndChar

StartChar: plus
Encoding: 43 43 14
Width: 493
GlyphClass: 2
Flags: W
LayerCount: 2
Fore
SplineSet
429 237 m 1,0,-1
 300 237 l 1,1,-1
 275 98 l 1,2,-1
 142 98 l 1,3,-1
 167 237 l 1,4,-1
 42 237 l 1,5,-1
 64 366 l 1,6,-1
 189 366 l 1,7,-1
 214 505 l 1,8,-1
 347 505 l 1,9,-1
 322 366 l 1,10,-1
 451 366 l 1,11,-1
 429 237 l 1,0,-1
EndSplineSet
EndChar

StartChar: comma
Encoding: 44 44 15
Width: 311
GlyphClass: 2
Flags: W
LayerCount: 2
Fore
SplineSet
194 152 m 0,0,1
 275 152 275 152 275 84 c 0,2,3
 275 72 275 72 272 57 c 0,4,5
 266 21 266 21 239.5 -12 c 128,-1,6
 213 -45 213 -45 187 -65 c 128,-1,7
 161 -85 161 -85 113 -116 c 1,8,-1
 57 -93 l 1,9,-1
 136 -8 l 1,10,-1
 135 -3 l 1,11,12
 91 10 91 10 91 52 c 0,13,14
 91 60 91 60 93 70 c 0,15,16
 108 152 108 152 194 152 c 0,0,1
EndSplineSet
EndChar

StartChar: hyphen
Encoding: 45 45 16
Width: 412
GlyphClass: 2
Flags: W
LayerCount: 2
Fore
SplineSet
352 198 m 1,0,-1
 37 198 l 1,1,-1
 61 335 l 1,2,-1
 376 335 l 1,3,-1
 352 198 l 1,0,-1
EndSplineSet
EndChar

StartChar: period
Encoding: 46 46 17
Width: 303
GlyphClass: 2
Flags: W
LayerCount: 2
Fore
SplineSet
77 70 m 0,0,1
 84 111 84 111 109 131 c 128,-1,2
 134 151 134 151 181 151 c 128,-1,3
 228 151 228 151 246 131 c 0,4,5
 259 117 259 117 259 90 c 0,6,7
 259 80 259 80 257 68 c 0,8,9
 243 -11 243 -11 153 -11 c 0,10,11
 75 -11 75 -11 75 50 c 0,12,13
 75 59 75 59 77 70 c 0,0,1
EndSplineSet
EndChar

StartChar: slash
Encoding: 47 47 18
Width: 369
GlyphClass: 2
Flags: W
LayerCount: 2
Fore
SplineSet
449 636 m 1,0,-1
 90 -151 l 1,1,-1
 -79 -151 l 1,2,-1
 279 636 l 1,3,-1
 449 636 l 1,0,-1
EndSplineSet
EndChar

StartChar: zero
Encoding: 48 48 19
Width: 484
GlyphClass: 2
Flags: W
LayerCount: 2
Fore
SplineSet
300 313 m 2,0,-1
 303 329 l 2,1,2
 319 417 319 417 319 441 c 0,3,4
 318 444 318 444 318 446 c 0,5,6
 316 463 316 463 312 475 c 0,7,8
 305 495 305 495 275 496 c 256,9,10
 246 496 246 496 233 475 c 0,11,12
 216 448 216 448 209 421 c 0,13,14
 198 370 198 370 191 329 c 2,15,-1
 188 313 l 2,16,17
 171 216 171 216 171 190 c 0,18,19
 171 186 171 186 171 184 c 0,20,21
 174 166 174 166 178 154 c 0,22,23
 184 131 184 131 218 131 c 128,-1,24
 252 131 252 131 266.5 169.5 c 128,-1,25
 281 208 281 208 300 313 c 2,0,-1
465 318 m 0,26,27
 450 233 450 233 431 177 c 128,-1,28
 412 121 412 121 381 76 c 0,29,30
 320 -10 320 -10 186 -10 c 0,31,32
 54 -10 54 -10 23 76 c 0,33,34
 8 118 8 118 8 171 c 0,35,36
 8 174 8 174 8 178 c 0,37,38
 9 234 9 234 24 318 c 0,39,40
 54 490 54 490 113.5 568 c 128,-1,41
 173 646 173 646 302 646 c 0,42,43
 437 646 437 646 467 561 c 0,44,45
 482 520 482 520 482 469 c 0,46,47
 482 464 482 464 482 460 c 0,48,49
 480 404 480 404 465 318 c 0,26,27
EndSplineSet
EndChar

StartChar: one
Encoding: 49 49 20
Width: 327
GlyphClass: 2
Flags: W
LayerCount: 2
Fore
SplineSet
207 0 m 1,0,-1
 36 0 l 1,1,-1
 119 473 l 1,2,-1
 45 473 l 1,3,-1
 64 581 l 1,4,-1
 179 636 l 1,5,-1
 319 636 l 1,6,-1
 207 0 l 1,0,-1
EndSplineSet
EndChar

StartChar: two
Encoding: 50 50 21
Width: 422
GlyphClass: 2
Flags: W
LayerCount: 2
Fore
SplineSet
56 593 m 1,0,1
 164 646 164 646 263 646 c 128,-1,2
 362 646 362 646 404 596 c 0,3,4
 435 560 435 560 435 501 c 0,5,6
 435 479 435 479 431 454 c 0,7,8
 415 362 415 362 372 304 c 128,-1,9
 329 246 329 246 226 146 c 1,10,-1
 379 146 l 1,11,-1
 353 0 l 1,12,-1
 -23 0 l 1,13,-1
 -13 104 l 1,14,15
 102 207 102 207 152.5 260.5 c 128,-1,16
 203 314 203 314 223.5 349 c 128,-1,17
 244 384 244 384 249 414 c 0,18,19
 251 423 251 423 251 431 c 0,20,21
 250 448 250 448 242 460 c 0,22,23
 230 476 230 476 207 476.5 c 128,-1,24
 184 477 184 477 161 471 c 0,25,26
 130 464 130 464 61 434 c 1,27,-1
 56 593 l 1,0,1
EndSplineSet
EndChar

StartChar: three
Encoding: 51 51 22
Width: 438
GlyphClass: 2
Flags: W
LayerCount: 2
Fore
SplineSet
280 646 m 0,0,1
 447 646 447 646 447 521 c 0,2,3
 447 502 447 502 443 479 c 0,4,5
 434 429 434 429 410 396.5 c 128,-1,6
 386 364 386 364 339 337 c 1,7,-1
 339 333 l 1,8,9
 382 311 382 311 396 276 c 0,10,11
 404 256 404 256 404 228 c 0,12,13
 404 208 404 208 400 184 c 0,14,15
 384 91 384 91 321.5 40.5 c 128,-1,16
 259 -10 259 -10 158 -10 c 0,17,18
 108 -10 108 -10 74 -1.5 c 128,-1,19
 40 7 40 7 -11 31 c 1,20,-1
 51 174 l 1,21,22
 131 143 131 143 163 143 c 0,23,24
 211 143 211 143 221 197 c 0,25,26
 222 205 222 205 222 211 c 0,27,28
 222 254 222 254 166 254 c 2,29,-1
 103 254 l 1,30,-1
 126 388 l 1,31,-1
 190 388 l 2,32,33
 219 388 219 388 233 401 c 128,-1,34
 247 414 247 414 251 439 c 0,35,36
 252 447 252 447 252 453 c 0,37,38
 252 488 252 488 212 488 c 0,39,40
 178 488 178 488 86 454 c 1,41,-1
 71 592 l 1,42,43
 132 623 132 623 178.5 634.5 c 128,-1,44
 225 646 225 646 280 646 c 0,0,1
EndSplineSet
EndChar

StartChar: four
Encoding: 52 52 23
Width: 503
GlyphClass: 2
Flags: W
LayerCount: 2
Fore
SplineSet
469 124 m 1,0,-1
 397 124 l 1,1,-1
 375 0 l 1,2,-1
 204 0 l 1,3,-1
 226 124 l 1,4,-1
 -6 124 l 1,5,-1
 -3 246 l 1,6,-1
 276 636 l 1,7,-1
 487 636 l 1,8,-1
 421 262 l 1,9,-1
 500 262 l 1,10,-1
 469 124 l 1,0,-1
255 262 m 1,11,-1
 283 419 l 1,12,-1
 277 419 l 1,13,-1
 165 262 l 1,14,-1
 255 262 l 1,11,-1
EndSplineSet
EndChar

StartChar: five
Encoding: 53 53 24
Width: 422
GlyphClass: 2
Flags: W
LayerCount: 2
Fore
SplineSet
389 216 m 0,0,1
 349 -10 349 -10 148 -10 c 0,2,3
 55 -10 55 -10 -19 22 c 1,4,-1
 21 180 l 1,5,6
 120 148 120 148 157 148 c 0,7,8
 210 148 210 148 220 205 c 0,9,10
 222 217 222 217 222 226 c 0,11,12
 222 262 222 262 190 262 c 0,13,14
 171 262 171 262 156 242 c 1,15,-1
 24 262 l 1,16,-1
 90 636 l 1,17,-1
 434 636 l 1,18,-1
 407 483 l 1,19,-1
 221 483 l 1,20,-1
 205 392 l 1,21,22
 234 406 234 406 276 407 c 0,23,24
 395 406 395 406 395 281 c 0,25,26
 395 252 395 252 389 216 c 0,0,1
EndSplineSet
EndChar

StartChar: six
Encoding: 54 54 25
Width: 470
GlyphClass: 2
Flags: W
LayerCount: 2
Fore
SplineSet
276 254 m 0,0,1
 266 270 266 270 239 270 c 128,-1,2
 212 270 212 270 186 263 c 1,3,4
 181 247 181 247 180 237 c 0,5,6
 176 212 176 212 176 193 c 0,7,8
 176 133 176 133 219 132 c 0,9,10
 245 132 245 132 259 148.5 c 0,11,12
 274 166 274 166 280 202 c 0,13,14
 283 216 283 216 282 227 c 0,15,16
 282 244 282 244 276 254 c 0,0,1
302 404 m 0,17,18
 384 404 384 404 421 358 c 0,19,20
 446 326 446 326 446 271 c 0,21,22
 446 246 446 246 441 216 c 0,23,24
 401 -10 401 -10 192 -10 c 0,25,26
 7 -10 7 -10 7 180 c 0,27,28
 7 222 7 222 16 273 c 0,29,30
 50 466 50 466 158.5 556 c 128,-1,31
 267 646 267 646 467 646 c 1,32,-1
 430 500 l 1,33,34
 343 500 343 500 292.5 477.5 c 128,-1,35
 242 455 242 455 215 397 c 1,36,-1
 216 392 l 1,37,38
 255 404 255 404 302 404 c 0,17,18
EndSplineSet
EndChar

StartChar: seven
Encoding: 55 55 26
Width: 430
GlyphClass: 2
Flags: W
LayerCount: 2
Fore
SplineSet
453 541 m 1,0,-1
 183 0 l 1,1,-1
 -10 0 l 1,2,-1
 244 473 l 1,3,-1
 37 473 l 1,4,-1
 66 636 l 1,5,-1
 470 636 l 1,6,-1
 453 541 l 1,0,-1
EndSplineSet
EndChar

StartChar: eight
Encoding: 56 56 27
Width: 475
GlyphClass: 2
Flags: W
LayerCount: 2
Fore
SplineSet
132.5 601 m 128,-1,1
 195 646 195 646 295.5 646 c 128,-1,2
 396 646 396 646 442 602 c 0,3,4
 477 568 477 568 476 513 c 0,5,6
 476 496 476 496 473 477 c 0,7,8
 463 421 463 421 442 392.5 c 128,-1,9
 421 364 421 364 371 329 c 1,10,-1
 370 325 l 1,11,12
 410 300 410 300 424 266 c 0,13,14
 433 245 433 245 432 217 c 0,15,16
 432 200 432 200 429 180 c 0,17,18
 395 -10 395 -10 179 -10 c 0,19,20
 82 -10 82 -10 32 36 c 0,21,22
 -5 71 -5 71 -6 133 c 0,23,24
 -6 154 -6 154 -2 178 c 0,25,26
 14 272 14 272 104 317 c 1,27,-1
 105 322 l 1,28,29
 70 360 70 360 58 390 c 0,30,31
 51 407 51 407 51 431 c 0,32,33
 51 452 51 452 56 478 c 0,34,0
 70 556 70 556 132.5 601 c 128,-1,1
206 122 m 0,35,36
 255 122 255 122 265 174 c 0,37,38
 266 181 266 181 266 187 c 0,39,40
 266 203 266 203 258 214 c 0,41,42
 247 229 247 229 218 254 c 1,43,44
 187 229 187 229 177 213.5 c 128,-1,45
 167 198 167 198 164 181 c 0,46,47
 162 171 162 171 162 164 c 0,48,49
 162 122 162 122 206 122 c 0,35,36
273 507 m 0,50,51
 225 507 225 507 216 459 c 0,52,53
 215 452 215 452 215 445 c 0,54,55
 215 421 215 421 232 406 c 0,56,57
 240 399 240 399 258 383 c 1,58,59
 285 402 285 402 298.5 416.5 c 128,-1,60
 312 431 312 431 316 452 c 0,61,62
 317 460 317 460 317 467 c 0,63,64
 317 507 317 507 273 507 c 0,50,51
EndSplineSet
EndChar

StartChar: nine
Encoding: 57 57 28
Width: 470
GlyphClass: 2
Flags: W
LayerCount: 2
Fore
SplineSet
173 238 m 0,0,1
 27 238 27 238 27 375 c 0,2,3
 27 402 27 402 33 435 c 0,4,5
 70 646 70 646 278 646 c 0,6,7
 397 646 397 646 438 582 c 0,8,9
 464 541 464 541 464 471 c 0,10,11
 464 430 464 430 455 379 c 0,12,13
 420 181 420 181 315.5 85.5 c 128,-1,14
 211 -10 211 -10 -1 -10 c 1,15,-1
 36 135 l 1,16,17
 130 135 130 135 179 160 c 128,-1,18
 228 185 228 185 253 243 c 1,19,-1
 252 248 l 1,20,21
 211 238 211 238 173 238 c 0,0,1
230.5 360 m 128,-1,23
 259 360 259 360 284 370 c 1,24,25
 286 378 286 378 292 414 c 0,26,27
 295 431 295 431 296 445 c 0,28,29
 296 461 296 461 292 475 c 0,30,31
 285 501 285 501 249 501 c 0,32,33
 202 501 202 501 190 433 c 0,34,35
 187 417 187 417 187 404 c 0,36,37
 186 388 186 388 192 378 c 0,38,22
 202 360 202 360 230.5 360 c 128,-1,23
EndSplineSet
EndChar

StartChar: colon
Encoding: 58 58 29
Width: 303
GlyphClass: 2
Flags: W
LayerCount: 2
Fore
SplineSet
51 70 m 0,0,1
 58 111 58 111 83 131 c 128,-1,2
 108 151 108 151 155 151 c 128,-1,3
 202 151 202 151 220 131 c 0,4,5
 232 117 232 117 232 92 c 0,6,7
 232 81 232 81 230 68 c 0,8,9
 216 -11 216 -11 126 -11 c 0,10,11
 49 -11 49 -11 49 50 c 0,12,13
 49 59 49 59 51 70 c 0,0,1
103 370 m 0,14,15
 110 411 110 411 135.5 431 c 128,-1,16
 161 451 161 451 208 451 c 128,-1,17
 255 451 255 451 273 431 c 0,18,19
 285 417 285 417 285 392 c 0,20,21
 285 381 285 381 283 368 c 0,22,23
 269 289 269 289 179 289 c 0,24,25
 101 289 101 289 101 350 c 0,26,27
 101 359 101 359 103 370 c 0,14,15
EndSplineSet
EndChar

StartChar: semicolon
Encoding: 59 59 30
Width: 311
GlyphClass: 2
Flags: W
LayerCount: 2
Fore
SplineSet
165 151 m 0,0,1
 242 151 242 151 242 84 c 0,2,3
 242 72 242 72 240 58 c 0,4,5
 224 -35 224 -35 80 -116 c 1,6,-1
 24 -93 l 1,7,-1
 102 -10 l 1,8,-1
 101 -5 l 1,9,10
 58 4 58 4 58 49 c 0,11,12
 58 59 58 59 60 70 c 0,13,14
 74 151 74 151 165 151 c 0,0,1
113 370 m 0,15,16
 120 411 120 411 145 431 c 128,-1,17
 170 451 170 451 217 451 c 128,-1,18
 264 451 264 451 282 431 c 0,19,20
 294 417 294 417 294 392 c 0,21,22
 294 381 294 381 292 368 c 0,23,24
 278 289 278 289 188 289 c 0,25,26
 111 289 111 289 111 350 c 0,27,28
 111 359 111 359 113 370 c 0,15,16
EndSplineSet
EndChar

StartChar: less
Encoding: 60 60 31
Width: 403
GlyphClass: 2
Flags: W
LayerCount: 2
Fore
SplineSet
237 3 m 1,0,-1
 28 238 l 1,1,-1
 40 308 l 1,2,-1
 337 545 l 1,3,-1
 400 429 l 1,4,-1
 203 273 l 1,5,-1
 346 121 l 1,6,-1
 237 3 l 1,0,-1
EndSplineSet
EndChar

StartChar: equal
Encoding: 61 61 32
Width: 464
GlyphClass: 2
Flags: W
LayerCount: 2
Fore
SplineSet
416 300 m 1,0,-1
 61 300 l 1,1,-1
 86 439 l 1,2,-1
 441 439 l 1,3,-1
 416 300 l 1,0,-1
379 93 m 1,4,-1
 24 93 l 1,5,-1
 49 232 l 1,6,-1
 404 232 l 1,7,-1
 379 93 l 1,4,-1
EndSplineSet
EndChar

StartChar: greater
Encoding: 62 62 33
Width: 403
GlyphClass: 2
Flags: W
LayerCount: 2
Fore
SplineSet
364 238 m 1,0,-1
 71 3 l 1,1,-1
 4 121 l 1,2,-1
 201 273 l 1,3,-1
 58 429 l 1,4,-1
 163 545 l 1,5,-1
 376 308 l 1,6,-1
 364 238 l 1,0,-1
EndSplineSet
EndChar

StartChar: question
Encoding: 63 63 34
Width: 396
GlyphClass: 2
Flags: W
LayerCount: 2
Fore
SplineSet
380 615 m 0,0,1
 402 585 402 585 402 536 c 0,2,3
 402 512 402 512 396 484 c 0,4,5
 380 397 380 397 342 353.5 c 128,-1,6
 304 310 304 310 238 274 c 2,7,-1
 227 268 l 1,8,-1
 216 206 l 1,9,-1
 81 206 l 1,10,-1
 98 303 l 2,11,12
 104 336 104 336 118.5 355 c 128,-1,13
 133 374 133 374 160.5 386.5 c 128,-1,14
 188 399 188 399 201 405.5 c 128,-1,15
 214 412 214 412 226.5 425.5 c 128,-1,16
 239 439 239 439 243 461 c 0,17,18
 244 468 244 468 244 474 c 0,19,20
 244 487 244 487 238 495 c 0,21,22
 229 507 229 507 203 507 c 128,-1,23
 177 507 177 507 83 483 c 1,24,-1
 110 638 l 1,25,26
 196 659 196 659 255 659 c 0,27,28
 258 659 258 659 260 659 c 0,29,30
 348 659 348 659 380 615 c 0,0,1
39 66 m 0,31,32
 53 147 53 147 140 147 c 0,33,34
 141 146 141 146 141 146 c 0,35,36
 217 146 217 146 217 86 c 0,37,38
 217 77 217 77 215 66 c 0,39,40
 208 27 208 27 184.5 8 c 128,-1,41
 161 -11 161 -11 116 -11 c 0,42,43
 37 -11 37 -11 37 47 c 0,44,45
 37 56 37 56 39 66 c 0,31,32
EndSplineSet
EndChar

StartChar: at
Encoding: 64 64 35
Width: 907
GlyphClass: 2
Flags: W
LayerCount: 2
Fore
SplineSet
662 362 m 2,0,-1
 621 155 l 2,1,2
 620 147 620 147 620 141 c 0,3,4
 620 118 620 118 640 118 c 0,5,6
 674 118 674 118 704 164.5 c 128,-1,7
 734 211 734 211 747 286 c 0,8,9
 753 319 753 319 753 348 c 0,10,11
 753 427 753 427 711 480 c 0,12,13
 654 553 654 553 528 553 c 0,14,15
 377 553 377 553 284 467.5 c 128,-1,16
 191 382 191 382 165 234 c 0,17,18
 157 191 157 191 157 153 c 0,19,20
 158 64 158 64 202 10 c 0,21,22
 264 -66 264 -66 398 -65 c 0,23,24
 471 -65 471 -65 586 -44 c 1,25,-1
 565 -164 l 1,26,27
 470 -187 470 -187 378 -187 c 0,28,29
 376 -186 376 -186 374 -186 c 0,30,31
 280 -186 280 -186 209.5 -161.5 c 128,-1,32
 139 -137 139 -137 89.5 -87.5 c 128,-1,33
 40 -38 40 -38 22 45 c 0,34,35
 13 85 13 85 13 132 c 0,36,37
 13 181 13 181 23 236 c 0,38,39
 57 426 57 426 202.5 553 c 128,-1,40
 348 680 348 680 547 680 c 128,-1,41
 746 680 746 680 834 572 c 0,42,43
 898 493 898 493 898 375 c 0,44,45
 898 332 898 332 889 283 c 0,46,47
 867 156 867 156 786 73 c 128,-1,48
 705 -10 705 -10 584 -10 c 2,49,-1
 575 -10 l 2,50,51
 489 -10 489 -10 467 42 c 1,52,-1
 462 42 l 1,53,54
 415 -10 415 -10 336 -10 c 0,55,56
 276 -10 276 -10 250 29 c 0,57,58
 232 56 232 56 232 95 c 0,59,60
 232 113 232 113 236 135 c 0,61,62
 251 220 251 220 309.5 253 c 128,-1,63
 368 286 368 286 484 296 c 1,64,-1
 488 321 l 2,65,66
 489 325 489 325 489 329 c 0,67,68
 489 349 489 349 466 349 c 0,69,70
 465 349 465 349 464 349 c 0,71,72
 419 349 419 349 310 319 c 1,73,-1
 311 466 l 1,74,75
 461 503 461 503 539 503 c 128,-1,76
 617 503 617 503 646 469 c 0,77,78
 666 446 666 446 666 403 c 0,79,80
 666 385 666 385 662 362 c 2,0,-1
420 110 m 0,81,82
 458 110 458 110 465 150 c 2,83,-1
 474 200 l 1,84,85
 435 195 435 195 417.5 184 c 128,-1,86
 400 173 400 173 395 147 c 0,87,88
 394 140 394 140 394 135 c 0,89,90
 394 110 394 110 420 110 c 0,81,82
EndSplineSet
EndChar

StartChar: A
Encoding: 65 65 36
Width: 509
GlyphClass: 2
Flags: W
LayerCount: 2
Fore
SplineSet
446 0 m 1,0,-1
 275 0 l 1,1,-1
 273 100 l 1,2,-1
 152 100 l 1,3,-1
 115 0 l 1,4,-1
 -48 0 l 1,5,-1
 181 636 l 1,6,-1
 441 636 l 1,7,-1
 446 0 l 1,0,-1
275 220 m 1,8,-1
 279 447 l 1,9,-1
 272 447 l 1,10,-1
 196 220 l 1,11,-1
 275 220 l 1,8,-1
EndSplineSet
EndChar

StartChar: B
Encoding: 66 66 37
Width: 506
GlyphClass: 2
Flags: W
LayerCount: 2
Fore
SplineSet
469 183 m 0,0,1
 437 0 437 0 240 0 c 2,2,-1
 -11 0 l 1,3,-1
 101 636 l 1,4,-1
 347 636 l 2,5,6
 444 636 444 636 484 596 c 0,7,8
 513 567 513 567 513 514 c 0,9,10
 513 494 513 494 509 471 c 0,11,12
 494 385 494 385 416 340 c 1,13,-1
 415 334 l 1,14,15
 474 309 474 309 474 231 c 0,16,17
 474 209 474 209 469 183 c 0,0,1
263 127.5 m 0,18,19
 276 140 276 140 284 184 c 0,20,21
 288 205 288 205 287 221 c 0,22,23
 287 237 287 237 283 246 c 0,24,25
 275 264 275 264 245 264 c 2,26,-1
 212 264 l 1,27,-1
 186 114 l 1,28,-1
 219 114 l 2,29,30
 250 114 250 114 263 127.5 c 0,18,19
299.5 378 m 0,31,32
 312 392 312 392 318 428 c 0,33,34
 321 446 321 446 321 459 c 0,35,36
 321 473 321 473 317 480 c 0,37,38
 310 495 310 495 286 495 c 2,39,-1
 253 495 l 1,40,-1
 230 364 l 1,41,-1
 264 364 l 2,42,43
 288 364 288 364 299.5 378 c 0,31,32
EndSplineSet
EndChar

StartChar: C
Encoding: 67 67 38
Width: 419
GlyphClass: 2
Flags: W
LayerCount: 2
Fore
SplineSet
197 182 m 0,0,1
 208 144 208 144 249 144 c 128,-1,2
 290 144 290 144 368 164 c 1,3,-1
 369 19 l 1,4,5
 286 -10 286 -10 206 -10 c 0,6,7
 203 -10 203 -10 201 -10 c 0,8,9
 78 -10 78 -10 37 72 c 0,10,11
 13 120 13 120 13 195 c 0,12,13
 12 248 12 248 24 314 c 0,14,15
 52 475 52 475 125.5 560.5 c 128,-1,16
 199 646 199 646 331 646 c 0,17,18
 409 646 409 646 474 613 c 1,19,-1
 418 455 l 1,20,21
 346 481 346 481 314 481 c 0,22,23
 313 481 313 481 312 481 c 0,24,25
 267 481 267 481 242.5 441.5 c 128,-1,26
 218 402 218 402 202 312 c 0,27,28
 193 258 193 258 193 223 c 0,29,30
 193 198 193 198 197 182 c 0,0,1
EndSplineSet
EndChar

StartChar: D
Encoding: 68 68 39
Width: 538
GlyphClass: 2
Flags: W
LayerCount: 2
Fore
SplineSet
520 332 m 0,0,1
 461 0 461 0 200 0 c 2,2,-1
 -11 0 l 1,3,-1
 101 636 l 1,4,-1
 316 636 l 2,5,6
 456 636 456 636 501 558 c 0,7,8
 530 508 530 508 530 430 c 0,9,10
 530 386 530 386 520 332 c 0,0,1
299.5 185.5 m 128,-1,12
 322 224 322 224 338 315 c 0,13,14
 348 371 348 371 349 406 c 0,15,16
 348 430 348 430 344 444 c 0,17,18
 334 482 334 482 279 481 c 2,19,-1
 248 481 l 1,20,-1
 189 147 l 1,21,-1
 223 147 l 2,22,11
 277 147 277 147 299.5 185.5 c 128,-1,12
EndSplineSet
EndChar

StartChar: E
Encoding: 69 69 40
Width: 413
GlyphClass: 2
Flags: W
LayerCount: 2
Fore
SplineSet
333 0 m 1,0,-1
 -11 0 l 1,1,-1
 101 636 l 1,2,-1
 455 636 l 1,3,-1
 417 479 l 1,4,-1
 248 479 l 1,5,-1
 232 384 l 1,6,-1
 379 384 l 1,7,-1
 355 249 l 1,8,-1
 208 249 l 1,9,-1
 189 143 l 1,10,-1
 368 143 l 1,11,-1
 333 0 l 1,0,-1
EndSplineSet
EndChar

StartChar: F
Encoding: 70 70 41
Width: 394
GlyphClass: 2
Flags: W
LayerCount: 2
Fore
SplineSet
417 479 m 1,0,-1
 248 479 l 1,1,-1
 232 384 l 1,2,-1
 368 384 l 1,3,-1
 344 249 l 1,4,-1
 208 249 l 1,5,-1
 164 0 l 1,6,-1
 -11 0 l 1,7,-1
 101 636 l 1,8,-1
 455 636 l 1,9,-1
 417 479 l 1,0,-1
EndSplineSet
EndChar

StartChar: G
Encoding: 71 71 42
Width: 531
GlyphClass: 2
Flags: W
LayerCount: 2
Fore
SplineSet
451 446 m 1,0,1
 358 476 358 476 312.5 476 c 128,-1,2
 267 476 267 476 243 436 c 0,3,4
 220 396 220 396 204 310 c 0,5,6
 194 255 194 255 194 219 c 0,7,8
 194 198 194 198 197 184 c 0,9,10
 206 144 206 144 255 144 c 0,11,12
 269 144 269 144 312 153 c 1,13,-1
 325 230 l 1,14,-1
 279 230 l 1,15,-1
 301 351 l 1,16,-1
 496 351 l 1,17,-1
 434 0 l 1,18,-1
 314 0 l 1,19,-1
 303 33 l 1,20,-1
 299 33 l 1,21,22
 280 19 280 19 268 11 c 0,23,24
 236 -10 236 -10 187 -10 c 0,25,26
 185 -10 185 -10 183 -10 c 0,27,28
 14 -10 14 -10 14 191 c 0,29,30
 14 245 14 245 26 313 c 0,31,32
 55 475 55 475 126 560.5 c 128,-1,33
 197 646 197 646 330 646 c 0,34,35
 436 646 436 646 508 613 c 1,36,-1
 451 446 l 1,0,1
EndSplineSet
EndChar

StartChar: H
Encoding: 72 72 43
Width: 556
GlyphClass: 2
Flags: W
LayerCount: 2
Fore
SplineSet
459 0 m 1,0,-1
 285 0 l 1,1,-1
 327 241 l 1,2,-1
 207 241 l 1,3,-1
 165 0 l 1,4,-1
 -11 0 l 1,5,-1
 101 636 l 1,6,-1
 277 636 l 1,7,-1
 233 386 l 1,8,-1
 353 386 l 1,9,-1
 397 636 l 1,10,-1
 571 636 l 1,11,-1
 459 0 l 1,0,-1
EndSplineSet
EndChar

StartChar: I
Encoding: 73 73 44
Width: 284
GlyphClass: 2
Flags: W
LayerCount: 2
Fore
SplineSet
173 0 m 1,0,-1
 -1 0 l 1,1,-1
 111 636 l 1,2,-1
 285 636 l 1,3,-1
 173 0 l 1,0,-1
EndSplineSet
EndChar

StartChar: J
Encoding: 74 74 45
Width: 294
GlyphClass: 2
Flags: W
LayerCount: 2
Fore
SplineSet
307 636 m 1,0,-1
 217 128 l 2,1,2
 203 49 203 49 162 19.5 c 128,-1,3
 121 -10 121 -10 25 -10 c 2,4,-1
 -27 -10 l 1,5,-1
 -16 129 l 1,6,-1
 19 129 l 2,7,8
 36 129 36 129 41.5 133.5 c 128,-1,9
 47 138 47 138 50 154 c 2,10,-1
 135 636 l 1,11,-1
 307 636 l 1,0,-1
EndSplineSet
EndChar

StartChar: K
Encoding: 75 75 46
Width: 496
GlyphClass: 2
Flags: W
LayerCount: 2
Fore
SplineSet
440 0 m 1,0,-1
 246 0 l 1,1,-1
 211 240 l 1,2,-1
 201 240 l 1,3,-1
 159 0 l 1,4,-1
 -11 0 l 1,5,-1
 101 636 l 1,6,-1
 271 636 l 1,7,-1
 224 370 l 1,8,-1
 234 370 l 1,9,-1
 373 636 l 1,10,-1
 562 636 l 1,11,-1
 380 307 l 1,12,-1
 440 0 l 1,0,-1
EndSplineSet
EndChar

StartChar: L
Encoding: 76 76 47
Width: 370
GlyphClass: 2
Flags: W
LayerCount: 2
Fore
SplineSet
313 0 m 1,0,-1
 -11 0 l 1,1,-1
 101 636 l 1,2,-1
 276 636 l 1,3,-1
 189 142 l 1,4,-1
 348 142 l 1,5,-1
 313 0 l 1,0,-1
EndSplineSet
EndChar

StartChar: M
Encoding: 77 77 48
Width: 699
GlyphClass: 2
Flags: W
LayerCount: 2
Fore
SplineSet
604 0 m 1,0,-1
 444 0 l 1,1,-1
 502 332 l 1,2,-1
 492 332 l 1,3,-1
 374 0 l 1,4,-1
 209 0 l 1,5,-1
 210 332 l 1,6,-1
 200 332 l 1,7,-1
 142 0 l 1,8,-1
 -17 0 l 1,9,-1
 116 636 l 1,10,-1
 347 636 l 1,11,-1
 343 292 l 1,12,-1
 351 292 l 1,13,-1
 468 636 l 1,14,-1
 695 636 l 1,15,-1
 604 0 l 1,0,-1
EndSplineSet
EndChar

StartChar: N
Encoding: 78 78 49
Width: 553
GlyphClass: 2
Flags: W
LayerCount: 2
Fore
SplineSet
453 0 m 1,0,-1
 285 0 l 1,1,-1
 205 296 l 1,2,-1
 197 296 l 1,3,-1
 145 0 l 1,4,-1
 -11 0 l 1,5,-1
 101 636 l 1,6,-1
 274 636 l 1,7,-1
 346 331 l 1,8,-1
 354 331 l 1,9,-1
 408 636 l 1,10,-1
 565 636 l 1,11,-1
 453 0 l 1,0,-1
EndSplineSet
EndChar

StartChar: O
Encoding: 79 79 50
Width: 550
GlyphClass: 2
Flags: W
LayerCount: 2
Fore
SplineSet
334.5 646 m 128,-1,1
 469 646 469 646 513 570 c 0,2,3
 539 525 539 525 539 447 c 0,4,5
 539 392 539 392 527 324 c 0,6,7
 497 154 497 154 423.5 72 c 128,-1,8
 350 -10 350 -10 216.5 -10 c 0,9,10
 84 -10 84 -10 40 71 c 0,11,12
 14 119 14 119 14 198 c 0,13,14
 14 252 14 252 26 322 c 0,15,16
 56 492 56 492 128 569 c 128,-1,0
 200 646 200 646 334.5 646 c 128,-1,1
359 451 m 0,17,18
 350 484 350 484 304 484 c 128,-1,19
 258 484 258 484 239.5 451 c 128,-1,20
 221 418 221 418 204 325 c 2,21,-1
 200 300 l 2,22,23
 189 234 189 234 189 198 c 0,24,25
 190 180 190 180 192 170 c 0,26,27
 200 138 200 138 246 138 c 128,-1,28
 292 138 292 138 310.5 168 c 128,-1,29
 329 198 329 198 345 291 c 2,30,-1
 351 324 l 2,31,32
 362 385 362 385 362 421 c 0,33,34
 362 440 362 440 359 451 c 0,17,18
EndSplineSet
EndChar

StartChar: P
Encoding: 80 80 51
Width: 475
GlyphClass: 2
Flags: W
LayerCount: 2
Fore
SplineSet
245 208 m 2,0,-1
 198 208 l 1,1,-1
 161 0 l 1,2,-1
 -11 0 l 1,3,-1
 101 636 l 1,4,-1
 309 636 l 2,5,6
 419 636 419 636 463 586 c 0,7,8
 493 552 493 552 493 487 c 0,9,10
 493 457 493 457 487 421 c 0,11,12
 467 306 467 306 408 257 c 128,-1,13
 349 208 349 208 245 208 c 2,0,-1
309 409 m 0,14,15
 313 432 313 432 313 448 c 0,16,17
 314 463 314 463 310 472 c 0,18,19
 302 490 302 490 272 490 c 2,20,-1
 247 490 l 1,21,-1
 219 329 l 1,22,-1
 248 329 l 2,23,24
 277 329 277 329 289 346.5 c 128,-1,25
 301 364 301 364 309 409 c 0,14,15
EndSplineSet
EndChar

StartChar: Q
Encoding: 81 81 52
Width: 550
GlyphClass: 2
Flags: W
LayerCount: 2
Fore
SplineSet
343.5 646 m 128,-1,1
 478 646 478 646 522 570 c 0,2,3
 548 525 548 525 548 448 c 0,4,5
 548 395 548 395 536 328 c 0,6,7
 517 219 517 219 478 151 c 128,-1,8
 439 83 439 83 375 39 c 1,9,-1
 374 35 l 1,10,-1
 501 24 l 1,11,-1
 465 -109 l 1,12,-1
 446 -109 l 2,13,14
 371 -109 371 -109 319 -74 c 2,15,-1
 220 -10 l 1,16,17
 92 -10 92 -10 49 74 c 0,18,19
 23 124 23 124 23 204 c 0,20,21
 24 258 24 258 36 326 c 0,22,23
 66 493 66 493 137.5 569.5 c 128,-1,0
 209 646 209 646 343.5 646 c 128,-1,1
368 451 m 0,24,25
 360 484 360 484 313.5 484 c 128,-1,26
 267 484 267 484 248 451 c 128,-1,27
 229 418 229 418 213 325 c 2,28,-1
 209 300 l 2,29,30
 198 234 198 234 198 198 c 0,31,32
 198 180 198 180 200 170 c 0,33,34
 208 138 208 138 254.5 138 c 128,-1,35
 301 138 301 138 319.5 168 c 128,-1,36
 338 198 338 198 354 291 c 2,37,-1
 360 324 l 2,38,39
 370 385 370 385 370 421 c 0,40,41
 371 440 371 440 368 451 c 0,24,25
EndSplineSet
EndChar

StartChar: R
Encoding: 82 82 53
Width: 505
GlyphClass: 2
Flags: W
LayerCount: 2
Fore
SplineSet
500 434 m 0,0,1
 490 377 490 377 466 339 c 128,-1,2
 442 301 442 301 401 270 c 1,3,-1
 438 0 l 1,4,-1
 248 0 l 1,5,-1
 225 229 l 1,6,-1
 201 229 l 1,7,-1
 161 0 l 1,8,-1
 -11 0 l 1,9,-1
 101 636 l 1,10,-1
 339 636 l 2,11,12
 441 636 441 636 480 588 c 0,13,14
 506 555 506 555 506 497 c 0,15,16
 506 468 506 468 500 434 c 0,0,1
287.5 352.5 m 128,-1,18
 302 368 302 368 309 408 c 0,19,20
 312 426 312 426 312 440 c 0,21,22
 312 456 312 456 308 464 c 0,23,24
 300 480 300 480 274 480 c 2,25,-1
 246 480 l 1,26,-1
 220 337 l 1,27,-1
 247 337 l 2,28,17
 273 337 273 337 287.5 352.5 c 128,-1,18
EndSplineSet
EndChar

StartChar: S
Encoding: 83 83 54
Width: 437
GlyphClass: 2
Flags: W
LayerCount: 2
Fore
SplineSet
117.5 591 m 128,-1,1
 181 646 181 646 273.5 646 c 128,-1,2
 366 646 366 646 461 628 c 1,3,-1
 411 464 l 1,4,5
 318 487 318 487 279 487 c 0,6,7
 277 487 277 487 276 487 c 0,8,9
 221 487 221 487 221 445 c 0,10,11
 220 432 220 432 238 419 c 0,12,13
 258 404 258 404 288.5 388.5 c 128,-1,14
 319 373 319 373 348 351 c 0,15,16
 376 329 376 329 392 288 c 0,17,18
 402 262 402 262 402 231 c 0,19,20
 402 213 402 213 399 194 c 0,21,22
 382 97 382 97 320 43.5 c 128,-1,23
 258 -10 258 -10 162.5 -10 c 128,-1,24
 67 -10 67 -10 -19 19 c 1,25,-1
 19 172 l 1,26,27
 122 140 122 140 166 140 c 0,28,29
 216 140 216 140 216 183 c 0,30,31
 216 200 216 200 199 214 c 0,32,33
 179 230 179 230 149 246.5 c 128,-1,34
 119 263 119 263 89.5 284.5 c 128,-1,35
 60 306 60 306 44 347 c 0,36,37
 34 372 34 372 34 403 c 0,38,39
 34 422 34 422 38 444 c 0,40,0
 54 536 54 536 117.5 591 c 128,-1,1
EndSplineSet
EndChar

StartChar: T
Encoding: 84 84 55
Width: 419
GlyphClass: 2
Flags: W
LayerCount: 2
Fore
SplineSet
444 481 m 1,0,-1
 325 481 l 1,1,-1
 240 0 l 1,2,-1
 65 0 l 1,3,-1
 150 481 l 1,4,-1
 24 481 l 1,5,-1
 61 636 l 1,6,-1
 481 636 l 1,7,-1
 444 481 l 1,0,-1
EndSplineSet
EndChar

StartChar: U
Encoding: 85 85 56
Width: 556
GlyphClass: 2
Flags: W
LayerCount: 2
Fore
SplineSet
211 162 m 0,0,1
 222 146 222 146 252 146 c 128,-1,2
 282 146 282 146 296.5 161 c 128,-1,3
 311 176 311 176 317 210 c 2,4,-1
 392 636 l 1,5,-1
 568 636 l 1,6,-1
 491 200 l 2,7,8
 472 90 472 90 403 40 c 128,-1,9
 334 -10 334 -10 218 -10 c 128,-1,10
 102 -10 102 -10 54 40 c 0,11,12
 20 75 20 75 20 141 c 0,13,14
 20 167 20 167 25 198 c 2,15,-1
 102 636 l 1,16,-1
 281 636 l 1,17,-1
 206 209 l 2,18,19
 204 198 204 198 204 188 c 0,20,21
 204 172 204 172 211 162 c 0,0,1
EndSplineSet
EndChar

StartChar: V
Encoding: 86 86 57
Width: 517
GlyphClass: 2
Flags: W
LayerCount: 2
Fore
SplineSet
561 636 m 1,0,-1
 341 0 l 1,1,-1
 71 0 l 1,2,-1
 68 636 l 1,3,-1
 262 636 l 1,4,-1
 244 219 l 1,5,-1
 262 219 l 1,6,-1
 377 636 l 1,7,-1
 561 636 l 1,0,-1
EndSplineSet
EndChar

StartChar: W
Encoding: 87 87 58
Width: 697
GlyphClass: 2
Flags: W
LayerCount: 2
Fore
SplineSet
733 636 m 1,0,-1
 564 0 l 1,1,-1
 353 0 l 1,2,-1
 347 282 l 1,3,-1
 339 282 l 1,4,-1
 243 0 l 1,5,-1
 31 0 l 1,6,-1
 76 636 l 1,7,-1
 244 636 l 1,8,-1
 212 299 l 1,9,-1
 222 299 l 1,10,-1
 324 636 l 1,11,-1
 495 636 l 1,12,-1
 483 299 l 1,13,-1
 494 299 l 1,14,-1
 571 636 l 1,15,-1
 733 636 l 1,0,-1
EndSplineSet
EndChar

StartChar: X
Encoding: 88 88 59
Width: 499
GlyphClass: 2
Flags: W
LayerCount: 2
Fore
SplineSet
438 0 m 1,0,-1
 238 0 l 1,1,-1
 231 203 l 1,2,-1
 223 203 l 1,3,-1
 139 0 l 1,4,-1
 -50 0 l 1,5,-1
 107 330 l 1,6,-1
 70 636 l 1,7,-1
 277 636 l 1,8,-1
 279 447 l 1,9,-1
 287 447 l 1,10,-1
 358 636 l 1,11,-1
 538 636 l 1,12,-1
 401 330 l 1,13,-1
 438 0 l 1,0,-1
EndSplineSet
EndChar

StartChar: Y
Encoding: 89 89 60
Width: 475
GlyphClass: 2
Flags: W
LayerCount: 2
Fore
SplineSet
531 636 m 1,0,-1
 303 197 l 1,1,-1
 268 0 l 1,2,-1
 94 0 l 1,3,-1
 129 197 l 1,4,-1
 56 636 l 1,5,-1
 249 636 l 1,6,-1
 259 429 l 1,7,-1
 267 429 l 1,8,-1
 347 636 l 1,9,-1
 531 636 l 1,0,-1
EndSplineSet
EndChar

StartChar: Z
Encoding: 90 90 61
Width: 462
GlyphClass: 2
Flags: W
LayerCount: 2
Fore
SplineSet
397 0 m 1,0,-1
 -21 0 l 1,1,-1
 -8 94 l 1,2,-1
 246 477 l 1,3,-1
 48 477 l 1,4,-1
 66 636 l 1,5,-1
 498 636 l 1,6,-1
 485 536 l 1,7,-1
 239 146 l 1,8,-1
 423 146 l 1,9,-1
 397 0 l 1,0,-1
EndSplineSet
EndChar

StartChar: bracketleft
Encoding: 91 91 62
Width: 323
GlyphClass: 2
Flags: W
LayerCount: 2
Fore
SplineSet
221 -140 m 1,0,-1
 -21 -140 l 1,1,-1
 119 656 l 1,2,-1
 361 656 l 1,3,-1
 338 524 l 1,4,-1
 270 524 l 1,5,-1
 176 -9 l 1,6,-1
 244 -9 l 1,7,-1
 221 -140 l 1,0,-1
EndSplineSet
EndChar

StartChar: backslash
Encoding: 92 92 63
Width: 369
GlyphClass: 2
Flags: W
LayerCount: 2
Fore
SplineSet
142 -151 m 1,0,-1
 59 636 l 1,1,-1
 229 636 l 1,2,-1
 311 -151 l 1,3,-1
 142 -151 l 1,0,-1
EndSplineSet
EndChar

StartChar: bracketright
Encoding: 93 93 64
Width: 323
GlyphClass: 2
Flags: W
LayerCount: 2
Fore
SplineSet
204 -140 m 1,0,-1
 -37 -140 l 1,1,-1
 -14 -9 l 1,2,-1
 53 -9 l 1,3,-1
 147 524 l 1,4,-1
 80 524 l 1,5,-1
 103 656 l 1,6,-1
 344 656 l 1,7,-1
 204 -140 l 1,0,-1
EndSplineSet
EndChar

StartChar: asciicircum
Encoding: 94 94 65
Width: 512
GlyphClass: 2
Flags: W
LayerCount: 2
Fore
SplineSet
346 671 m 1,0,-1
 388 532 l 1,1,-1
 281 532 l 1,2,-1
 255 590 l 1,3,-1
 209 532 l 1,4,-1
 100 532 l 1,5,-1
 191 671 l 1,6,-1
 346 671 l 1,0,-1
EndSplineSet
EndChar

StartChar: underscore
Encoding: 95 95 66
Width: 411
GlyphClass: 2
Flags: W
LayerCount: 2
Fore
SplineSet
403 -140 m 1,0,-1
 -9 -140 l 1,1,-1
 9 -34 l 1,2,-1
 421 -34 l 1,3,-1
 403 -140 l 1,0,-1
EndSplineSet
EndChar

StartChar: grave
Encoding: 96 96 67
Width: 512
GlyphClass: 2
Flags: W
LayerCount: 2
Fore
SplineSet
215 532 m 1,0,-1
 131 676 l 1,1,-1
 293 676 l 1,2,-1
 333 532 l 1,3,-1
 215 532 l 1,0,-1
EndSplineSet
EndChar

StartChar: a
Encoding: 97 97 68
Width: 446
GlyphClass: 2
Flags: W
LayerCount: 2
Fore
SplineSet
420 362 m 2,0,-1
 378 151 l 2,1,2
 375 132 375 132 383.5 125 c 128,-1,3
 392 118 392 118 415 118 c 1,4,-1
 378 -6 l 1,5,6
 318 -10 318 -10 312 -10 c 0,7,8
 236 -10 236 -10 225 42 c 1,9,-1
 220 42 l 1,10,11
 173 -10 173 -10 94 -10 c 0,12,13
 34 -10 34 -10 8 29 c 0,14,15
 -10 56 -10 56 -9 97 c 0,16,17
 -9 115 -9 115 -6 135 c 0,18,19
 9 220 9 220 68 253 c 128,-1,20
 127 286 127 286 242 296 c 1,21,-1
 246 321 l 2,22,23
 247 325 247 325 247 329 c 0,24,25
 247 349 247 349 225 349 c 0,26,27
 224 349 224 349 223 349 c 0,28,29
 174 349 174 349 64 319 c 1,30,-1
 65 469 l 1,31,32
 202 503 202 503 289 503 c 128,-1,33
 376 503 376 503 404 469 c 0,34,35
 424 446 424 446 424 404 c 0,36,37
 424 385 424 385 420 362 c 2,0,-1
179 110 m 0,38,39
 217 110 217 110 224 150 c 2,40,-1
 233 200 l 1,41,42
 194 195 194 195 176 184 c 128,-1,43
 158 173 158 173 153 147 c 0,44,45
 152 141 152 141 152 136 c 0,46,47
 152 110 152 110 179 110 c 0,38,39
EndSplineSet
EndChar

StartChar: b
Encoding: 98 98 69
Width: 477
GlyphClass: 2
Flags: W
LayerCount: 2
Fore
SplineSet
443 446 m 0,0,1
 454 419 454 419 454 374 c 0,2,3
 454 324 454 324 441 254 c 0,4,5
 417 118 417 118 371.5 54 c 128,-1,6
 326 -10 326 -10 228 -10 c 0,7,8
 151 -10 151 -10 127 30 c 1,9,-1
 123 30 l 1,10,-1
 108 0 l 1,11,-1
 -26 0 l 1,12,-1
 90 656 l 1,13,-1
 261 656 l 1,14,-1
 230 479 l 1,15,-1
 234 479 l 1,16,17
 272 502 272 502 325 502 c 0,18,19
 421 502 421 502 443 446 c 0,0,1
256.5 189.5 m 0,20,21
 262 208 262 208 270 256 c 0,22,23
 276 292 276 292 276 315 c 0,24,25
 276 323 276 323 275 330 c 0,26,27
 272 356 272 356 250 356 c 128,-1,28
 228 356 228 356 205 344 c 1,29,-1
 167 132 l 1,30,31
 184 123 184 123 202.5 123 c 128,-1,32
 221 123 221 123 229.5 129.5 c 128,-1,33
 238 136 238 136 245 154 c 128,-1,34
 252 172 252 172 256.5 189.5 c 0,20,21
EndSplineSet
EndChar

StartChar: c
Encoding: 99 99 70
Width: 353
GlyphClass: 2
Flags: W
LayerCount: 2
Fore
SplineSet
219 326 m 0,0,1
 204 300 204 300 194 242 c 0,2,3
 187 204 187 204 187 179 c 0,4,5
 187 166 187 166 189 158 c 0,6,7
 194 132 194 132 225 132.5 c 128,-1,8
 256 133 256 133 309 144 c 1,9,-1
 304 13 l 1,10,11
 232 -10 232 -10 178 -10 c 0,12,13
 176 -10 176 -10 174 -10 c 0,14,15
 77 -10 77 -10 39 56 c 0,16,17
 14 99 14 99 14 163 c 0,18,19
 14 198 14 198 22 238 c 0,20,21
 42 356 42 356 106 429.5 c 128,-1,22
 170 503 170 503 267 503 c 0,23,24
 340 503 340 503 394 478 c 1,25,-1
 349 328 l 1,26,27
 296 354 296 354 266 354 c 0,28,29
 264 354 264 354 264 354 c 0,30,31
 234 354 234 354 219 326 c 0,0,1
EndSplineSet
EndChar

StartChar: d
Encoding: 100 100 71
Width: 488
GlyphClass: 2
Flags: W
LayerCount: 2
Fore
SplineSet
407 -6 m 1,0,-1
 337 -10 l 1,1,2
 258 -10 258 -10 250 42 c 1,3,-1
 245 42 l 1,4,5
 202 -10 202 -10 132 -10 c 0,6,7
 40 -10 40 -10 14 54 c 0,8,9
 0 88 0 88 1 141 c 0,10,11
 2 186 2 186 12 246 c 0,12,13
 34 374 34 374 87.5 438.5 c 128,-1,14
 141 503 141 503 219 503 c 0,15,16
 273 503 273 503 298 477 c 1,17,-1
 330 656 l 1,18,-1
 501 656 l 1,19,-1
 412 151 l 2,20,21
 409 132 409 132 416 125 c 128,-1,22
 423 118 423 118 444 118 c 1,23,-1
 407 -6 l 1,0,-1
205.5 332 m 128,-1,25
 194 306 194 306 185.5 257.5 c 128,-1,26
 177 209 177 209 175 191.5 c 128,-1,27
 173 174 173 174 173 156 c 128,-1,28
 173 138 173 138 179.5 131.5 c 128,-1,29
 186 125 186 125 204 125 c 128,-1,30
 222 125 222 125 243 134 c 1,31,-1
 280 346 l 1,32,33
 260 358 260 358 238.5 358 c 128,-1,24
 217 358 217 358 205.5 332 c 128,-1,25
EndSplineSet
EndChar

StartChar: e
Encoding: 101 101 72
Width: 452
GlyphClass: 2
Flags: W
LayerCount: 2
Fore
SplineSet
255 356 m 0,0,1
 228 356 228 356 217 338.5 c 128,-1,2
 206 321 206 321 200 284 c 1,3,-1
 289 284 l 1,4,-1
 293 308 l 2,5,6
 294 315 294 315 294 321 c 0,7,8
 294 356 294 356 255 356 c 0,0,1
285 503 m 0,9,10
 390 503 390 503 426 452 c 0,11,12
 451 417 451 417 452 360 c 0,13,14
 452 335 452 335 447 307 c 0,15,16
 445 295 445 295 420 197 c 1,17,-1
 187 197 l 1,18,19
 185 184 185 184 185 174 c 0,20,21
 185 120 185 120 244 120 c 0,22,23
 278 120 278 120 380 143 c 1,24,-1
 372 16 l 1,25,26
 284 -10 284 -10 202 -10 c 0,27,28
 199 -10 199 -10 196 -10 c 0,29,30
 90 -10 90 -10 46 59 c 0,31,32
 16 106 16 106 16 176 c 0,33,34
 16 209 16 209 23 247 c 0,35,36
 68 503 68 503 285 503 c 0,9,10
EndSplineSet
EndChar

StartChar: f
Encoding: 102 102 73
Width: 300
GlyphClass: 2
Flags: W
LayerCount: 2
Fore
SplineSet
252 664 m 0,0,1
 315 664 315 664 383 657 c 1,2,-1
 342 508 l 1,3,4
 297 513 297 513 276 513 c 128,-1,5
 255 513 255 513 252 495 c 2,6,-1
 248 476 l 1,7,-1
 332 476 l 1,8,-1
 302 349 l 1,9,-1
 228 349 l 1,10,-1
 166 0 l 1,11,-1
 -5 0 l 1,12,-1
 57 349 l 1,13,-1
 12 349 l 1,14,-1
 34 476 l 1,15,-1
 79 476 l 1,16,-1
 88 527 l 2,17,18
 114 664 114 664 252 664 c 0,0,1
EndSplineSet
EndChar

StartChar: g
Encoding: 103 103 74
Width: 460
GlyphClass: 2
Flags: W
LayerCount: 2
Fore
SplineSet
140 -45 m 2,0,-1
 246 -45 l 2,1,2
 264 -45 264 -45 267 -29 c 2,3,-1
 268 -25 l 2,4,5
 271 -10 271 -10 252 -9 c 2,6,-1
 146 -9 l 2,7,8
 130 -9 130 -9 127 -26 c 2,9,-1
 127 -30 l 2,10,11
 124 -45 124 -45 140 -45 c 2,0,-1
278 503 m 2,12,-1
 520 503 l 1,13,-1
 499 388 l 1,14,-1
 425 388 l 1,15,16
 424 388 424 388 424 383 c 1,17,18
 446 360 446 360 446 328 c 0,19,20
 446 319 446 319 444 308 c 0,21,22
 415 144 415 144 230 144 c 2,23,-1
 180 144 l 2,24,25
 162 144 162 144 159.5 127.5 c 128,-1,26
 157 111 157 111 174 111 c 2,27,-1
 314 111 l 2,28,29
 415 111 415 111 415 36 c 0,30,31
 415 23 415 23 412 8 c 0,32,33
 397 -76 397 -76 334.5 -113.5 c 128,-1,34
 272 -151 272 -151 172.5 -151 c 0,35,36
 72 -151 72 -151 26 -130 c 0,37,38
 -12 -113 -12 -113 -12 -70 c 0,39,40
 -12 -61 -12 -61 -10 -51 c 0,41,42
 -4 -19 -4 -19 39 2 c 1,43,-1
 40 6 l 1,44,45
 2 30 2 30 2 71 c 0,46,47
 2 78 2 78 3 86 c 0,48,49
 14 147 14 147 99 179 c 1,50,51
 68 206 68 206 56 241 c 0,52,53
 50 260 50 260 49 285 c 0,54,55
 49 307 49 307 54 335 c 0,56,57
 68 416 68 416 128.5 459.5 c 128,-1,58
 189 503 189 503 278 503 c 2,12,-1
289 354 m 0,59,60
 284 369 284 369 263.5 369 c 128,-1,61
 243 369 243 369 233 354 c 128,-1,62
 223 339 223 339 217 308 c 0,63,64
 214 293 214 293 214 282 c 0,65,66
 214 246 214 246 242 246 c 0,67,68
 277 246 277 246 288 306 c 0,69,70
 291 324 291 324 291 337 c 0,71,72
 291 347 291 347 289 354 c 0,59,60
EndSplineSet
EndChar

StartChar: h
Encoding: 104 104 75
Width: 478
GlyphClass: 2
Flags: W
LayerCount: 2
Fore
SplineSet
228 455 m 1,0,1
 292 503 292 503 358 503 c 0,2,3
 424 504 424 504 446 472 c 0,4,5
 460 451 460 451 460 416 c 0,6,7
 460 399 460 399 456 378 c 2,8,-1
 389 0 l 1,9,-1
 215 0 l 1,10,-1
 271 319 l 2,11,12
 272 324 272 324 272 328 c 0,13,14
 272 345 272 345 254 345 c 0,15,16
 225 345 225 345 204 331 c 1,17,-1
 145 0 l 1,18,-1
 -27 0 l 1,19,-1
 89 656 l 1,20,-1
 260 656 l 1,21,-1
 224 455 l 1,22,-1
 228 455 l 1,0,1
EndSplineSet
EndChar

StartChar: i
Encoding: 105 105 76
Width: 237
GlyphClass: 2
Flags: W
LayerCount: 2
Fore
SplineSet
145 0 m 1,0,-1
 -24 0 l 1,1,-1
 62 485 l 1,2,-1
 231 485 l 1,3,-1
 145 0 l 1,0,-1
72 584 m 0,4,5
 80 625 80 625 104.5 644.5 c 128,-1,6
 129 664 129 664 178 664 c 128,-1,7
 227 664 227 664 245 644 c 0,8,9
 258 630 258 630 258 607 c 0,10,11
 258 596 258 596 256 584 c 0,12,13
 248 544 248 544 223.5 525 c 128,-1,14
 199 506 199 506 150 506 c 0,15,16
 100 506 100 506 82 524 c 0,17,18
 69 537 69 537 69 562 c 0,19,20
 70 572 70 572 72 584 c 0,4,5
EndSplineSet
EndChar

StartChar: j
Encoding: 106 106 77
Width: 253
GlyphClass: 2
Flags: W
LayerCount: 2
Fore
SplineSet
254 485 m 1,0,-1
 167 -12 l 2,1,2
 153 -92 153 -92 112 -121.5 c 128,-1,3
 71 -151 71 -151 -25 -151 c 2,4,-1
 -76 -151 l 1,5,-1
 -65 -9 l 1,6,-1
 -31 -9 l 2,7,8
 -14 -9 -14 -9 -8 -4.5 c 128,-1,9
 -2 0 -2 0 0 15 c 2,10,-1
 83 485 l 1,11,-1
 254 485 l 1,0,-1
92 584 m 0,12,13
 99 625 99 625 124 644.5 c 128,-1,14
 149 664 149 664 198 664 c 128,-1,15
 247 664 247 664 265 644 c 0,16,17
 278 630 278 630 278 606 c 0,18,19
 278 596 278 596 276 584 c 0,20,21
 269 544 269 544 244 525 c 128,-1,22
 219 506 219 506 170 506 c 128,-1,23
 121 506 121 506 103 524 c 0,24,25
 90 537 90 537 90 563 c 0,26,27
 90 573 90 573 92 584 c 0,12,13
EndSplineSet
EndChar

StartChar: k
Encoding: 107 107 78
Width: 452
GlyphClass: 2
Flags: W
LayerCount: 2
Fore
SplineSet
396 0 m 1,0,-1
 206 0 l 1,1,-1
 177 188 l 1,2,-1
 173 188 l 1,3,-1
 140 0 l 1,4,-1
 -27 0 l 1,5,-1
 89 656 l 1,6,-1
 258 656 l 1,7,-1
 194 295 l 1,8,-1
 198 295 l 1,9,-1
 308 490 l 1,10,-1
 487 490 l 1,11,-1
 340 246 l 1,12,-1
 396 0 l 1,0,-1
EndSplineSet
EndChar

StartChar: l
Encoding: 108 108 79
Width: 238
GlyphClass: 2
Flags: W
LayerCount: 2
Fore
SplineSet
-6 113 m 2,0,-1
 90 656 l 1,1,-1
 259 656 l 1,2,-1
 172 167 l 2,3,4
 169 150 169 150 175.5 142.5 c 128,-1,5
 182 135 182 135 201 135 c 1,6,-1
 162 -10 l 1,7,-1
 106 -10 l 2,8,9
 38 -10 38 -10 10 18 c 0,10,11
 -10 38 -10 38 -10 76 c 0,12,13
 -10 93 -10 93 -6 113 c 2,0,-1
EndSplineSet
EndChar

StartChar: m
Encoding: 109 109 80
Width: 722
GlyphClass: 2
Flags: W
LayerCount: 2
Fore
SplineSet
482 455 m 2,0,1
 546 503 546 503 614 503 c 0,2,3
 682 504 682 504 704 472 c 0,4,5
 718 451 718 451 718 416 c 0,6,7
 718 399 718 399 714 378 c 2,8,-1
 648 0 l 1,9,-1
 474 0 l 1,10,-1
 530 319 l 2,11,12
 531 324 531 324 531 327 c 0,13,14
 531 345 531 345 512 345 c 0,15,16
 483 345 483 345 461 331 c 1,17,-1
 403 0 l 1,18,-1
 229 0 l 1,19,-1
 285 319 l 2,20,21
 286 324 286 324 286 327 c 0,22,23
 286 345 286 345 267 345 c 0,24,25
 238 345 238 345 217 331 c 1,26,-1
 159 0 l 1,27,-1
 -13 0 l 1,28,-1
 73 490 l 1,29,-1
 229 490 l 1,30,-1
 234 455 l 1,31,-1
 238 455 l 1,32,33
 302 503 302 503 379.5 503 c 128,-1,34
 457 503 457 503 470 445 c 1,35,-1
 482 455 l 2,0,1
EndSplineSet
EndChar

StartChar: n
Encoding: 110 110 81
Width: 478
GlyphClass: 2
Flags: W
LayerCount: 2
Fore
SplineSet
238 455 m 1,0,1
 302 503 302 503 369.5 503 c 0,2,3
 436 504 436 504 458 472 c 0,4,5
 472 451 472 451 473 416 c 0,6,7
 473 399 473 399 469 378 c 2,8,-1
 403 0 l 1,9,-1
 229 0 l 1,10,-1
 285 319 l 2,11,12
 286 324 286 324 286 327 c 0,13,14
 286 345 286 345 267 345 c 0,15,16
 238 345 238 345 217 331 c 1,17,-1
 159 0 l 1,18,-1
 -13 0 l 1,19,-1
 73 490 l 1,20,-1
 229 490 l 1,21,-1
 234 455 l 1,22,-1
 238 455 l 1,0,1
EndSplineSet
EndChar

StartChar: o
Encoding: 111 111 82
Width: 468
GlyphClass: 2
Flags: W
LayerCount: 2
Fore
SplineSet
109 442.5 m 128,-1,1
 171 503 171 503 281 503 c 0,2,3
 390 504 390 504 430 444 c 0,4,5
 455 407 455 407 455 340 c 0,6,7
 455 300 455 300 446 248 c 0,8,9
 422 112 422 112 362.5 51 c 128,-1,10
 303 -10 303 -10 191.5 -10 c 128,-1,11
 80 -10 80 -10 40 52 c 0,12,13
 15 91 15 91 14 158 c 0,14,15
 14 198 14 198 23 248 c 0,16,0
 47 382 47 382 109 442.5 c 128,-1,1
256.5 365 m 0,17,18
 230 365 230 365 219.5 344.5 c 128,-1,19
 209 324 209 324 197 258 c 2,20,-1
 193 233 l 2,21,22
 182 174 182 174 182 149 c 0,23,24
 182 143 182 143 183 139 c 0,25,26
 186 118 186 118 212 118 c 128,-1,27
 238 118 238 118 249 139.5 c 128,-1,28
 260 161 260 161 272 227 c 2,29,-1
 277 257 l 2,30,31
 287 311 287 311 287 334 c 0,32,33
 287 340 287 340 286 344 c 0,34,35
 283 364 283 364 256.5 365 c 0,17,18
EndSplineSet
EndChar

StartChar: p
Encoding: 112 112 83
Width: 477
GlyphClass: 2
Flags: W
LayerCount: 2
Fore
SplineSet
173 11 m 1,0,-1
 146 -140 l 1,1,-1
 -26 -140 l 1,2,-1
 85 490 l 1,3,-1
 226 490 l 1,4,-1
 231 460 l 1,5,-1
 236 460 l 1,6,7
 272 502 272 502 356.5 502 c 128,-1,8
 441 502 441 502 465 444 c 0,9,10
 477 414 477 414 477 365 c 0,11,12
 478 317 478 317 466 252 c 0,13,14
 442 119 442 119 394 54 c 128,-1,15
 346 -11 346 -11 249 -11 c 0,16,17
 204 -11 204 -11 177 11 c 1,18,-1
 173 11 l 1,0,-1
281.5 189.5 m 0,19,20
 286 208 286 208 294 256 c 0,21,22
 300 292 300 292 301 315 c 0,23,24
 301 323 301 323 300 330 c 0,25,26
 297 356 297 356 275 356 c 128,-1,27
 253 356 253 356 230 344 c 1,28,-1
 192 132 l 1,29,30
 209 123 209 123 227.5 123 c 128,-1,31
 246 123 246 123 254.5 129.5 c 128,-1,32
 263 136 263 136 270 154 c 128,-1,33
 277 172 277 172 281.5 189.5 c 0,19,20
EndSplineSet
EndChar

StartChar: q
Encoding: 113 113 84
Width: 477
GlyphClass: 2
Flags: W
LayerCount: 2
Fore
SplineSet
217 -140 m 1,0,-1
 245 15 l 1,1,-1
 241 15 l 1,2,3
 202 -10 202 -10 162 -10 c 0,4,5
 162 -10 162 -10 159 -10 c 0,6,7
 66 -10 66 -10 40 55 c 0,8,9
 26 91 26 91 26 144 c 0,10,11
 26 188 26 188 36 246 c 0,12,13
 58 372 58 372 112 437.5 c 128,-1,14
 166 503 166 503 240.5 503 c 128,-1,15
 315 503 315 503 339 460 c 1,16,-1
 344 460 l 1,17,-1
 359 490 l 1,18,-1
 500 490 l 1,19,-1
 389 -140 l 1,20,-1
 217 -140 l 1,0,-1
230.5 332 m 128,-1,22
 219 306 219 306 210.5 257.5 c 128,-1,23
 202 209 202 209 200 191.5 c 128,-1,24
 198 174 198 174 198 156 c 128,-1,25
 198 138 198 138 204.5 131.5 c 128,-1,26
 211 125 211 125 229 125 c 128,-1,27
 247 125 247 125 268 134 c 1,28,-1
 305 346 l 1,29,30
 285 358 285 358 263.5 358 c 128,-1,21
 242 358 242 358 230.5 332 c 128,-1,22
EndSplineSet
EndChar

StartChar: r
Encoding: 114 114 85
Width: 320
GlyphClass: 2
Flags: W
LayerCount: 2
Fore
SplineSet
205 275 m 2,0,-1
 157 0 l 1,1,-1
 -13 0 l 1,2,-1
 73 490 l 1,3,-1
 222 490 l 1,4,-1
 227 461 l 1,5,-1
 232 461 l 1,6,7
 261 488 261 488 285.5 495.5 c 128,-1,8
 310 503 310 503 365 503 c 1,9,-1
 328 339 l 1,10,-1
 281 339 l 2,11,12
 241 339 241 339 226.5 326.5 c 128,-1,13
 212 314 212 314 205 275 c 2,0,-1
EndSplineSet
EndChar

StartChar: s
Encoding: 115 115 86
Width: 350
GlyphClass: 2
Flags: W
LayerCount: 2
Fore
SplineSet
87.5 461.5 m 0,0,1
 140 503 140 503 220 503 c 128,-1,2
 300 503 300 503 379 482 c 1,3,-1
 335 340 l 1,4,5
 235 364 235 364 200 364 c 0,6,7
 178 364 178 364 176 346 c 0,8,9
 174 335 174 335 195 326 c 0,10,11
 272 296 272 296 306 258 c 0,12,13
 331 230 331 230 332 183 c 0,14,15
 332 164 332 164 328 144 c 0,16,17
 315 68 315 68 269 29 c 128,-1,18
 223 -10 223 -10 143 -10 c 128,-1,19
 63 -10 63 -10 -14 10 c 1,20,-1
 22 148 l 1,21,22
 117 120 117 120 148 120 c 0,23,24
 150 120 150 120 150 120 c 0,25,26
 183 121 183 121 183 138 c 0,27,28
 183 150 183 150 163 158 c 0,29,30
 78 193 78 193 43 232 c 0,31,32
 18 260 18 260 18 307 c 0,33,34
 18 326 18 326 22 346 c 0,35,36
 36 420 36 420 87.5 461.5 c 0,0,1
EndSplineSet
EndChar

StartChar: t
Encoding: 116 116 87
Width: 324
GlyphClass: 2
Flags: W
LayerCount: 2
Fore
SplineSet
257 -1 m 1,0,1
 179 -10 179 -10 123.5 -10 c 128,-1,2
 68 -10 68 -10 42 19 c 0,3,4
 24 38 24 38 24 77 c 0,5,6
 24 96 24 96 28 120 c 2,7,-1
 70 357 l 1,8,-1
 21 357 l 1,9,-1
 43 484 l 1,10,-1
 101 484 l 1,11,-1
 127 579 l 1,12,-1
 281 579 l 1,13,-1
 264 484 l 1,14,-1
 356 484 l 1,15,-1
 326 357 l 1,16,-1
 241 357 l 1,17,-1
 205 154 l 2,18,19
 204 150 204 150 204 148 c 0,20,21
 204 132 204 132 222 132 c 0,22,23
 224 132 224 132 286 135 c 1,24,-1
 257 -1 l 1,0,1
EndSplineSet
EndChar

StartChar: u
Encoding: 117 117 88
Width: 478
GlyphClass: 2
Flags: W
LayerCount: 2
Fore
SplineSet
109 -10 m 0,0,1
 7 -10 7 -10 7 84 c 0,2,3
 7 103 7 103 11 125 c 2,4,-1
 75 490 l 1,5,-1
 249 490 l 1,6,-1
 192 167 l 2,7,8
 191 162 191 162 191 159 c 0,9,10
 191 141 191 141 210 141 c 0,11,12
 239 141 239 141 260 156 c 1,13,-1
 319 490 l 1,14,-1
 491 490 l 1,15,-1
 405 2 l 1,16,-1
 243 2 l 1,17,-1
 249 38 l 1,18,-1
 245 38 l 1,19,20
 181 -10 181 -10 109 -10 c 0,0,1
EndSplineSet
EndChar

StartChar: v
Encoding: 118 118 89
Width: 451
GlyphClass: 2
Flags: W
LayerCount: 2
Fore
SplineSet
495 490 m 1,0,-1
 304 0 l 1,1,-1
 62 0 l 1,2,-1
 43 490 l 1,3,-1
 223 490 l 1,4,-1
 212 176 l 1,5,-1
 226 176 l 1,6,-1
 328 490 l 1,7,-1
 495 490 l 1,0,-1
EndSplineSet
EndChar

StartChar: w
Encoding: 119 119 90
Width: 591
GlyphClass: 2
Flags: W
LayerCount: 2
Fore
SplineSet
630 490 m 1,0,-1
 481 0 l 1,1,-1
 294 0 l 1,2,-1
 290 207 l 1,3,-1
 283 207 l 1,4,-1
 208 0 l 1,5,-1
 25 0 l 1,6,-1
 48 490 l 1,7,-1
 206 490 l 1,8,-1
 184 243 l 1,9,-1
 193 243 l 1,10,-1
 270 490 l 1,11,-1
 413 490 l 1,12,-1
 403 243 l 1,13,-1
 413 243 l 1,14,-1
 478 490 l 1,15,-1
 630 490 l 1,0,-1
EndSplineSet
EndChar

StartChar: x
Encoding: 120 120 91
Width: 443
GlyphClass: 2
Flags: W
LayerCount: 2
Fore
SplineSet
394 0 m 1,0,-1
 213 0 l 1,1,-1
 203 144 l 1,2,-1
 197 144 l 1,3,-1
 139 0 l 1,4,-1
 -37 0 l 1,5,-1
 88 239 l 1,6,-1
 49 490 l 1,7,-1
 236 490 l 1,8,-1
 238 334 l 1,9,-1
 244 334 l 1,10,-1
 303 490 l 1,11,-1
 478 490 l 1,12,-1
 352 242 l 1,13,-1
 394 0 l 1,0,-1
EndSplineSet
EndChar

StartChar: y
Encoding: 121 121 92
Width: 455
GlyphClass: 2
Flags: W
LayerCount: 2
Fore
SplineSet
513 490 m 1,0,-1
 297 -14 l 2,1,2
 265 -90 265 -90 220.5 -120.5 c 128,-1,3
 176 -151 176 -151 90 -151 c 2,4,-1
 -12 -151 l 1,5,-1
 -3 -18 l 1,6,-1
 54 -18 l 2,7,8
 89 -18 89 -18 94 9 c 0,9,10
 95 15 95 15 94 36 c 2,11,-1
 57 490 l 1,12,-1
 239 490 l 1,13,-1
 231 184 l 1,14,-1
 241 184 l 1,15,-1
 345 490 l 1,16,-1
 513 490 l 1,0,-1
EndSplineSet
EndChar

StartChar: z
Encoding: 122 122 93
Width: 402
GlyphClass: 2
Flags: W
LayerCount: 2
Fore
SplineSet
347 0 m 1,0,-1
 -20 0 l 1,1,-1
 -8 98 l 1,2,-1
 188 347 l 1,3,-1
 30 347 l 1,4,-1
 55 490 l 1,5,-1
 423 490 l 1,6,-1
 413 399 l 1,7,-1
 222 141 l 1,8,-1
 372 141 l 1,9,-1
 347 0 l 1,0,-1
EndSplineSet
EndChar

StartChar: braceleft
Encoding: 123 123 94
Width: 343
GlyphClass: 2
Flags: W
LayerCount: 2
Fore
SplineSet
230 -140 m 1,0,-1
 117 -140 l 2,1,2
 50 -140 50 -140 27 -110 c 0,3,4
 12 -90 12 -90 12 -52 c 0,5,6
 12 -32 12 -32 16 -8 c 2,7,-1
 46 160 l 2,8,9
 48 171 48 171 48 178 c 0,10,11
 48 190 48 190 43 194 c 0,12,13
 35 200 35 200 -2 199 c 1,14,-1
 21 330 l 1,15,16
 58 330 58 330 67.5 335 c 128,-1,17
 77 340 77 340 82 368 c 2,18,-1
 108 516 l 2,19,20
 122 594 122 594 155.5 625 c 128,-1,21
 189 656 189 656 257 656 c 2,22,-1
 370 656 l 1,23,-1
 346 520 l 1,24,-1
 276 520 l 1,25,-1
 247 356 l 2,26,27
 240 315 240 315 226 297.5 c 128,-1,28
 212 280 212 280 182 266 c 1,29,-1
 181 259 l 1,30,31
 206 248 206 248 214 229 c 0,32,33
 218 219 218 219 218 203 c 0,34,35
 218 189 218 189 215 171 c 2,36,-1
 183 -10 l 1,37,-1
 253 -10 l 1,38,-1
 230 -140 l 1,0,-1
EndSplineSet
EndChar

StartChar: bar
Encoding: 124 124 95
Width: 345
GlyphClass: 2
Flags: W
LayerCount: 2
Fore
SplineSet
184 -151 m 1,0,-1
 23 -151 l 1,1,-1
 161 636 l 1,2,-1
 322 636 l 1,3,-1
 184 -151 l 1,0,-1
EndSplineSet
EndChar

StartChar: braceright
Encoding: 125 125 96
Width: 343
GlyphClass: 2
Flags: W
LayerCount: 2
Fore
SplineSet
86 -140 m 2,0,-1
 -27 -140 l 1,1,-1
 -4 -10 l 1,2,-1
 66 -10 l 1,3,-1
 98 171 l 2,4,5
 105 210 105 210 119 229 c 128,-1,6
 133 248 133 248 162 259 c 1,7,-1
 163 266 l 1,8,9
 138 279 138 279 130 297 c 0,10,11
 126 306 126 306 127 322 c 0,12,13
 127 336 127 336 130 356 c 2,14,-1
 159 520 l 1,15,-1
 89 520 l 1,16,-1
 113 656 l 1,17,-1
 226 656 l 2,18,19
 295 656 295 656 317 625 c 0,20,21
 330 606 330 606 330 570 c 0,22,23
 330 547 330 547 325 516 c 2,24,-1
 299 368 l 2,25,26
 297 357 297 357 297 350 c 0,27,28
 297 338 297 338 302 335 c 0,29,30
 310 330 310 330 348 330 c 1,31,-1
 325 199 l 1,32,33
 289 199 289 199 278 193 c 128,-1,34
 267 187 267 187 263 160 c 2,35,-1
 233 -8 l 2,36,37
 220 -79 220 -79 186.5 -109.5 c 128,-1,38
 153 -140 153 -140 86 -140 c 2,0,-1
EndSplineSet
EndChar

StartChar: asciitilde
Encoding: 126 126 97
Width: 512
GlyphClass: 2
Flags: W
LayerCount: 2
Fore
SplineSet
434 676 m 1,0,-1
 433 668 l 2,1,2
 421 602 421 602 397 568.5 c 128,-1,3
 373 535 373 535 318 535 c 0,4,5
 281 535 281 535 238 551 c 2,6,-1
 215 559 l 1,7,-1
 209 523 l 1,8,-1
 98 523 l 1,9,-1
 99 534 l 2,10,11
 111 601 111 601 136.5 634 c 128,-1,12
 162 667 162 667 211 667 c 0,13,14
 227 667 227 667 298 647 c 2,15,-1
 317 642 l 1,16,-1
 323 676 l 1,17,-1
 434 676 l 1,0,-1
EndSplineSet
EndChar

StartChar: exclamdown
Encoding: 161 161 99
Width: 305
GlyphClass: 2
Flags: W
LayerCount: 2
Fore
SplineSet
243 301 m 1,0,-1
 176 -140 l 1,1,-1
 2 -140 l 1,2,-1
 95 301 l 1,3,-1
 243 301 l 1,0,-1
279 426 m 0,4,5
 272 385 272 385 246.5 365 c 128,-1,6
 221 345 221 345 173.5 345 c 128,-1,7
 126 345 126 345 108 365 c 0,8,9
 96 379 96 379 96 405 c 0,10,11
 96 415 96 415 98 428 c 0,12,13
 112 507 112 507 202 507 c 0,14,15
 280 507 280 507 281 446 c 0,16,17
 281 437 281 437 279 426 c 0,4,5
EndSplineSet
EndChar

StartChar: cent
Encoding: 162 162 100
Width: 406
GlyphClass: 2
Flags: W
LayerCount: 2
Fore
SplineSet
230.5 326 m 0,0,1
 216 300 216 300 206 242 c 0,2,3
 199 203 199 203 198 178 c 0,4,5
 198 166 198 166 200 158 c 0,6,7
 205 132 205 132 236.5 132.5 c 128,-1,8
 268 133 268 133 320 144 c 1,9,-1
 315 13 l 1,10,11
 281 2 281 2 242 -5 c 1,12,-1
 229 -81 l 1,13,-1
 94 -81 l 1,14,-1
 109 5 l 1,15,16
 26 43 26 43 26 160 c 0,17,18
 26 195 26 195 33 237 c 0,19,20
 49 326 49 326 89.5 391 c 128,-1,21
 130 456 130 456 193 484 c 1,22,-1
 210 582 l 1,23,-1
 345 582 l 1,24,-1
 331 499 l 1,25,26
 371 495 371 495 406 478 c 1,27,-1
 361 328 l 1,28,29
 308 354 308 354 277 354 c 0,30,31
 276 354 276 354 276 354 c 0,32,33
 245 354 245 354 230.5 326 c 0,0,1
EndSplineSet
EndChar

StartChar: sterling
Encoding: 163 163 101
Width: 576
GlyphClass: 2
Flags: W
LayerCount: 2
Fore
SplineSet
369 646 m 0,0,1
 432 646 432 646 538 627 c 1,2,-1
 489 462 l 1,3,4
 402 481 402 481 381 481 c 0,5,6
 370 480 370 480 368 466 c 0,7,8
 367 463 367 463 368 457 c 0,9,10
 368 437 368 437 374 389 c 1,11,-1
 470 389 l 1,12,-1
 441 287 l 1,13,-1
 369 287 l 1,14,-1
 358 224 l 2,15,16
 348 165 348 165 318 119 c 1,17,-1
 363 98 l 1,18,-1
 371 98 l 1,19,-1
 381 159 l 1,20,-1
 534 159 l 1,21,22
 517 60 517 60 474.5 11 c 128,-1,23
 432 -38 432 -38 353 -38 c 0,24,25
 310 -38 310 -38 282 -28.5 c 128,-1,26
 254 -19 254 -19 215 2 c 1,27,-1
 207 2 l 1,28,29
 153 -24 153 -24 92 -24 c 0,30,31
 30 -24 30 -24 -2 9 c 0,32,33
 -26 34 -26 34 -26 75 c 0,34,35
 -26 88 -26 88 -23 104 c 0,36,37
 -12 166 -12 166 27.5 198 c 128,-1,38
 67 230 67 230 110.5 230 c 128,-1,39
 154 230 154 230 179 218 c 1,40,-1
 183 218 l 1,41,-1
 195 287 l 1,42,-1
 99 287 l 1,43,-1
 117 389 l 1,44,-1
 188 389 l 1,45,46
 179 444 179 444 179 476 c 0,47,48
 179 491 179 491 181 501 c 0,49,50
 206 646 206 646 369 646 c 0,0,1
100 98 m 0,51,52
 100 95 100 95 99 93 c 0,53,54
 99 78 99 78 118 78 c 0,55,56
 140 78 140 78 159 95 c 1,57,58
 139 119 139 119 121.5 118.5 c 128,-1,59
 104 118 104 118 100 98 c 0,51,52
EndSplineSet
EndChar

StartChar: currency
Encoding: 164 164 102
Width: 797
GlyphClass: 2
Flags: W
LayerCount: 2
Fore
SplineSet
44 78 m 1,0,-1
 22 129 l 1,1,-1
 162 203 l 1,2,3
 159 227 159 227 159 250 c 0,4,5
 159 280 159 280 164 308 c 0,6,7
 173 358 173 358 193 404 c 1,8,-1
 78 479 l 1,9,-1
 120 534 l 1,10,-1
 230 463 l 1,11,12
 317 555 317 555 445 555 c 128,-1,13
 573 555 573 555 628 465 c 1,14,-1
 757 534 l 1,15,-1
 778 479 l 1,16,-1
 646 410 l 1,17,18
 648 394 648 394 648 376 c 0,19,20
 648 344 648 344 642 312 c 0,21,22
 633 260 633 260 602 202 c 1,23,-1
 711 129 l 1,24,-1
 670 77 l 1,25,-1
 560 150 l 1,26,27
 476 74 476 74 357.5 74 c 128,-1,28
 239 74 239 74 182 152 c 1,29,30
 134 127 134 127 44 78 c 1,0,-1
367 125 m 0,31,32
 545 125 545 125 579 313 c 0,33,34
 584 340 584 340 584 364 c 0,35,36
 584 418 584 418 558 452 c 0,37,38
 522 502 522 502 433 502 c 0,39,40
 257 502 257 502 224 312 c 0,41,42
 219 284 219 284 219 260 c 0,43,44
 220 204 220 204 246 172 c 0,45,46
 284 125 284 125 367 125 c 0,31,32
EndSplineSet
EndChar

StartChar: yen
Encoding: 165 165 103
Width: 516
GlyphClass: 2
Flags: W
LayerCount: 2
Fore
SplineSet
552 636 m 1,0,-1
 388 324 l 1,1,-1
 465 324 l 1,2,-1
 447 222 l 1,3,-1
 335 222 l 1,4,-1
 323 197 l 1,5,-1
 321 190 l 1,6,-1
 441 190 l 1,7,-1
 424 91 l 1,8,-1
 304 91 l 1,9,-1
 288 0 l 1,10,-1
 114 0 l 1,11,-1
 130 91 l 1,12,-1
 13 91 l 1,13,-1
 30 190 l 1,14,-1
 147 190 l 1,15,-1
 149 197 l 1,16,-1
 144 222 l 1,17,-1
 36 222 l 1,18,-1
 54 324 l 1,19,-1
 128 324 l 1,20,-1
 76 636 l 1,21,-1
 269 636 l 1,22,-1
 279 429 l 1,23,-1
 287 429 l 1,24,-1
 367 636 l 1,25,-1
 552 636 l 1,0,-1
EndSplineSet
EndChar

StartChar: brokenbar
Encoding: 166 166 104
Width: 345
GlyphClass: 2
Flags: W
LayerCount: 2
Fore
SplineSet
184 -151 m 1,0,-1
 23 -151 l 1,1,-1
 81 181 l 1,2,-1
 242 181 l 1,3,-1
 184 -151 l 1,0,-1
322 636 m 1,4,-1
 269 333 l 1,5,-1
 108 333 l 1,6,-1
 161 636 l 1,7,-1
 322 636 l 1,4,-1
EndSplineSet
EndChar

StartChar: section
Encoding: 167 167 105
Width: 450
GlyphClass: 2
Flags: W
LayerCount: 2
Fore
SplineSet
271 205 m 1,0,1
 273 208 273 208 274.5 218.5 c 128,-1,2
 276 229 276 229 275.5 238.5 c 128,-1,3
 275 248 275 248 270 257 c 128,-1,4
 265 266 265 266 261.5 272 c 128,-1,5
 258 278 258 278 246.5 287.5 c 128,-1,6
 235 297 235 297 230.5 300.5 c 128,-1,7
 226 304 226 304 210 316 c 128,-1,8
 194 328 194 328 188 332 c 1,9,10
 186 326 186 326 183.5 311 c 128,-1,11
 181 296 181 296 185 283.5 c 128,-1,12
 189 271 189 271 203 257 c 0,13,14
 224 238 224 238 271 205 c 1,0,1
412 340 m 0,15,16
 420 318 420 318 421 291 c 0,17,18
 421 273 421 273 417 252 c 0,19,20
 408 201 408 201 391.5 168 c 128,-1,21
 375 135 375 135 343 98 c 1,22,23
 346 85 346 85 346 69 c 0,24,25
 346 51 346 51 342 31 c 0,26,27
 327 -55 327 -55 273.5 -103 c 128,-1,28
 220 -151 220 -151 133 -151 c 0,29,30
 81 -151 81 -151 -20 -130 c 1,31,-1
 20 31 l 1,32,33
 126 1 126 1 156 1 c 0,34,35
 191 1 191 1 191 35 c 0,36,37
 190 49 190 49 176 63 c 0,38,39
 158 80 158 80 132.5 98 c 128,-1,40
 107 116 107 116 82 138.5 c 0,41,42
 57 162 57 162 43 198 c 0,43,44
 34 221 34 221 34 248 c 0,45,46
 34 263 34 263 37 280 c 0,47,48
 51 360 51 360 110 422 c 1,49,50
 105 437 105 437 105 456 c 0,51,52
 105 470 105 470 108 485 c 0,53,54
 123 570 123 570 181.5 617 c 128,-1,55
 240 664 240 664 321 664 c 0,56,57
 354 664 354 664 376.5 659.5 c 128,-1,58
 399 655 399 655 422 651 c 128,-1,59
 445 647 445 647 459 644 c 1,60,-1
 410 489 l 1,61,62
 321 511 321 511 295 511 c 0,63,64
 265 511 265 511 265 487 c 0,65,66
 264 476 264 476 280 464 c 0,67,68
 298 450 298 450 324.5 434.5 c 128,-1,69
 351 419 351 419 374.5 398.5 c 128,-1,70
 398 378 398 378 412 340 c 0,15,16
EndSplineSet
EndChar

StartChar: dieresis
Encoding: 168 168 106
Width: 512
GlyphClass: 2
Flags: W
LayerCount: 2
Fore
SplineSet
120 547 m 0,0,1
 110 559 110 559 111 577 c 0,2,3
 111 584 111 584 112 592 c 0,4,5
 117 620 117 620 136.5 635.5 c 128,-1,6
 156 651 156 651 187 651 c 0,7,8
 218 652 218 652 232 636 c 0,9,10
 243 624 243 624 243 606 c 0,11,12
 243 600 243 600 242 592 c 0,13,14
 231 532 231 532 163 531 c 0,15,16
 134 531 134 531 120 547 c 0,0,1
294 547 m 0,17,18
 284 559 284 559 284 577 c 0,19,20
 284 584 284 584 285 592 c 0,21,22
 290 620 290 620 310 635.5 c 128,-1,23
 330 651 330 651 361 651 c 0,24,25
 392 652 392 652 406 636 c 0,26,27
 416 625 416 625 416 606 c 0,28,29
 416 600 416 600 415 592 c 0,30,31
 410 564 410 564 390 547.5 c 128,-1,32
 370 531 370 531 339 531 c 128,-1,33
 308 531 308 531 294 547 c 0,17,18
EndSplineSet
EndChar

StartChar: copyright
Encoding: 169 169 107
Width: 962
GlyphClass: 2
Flags: W
LayerCount: 2
Fore
SplineSet
528 531 m 0,0,1
 256 532 256 532 204 238 c 0,2,3
 196 192 196 192 196 152 c 0,4,5
 196 -56 196 -56 428 -56 c 0,6,7
 565 -56 565 -56 646 17 c 128,-1,8
 727 90 727 90 752 234 c 0,9,10
 760 279 760 279 760 317 c 0,11,12
 760 402 760 402 722 454 c 0,13,14
 666 530 666 530 528 531 c 0,0,1
215 564 m 0,15,16
 353 683 353 683 559.5 683 c 128,-1,17
 766 683 766 683 862 564 c 0,18,19
 932 477 932 477 932 345 c 0,20,21
 932 296 932 296 922 240 c 0,22,23
 886 34 886 34 744 -84.5 c 128,-1,24
 602 -203 602 -203 396 -203 c 0,25,26
 190 -202 190 -202 97 -86 c 0,27,28
 30 -2 30 -2 30 128 c 0,29,30
 30 180 30 180 40 238 c 0,31,32
 76 446 76 446 215 564 c 0,15,16
444 152 m 0,33,34
 450 128 450 128 478 128 c 128,-1,35
 506 128 506 128 568 144 c 1,36,-1
 568 15 l 1,37,38
 487 -10 487 -10 436 -10 c 0,39,40
 434 -10 434 -10 432 -10 c 0,41,42
 337 -10 337 -10 305 52 c 0,43,44
 286 89 286 89 286 149 c 0,45,46
 286 188 286 188 294 237 c 0,47,48
 316 359 316 359 372.5 424 c 128,-1,49
 429 489 429 489 531 489 c 0,50,51
 590 489 590 489 647 460 c 1,52,-1
 599 323 l 1,53,54
 539 345 539 345 514 345 c 0,55,56
 512 344 512 344 512 344 c 0,57,58
 486 344 486 344 473 319 c 128,-1,59
 460 294 460 294 450 235 c 0,60,61
 443 196 443 196 443 173 c 0,62,63
 442 160 442 160 444 152 c 0,33,34
EndSplineSet
EndChar

StartChar: ordfeminine
Encoding: 170 170 108
Width: 389
GlyphClass: 2
Flags: W
LayerCount: 2
Fore
SplineSet
336 556 m 2,0,-1
 305 408 l 2,1,2
 303 395 303 395 309.5 389.5 c 128,-1,3
 316 384 316 384 332 384 c 1,4,-1
 306 298 l 1,5,6
 274 295 274 295 259 295 c 0,7,8
 206 295 206 295 198 332 c 1,9,-1
 195 332 l 1,10,11
 162 295 162 295 113 295 c 0,12,13
 34 295 34 295 34 366 c 0,14,15
 34 380 34 380 37 396 c 0,16,17
 47 455 47 455 88.5 478.5 c 128,-1,18
 130 502 130 502 211 509 c 1,19,-1
 214 526 l 2,20,21
 215 529 215 529 215 532 c 0,22,23
 215 546 215 546 197 547 c 0,24,25
 159 547 159 547 86 525 c 1,26,-1
 86 631 l 1,27,28
 184 655 184 655 243 655 c 0,29,30
 244 654 244 654 245 654 c 0,31,32
 304 654 304 654 324 630 c 0,33,34
 338 614 338 614 339 585 c 0,35,36
 339 572 339 572 336 556 c 2,0,-1
166 379 m 0,37,38
 192 379 192 379 197 407 c 2,39,-1
 203 441 l 1,40,41
 176 438 176 438 164 430.5 c 128,-1,42
 152 423 152 423 149 406 c 0,43,44
 148 400 148 400 148 396 c 0,45,46
 148 379 148 379 166 379 c 0,37,38
EndSplineSet
EndChar

StartChar: guillemotleft
Encoding: 171 171 109
Width: 539
GlyphClass: 2
Flags: W
LayerCount: 2
Fore
SplineSet
19 212 m 1,0,-1
 30 275 l 1,1,-1
 248 488 l 1,2,-1
 314 427 l 1,3,-1
 174 248 l 1,4,-1
 252 69 l 1,5,-1
 156 4 l 1,6,-1
 19 212 l 1,0,-1
234 212 m 1,7,-1
 245 275 l 1,8,-1
 460 488 l 1,9,-1
 528 427 l 1,10,-1
 388 248 l 1,11,-1
 466 69 l 1,12,-1
 368 4 l 1,13,-1
 234 212 l 1,7,-1
EndSplineSet
EndChar

StartChar: logicalnot
Encoding: 172 172 110
Width: 499
GlyphClass: 2
Flags: W
LayerCount: 2
Fore
SplineSet
274 133 m 1,0,-1
 293 237 l 1,1,-1
 51 237 l 1,2,-1
 74 366 l 1,3,-1
 461 366 l 1,4,-1
 419 133 l 1,5,-1
 274 133 l 1,0,-1
EndSplineSet
EndChar

StartChar: registered
Encoding: 174 174 111
Width: 962
GlyphClass: 2
Flags: W
LayerCount: 2
Fore
SplineSet
537 300 m 0,0,1
 539 309 539 309 539 316 c 0,2,3
 539 327 539 327 535 333 c 0,4,5
 529 343 529 343 510 343 c 2,6,-1
 487 343 l 1,7,-1
 472 258 l 1,8,-1
 497 258 l 2,9,10
 530 258 530 258 537 300 c 0,0,1
684 322 m 0,11,12
 669 237 669 237 615 194 c 1,13,-1
 649 29 l 1,14,15
 730 110 730 110 754 244 c 0,16,17
 761 284 761 284 760 319 c 0,18,19
 760 400 760 400 722 454 c 0,20,21
 666 530 666 530 528 531 c 0,22,23
 256 531 256 531 204 237 c 0,24,25
 196 191 196 191 196 153 c 0,26,27
 196 69 196 69 234 18 c 0,28,29
 290 -56 290 -56 424 -56 c 0,30,31
 535 -56 535 -56 621 0 c 1,32,-1
 494 0 l 1,33,-1
 468 150 l 1,34,-1
 460 150 l 1,35,-1
 434 0 l 1,36,-1
 280 0 l 1,37,-1
 364 478 l 1,38,-1
 545 478 l 2,39,40
 546 478 546 478 547 478 c 0,41,42
 688 478 688 478 688 364 c 0,43,44
 688 345 688 345 684 322 c 0,11,12
215 564 m 0,45,46
 353 683 353 683 559.5 683 c 128,-1,47
 766 683 766 683 862 564 c 0,48,49
 932 477 932 477 932 345 c 0,50,51
 932 296 932 296 922 240 c 0,52,53
 886 34 886 34 744 -84.5 c 128,-1,54
 602 -203 602 -203 396 -203 c 0,55,56
 190 -202 190 -202 97 -86 c 0,57,58
 30 -2 30 -2 30 128 c 0,59,60
 30 180 30 180 40 238 c 0,61,62
 76 446 76 446 215 564 c 0,45,46
EndSplineSet
EndChar

StartChar: macron
Encoding: 175 175 112
Width: 512
GlyphClass: 2
Flags: W
LayerCount: 2
Fore
SplineSet
394 543 m 1,0,-1
 118 543 l 1,1,-1
 138 660 l 1,2,-1
 414 660 l 1,3,-1
 394 543 l 1,0,-1
EndSplineSet
EndChar

StartChar: degree
Encoding: 176 176 113
Width: 309
GlyphClass: 2
Flags: W
LayerCount: 2
Fore
SplineSet
262 616 m 0,0,1
 277 596 277 596 276 561 c 0,2,3
 276 542 276 542 272 519 c 0,4,5
 260 453 260 453 227.5 422 c 128,-1,6
 195 391 195 391 132.5 391 c 128,-1,7
 70 391 70 391 48 422 c 0,8,9
 33 443 33 443 33 478 c 0,10,11
 32 496 32 496 36 518 c 0,12,13
 48 583 48 583 81.5 614.5 c 128,-1,14
 115 646 115 646 177.5 646 c 128,-1,15
 240 646 240 646 262 616 c 0,0,1
180 518.5 m 128,-1,17
 183 538 183 538 179 546.5 c 128,-1,18
 175 555 175 555 160 555 c 128,-1,19
 145 555 145 555 138.5 547 c 128,-1,20
 132 539 132 539 128.5 519 c 128,-1,21
 125 499 125 499 129 491 c 128,-1,22
 133 483 133 483 147.5 483 c 128,-1,23
 162 483 162 483 169.5 491 c 128,-1,16
 177 499 177 499 180 518.5 c 128,-1,17
EndSplineSet
EndChar

StartChar: plusminus
Encoding: 177 177 114
Width: 493
GlyphClass: 2
Flags: W
LayerCount: 2
Fore
SplineSet
444 305 m 1,0,-1
 315 305 l 1,1,-1
 292 177 l 1,2,-1
 159 177 l 1,3,-1
 182 305 l 1,4,-1
 57 305 l 1,5,-1
 80 434 l 1,6,-1
 205 434 l 1,7,-1
 228 567 l 1,8,-1
 361 567 l 1,9,-1
 338 434 l 1,10,-1
 467 434 l 1,11,-1
 444 305 l 1,0,-1
390 0 m 1,12,-1
 3 0 l 1,13,-1
 26 129 l 1,14,-1
 413 129 l 1,15,-1
 390 0 l 1,12,-1
EndSplineSet
EndChar

StartChar: twosuperior
Encoding: 178 178 115
Width: 370
GlyphClass: 2
Flags: W
LayerCount: 2
Fore
SplineSet
78 608 m 1,0,1
 155 646 155 646 223.5 646 c 128,-1,2
 292 646 292 646 322 610 c 0,3,4
 344 584 344 584 344 543 c 0,5,6
 344 528 344 528 341 510 c 0,7,8
 333 466 333 466 312 428.5 c 128,-1,9
 291 391 291 391 269.5 367.5 c 128,-1,10
 248 344 248 344 197 296 c 1,11,-1
 304 296 l 1,12,-1
 286 194 l 1,13,-1
 22 194 l 1,14,-1
 29 266 l 1,15,16
 89 319 89 319 120.5 349 c 128,-1,17
 152 379 152 379 180.5 417 c 128,-1,18
 209 455 209 455 213 479 c 0,19,20
 214 487 214 487 214 494 c 0,21,22
 214 527 214 527 181 527 c 0,23,24
 152 527 152 527 82 498 c 1,25,-1
 78 608 l 1,0,1
EndSplineSet
EndChar

StartChar: threesuperior
Encoding: 179 179 116
Width: 371
GlyphClass: 2
Flags: W
LayerCount: 2
Fore
SplineSet
226 646 m 0,0,1
 342 646 342 646 342 559 c 0,2,3
 342 545 342 545 339 529 c 0,4,5
 328 464 328 464 267 429 c 1,6,-1
 267 426 l 1,7,8
 313 403 313 403 313 351 c 0,9,10
 313 340 313 340 311 328 c 0,11,12
 286 187 286 187 140 186 c 0,13,14
 85 186 85 186 22 215 c 1,15,-1
 65 315 l 1,16,17
 117 294 117 294 141 294 c 0,18,19
 142 294 142 294 143 294 c 0,20,21
 177 294 177 294 184 331 c 0,22,23
 185 337 185 337 185 341 c 0,24,25
 185 372 185 372 146 372 c 2,26,-1
 102 372 l 1,27,-1
 119 465 l 1,28,-1
 164 465 l 2,29,30
 200 464 200 464 206 500 c 0,31,32
 207 505 207 505 206 510 c 0,33,34
 206 536 206 536 179 536 c 0,35,36
 154 536 154 536 91 511 c 1,37,-1
 79 608 l 1,38,39
 157 646 157 646 226 646 c 0,0,1
EndSplineSet
EndChar

StartChar: acute
Encoding: 180 180 117
Width: 512
GlyphClass: 2
Flags: W
LayerCount: 2
Fore
SplineSet
398 676 m 1,0,-1
 261 532 l 1,1,-1
 144 532 l 1,2,-1
 234 676 l 1,3,-1
 398 676 l 1,0,-1
EndSplineSet
EndChar

StartChar: mu
Encoding: 181 181 118
AltUni2: 0003bc.ffffffff.0 0003bc.ffffffff.0
Width: 531
GlyphClass: 2
Flags: W
LayerCount: 2
Fore
SplineSet
216 -10 m 0,0,1
 191 -10 191 -10 171 0 c 1,2,-1
 145 -147 l 1,3,-1
 -25 -147 l 1,4,-1
 87 485 l 1,5,-1
 259 485 l 1,6,-1
 206 188 l 2,7,8
 205 180 205 180 205 173 c 0,9,10
 204 135 204 135 246 135 c 0,11,12
 296 135 296 135 305 188 c 2,13,-1
 358 485 l 1,14,-1
 532 485 l 1,15,-1
 472 147 l 2,16,17
 471 143 471 143 471 140 c 0,18,19
 471 116 471 116 511 116 c 0,20,21
 512 116 512 116 514 116 c 1,22,-1
 470 -10 l 1,23,-1
 432 -10 l 2,24,25
 361 -10 361 -10 332 29 c 1,26,-1
 328 29 l 1,27,28
 283 -10 283 -10 216 -10 c 0,0,1
EndSplineSet
EndChar

StartChar: paragraph
Encoding: 182 182 119
Width: 589
GlyphClass: 2
Flags: W
LayerCount: 2
Fore
SplineSet
466 -133 m 1,0,-1
 321 -133 l 1,1,-1
 437 527 l 1,2,-1
 405 527 l 1,3,-1
 289 -133 l 1,4,-1
 144 -133 l 1,5,-1
 202 198 l 1,6,7
 112 198 112 198 70 254 c 0,8,9
 42 293 42 293 42 356 c 0,10,11
 42 385 42 385 48 419 c 0,12,13
 67 527 67 527 138.5 588 c 128,-1,14
 210 649 210 649 317 649 c 2,15,-1
 604 649 l 1,16,-1
 466 -133 l 1,0,-1
EndSplineSet
EndChar

StartChar: periodcentered
Encoding: 183 183 120
Width: 354
GlyphClass: 2
Flags: W
LayerCount: 2
Fore
SplineSet
166 221 m 0,0,1
 81 221 81 221 81 289 c 0,2,3
 81 300 81 300 83 312 c 0,4,5
 100 404 100 404 198 404 c 0,6,7
 283 404 283 404 282 336 c 0,8,9
 282 324 282 324 280 312 c 0,10,11
 264 220 264 220 166 221 c 0,0,1
EndSplineSet
EndChar

StartChar: cedilla
Encoding: 184 184 121
Width: 512
GlyphClass: 2
Flags: W
LayerCount: 2
Fore
SplineSet
348 -64 m 0,0,1
 358 -75 358 -75 358 -93 c 0,2,3
 358 -100 358 -100 357 -107 c 0,4,5
 352 -135 352 -135 323.5 -155 c 128,-1,6
 295 -175 295 -175 245.5 -175 c 128,-1,7
 196 -175 196 -175 158 -145 c 1,8,-1
 204 -81 l 1,9,10
 240 -113 240 -113 256 -113 c 128,-1,11
 272 -113 272 -113 274 -103 c 128,-1,12
 276 -93 276 -93 264 -86 c 2,13,-1
 249 -76 l 2,14,15
 230 -66 230 -66 230 -49 c 0,16,17
 230 -46 230 -46 230 -43 c 0,18,19
 234 -22 234 -22 253 -8 c 1,20,-1
 319 -8 l 1,21,22
 308 -17 308 -17 306.5 -25 c 128,-1,23
 305 -33 305 -33 319.5 -41 c 128,-1,24
 334 -49 334 -49 348 -64 c 0,0,1
EndSplineSet
EndChar

StartChar: onesuperior
Encoding: 185 185 122
Width: 285
GlyphClass: 2
Flags: W
LayerCount: 2
Fore
SplineSet
177 190 m 1,0,-1
 57 190 l 1,1,-1
 115 521 l 1,2,-1
 64 521 l 1,3,-1
 77 597 l 1,4,-1
 157 636 l 1,5,-1
 255 636 l 1,6,-1
 177 190 l 1,0,-1
EndSplineSet
EndChar

StartChar: ordmasculine
Encoding: 186 186 123
Width: 397
GlyphClass: 2
Flags: W
LayerCount: 2
Fore
SplineSet
110 611.5 m 128,-1,1
 154 654 154 654 230.5 654 c 128,-1,2
 307 654 307 654 335 612 c 0,3,4
 353 586 353 586 353 539 c 0,5,6
 352 511 352 511 346 476 c 0,7,8
 330 381 330 381 288 338 c 128,-1,9
 246 295 246 295 167.5 295 c 128,-1,10
 89 295 89 295 61 338 c 0,11,12
 43 365 43 365 43 412 c 0,13,14
 44 440 44 440 50 475 c 0,15,0
 66 569 66 569 110 611.5 c 128,-1,1
213.5 557 m 0,16,17
 195 557 195 557 187 542.5 c 128,-1,18
 179 528 179 528 171 482 c 2,19,-1
 169 466 l 2,20,21
 162 424 162 424 162 406 c 0,22,23
 162 402 162 402 162 400 c 0,24,25
 164 384 164 384 182.5 384 c 128,-1,26
 201 384 201 384 208 399 c 128,-1,27
 215 414 215 414 224 461 c 2,28,-1
 227 482 l 2,29,30
 234 521 234 521 234 537 c 0,31,32
 234 540 234 540 234 542 c 0,33,34
 232 556 232 556 213.5 557 c 0,16,17
EndSplineSet
EndChar

StartChar: guillemotright
Encoding: 187 187 124
Width: 539
GlyphClass: 2
Flags: W
LayerCount: 2
Fore
SplineSet
520 275 m 1,0,-1
 509 212 l 1,1,-1
 298 4 l 1,2,-1
 226 69 l 1,3,-1
 366 248 l 1,4,-1
 290 427 l 1,5,-1
 378 488 l 1,6,-1
 520 275 l 1,0,-1
305 275 m 1,7,-1
 294 212 l 1,8,-1
 86 4 l 1,9,-1
 12 69 l 1,10,-1
 152 248 l 1,11,-1
 76 427 l 1,12,-1
 166 488 l 1,13,-1
 305 275 l 1,7,-1
EndSplineSet
EndChar

StartChar: onequarter
Encoding: 188 188 125
Width: 819
GlyphClass: 2
Flags: W
LayerCount: 2
Fore
SplineSet
563 646 m 1,0,-1
 263 -10 l 1,1,-1
 143 -10 l 1,2,-1
 442 646 l 1,3,-1
 563 646 l 1,0,-1
728 87 m 1,4,-1
 678 87 l 1,5,-1
 663 0 l 1,6,-1
 543 0 l 1,7,-1
 558 87 l 1,8,-1
 395 87 l 1,9,-1
 398 172 l 1,10,-1
 592 445 l 1,11,-1
 741 445 l 1,12,-1
 695 183 l 1,13,-1
 750 183 l 1,14,-1
 728 87 l 1,4,-1
578 183 m 1,15,-1
 598 293 l 1,16,-1
 594 293 l 1,17,-1
 516 183 l 1,18,-1
 578 183 l 1,15,-1
193 190 m 1,19,-1
 73 190 l 1,20,-1
 132 521 l 1,21,-1
 81 521 l 1,22,-1
 94 597 l 1,23,-1
 174 636 l 1,24,-1
 272 636 l 1,25,-1
 193 190 l 1,19,-1
EndSplineSet
EndChar

StartChar: onehalf
Encoding: 189 189 126
Width: 794
GlyphClass: 2
Flags: W
LayerCount: 2
Fore
SplineSet
563 646 m 1,0,-1
 263 -10 l 1,1,-1
 143 -10 l 1,2,-1
 442 646 l 1,3,-1
 563 646 l 1,0,-1
193 190 m 1,4,-1
 73 190 l 1,5,-1
 132 521 l 1,6,-1
 81 521 l 1,7,-1
 94 597 l 1,8,-1
 174 636 l 1,9,-1
 272 636 l 1,10,-1
 193 190 l 1,4,-1
486 415 m 1,11,12
 563 453 563 453 631.5 453 c 0,13,14
 700 454 700 454 730 418 c 0,15,16
 752 392 752 392 752 349 c 0,17,18
 752 333 752 333 749 316 c 0,19,20
 741 272 741 272 720 235 c 128,-1,21
 699 198 699 198 677.5 174.5 c 128,-1,22
 656 151 656 151 605 102 c 1,23,-1
 712 102 l 1,24,-1
 694 0 l 1,25,-1
 430 0 l 1,26,-1
 437 73 l 1,27,28
 497 126 497 126 528.5 155.5 c 128,-1,29
 560 185 560 185 588.5 223 c 128,-1,30
 617 261 617 261 621 286 c 0,31,32
 622 294 622 294 622 301 c 0,33,34
 622 334 622 334 589 334 c 0,35,36
 560 334 560 334 490 304 c 1,37,-1
 486 415 l 1,11,12
EndSplineSet
EndChar

StartChar: threequarters
Encoding: 190 190 127
Width: 899
GlyphClass: 2
Flags: W
LayerCount: 2
Fore
SplineSet
643 646 m 1,0,-1
 342 -10 l 1,1,-1
 223 -10 l 1,2,-1
 522 646 l 1,3,-1
 643 646 l 1,0,-1
243 646 m 0,4,5
 359 646 359 646 359 559 c 0,6,7
 359 545 359 545 356 529 c 0,8,9
 345 464 345 464 285 429 c 1,10,-1
 284 426 l 1,11,12
 331 403 331 403 331 350 c 0,13,14
 331 340 331 340 329 328 c 0,15,16
 304 187 304 187 158 186 c 0,17,18
 103 186 103 186 39 215 c 1,19,-1
 82 315 l 1,20,21
 134 294 134 294 159 294 c 0,22,23
 160 294 160 294 161 294 c 0,24,25
 195 294 195 294 201 331 c 0,26,27
 202 337 202 337 202 341 c 0,28,29
 202 372 202 372 164 372 c 2,30,-1
 120 372 l 1,31,-1
 136 465 l 1,32,-1
 181 465 l 2,33,34
 216 464 216 464 222 500 c 0,35,36
 223 505 223 505 223 510 c 0,37,38
 223 536 223 536 196 536 c 0,39,40
 171 536 171 536 108 511 c 1,41,-1
 96 608 l 1,42,43
 174 646 174 646 243 646 c 0,4,5
808 87 m 1,44,-1
 758 87 l 1,45,-1
 743 0 l 1,46,-1
 623 0 l 1,47,-1
 638 87 l 1,48,-1
 475 87 l 1,49,-1
 478 172 l 1,50,-1
 672 445 l 1,51,-1
 821 445 l 1,52,-1
 775 183 l 1,53,-1
 830 183 l 1,54,-1
 808 87 l 1,44,-1
658 183 m 1,55,-1
 678 293 l 1,56,-1
 674 293 l 1,57,-1
 596 183 l 1,58,-1
 658 183 l 1,55,-1
EndSplineSet
EndChar

StartChar: questiondown
Encoding: 191 191 128
Width: 396
GlyphClass: 2
Flags: W
LayerCount: 2
Fore
SplineSet
5 22 m 0,0,1
 19 99 19 99 56.5 140.5 c 128,-1,2
 94 182 94 182 161 218 c 2,3,-1
 172 224 l 1,4,-1
 183 287 l 1,5,-1
 317 287 l 1,6,-1
 299 183 l 2,7,8
 293 151 293 151 279.5 135 c 128,-1,9
 266 119 266 119 238 106 c 128,-1,10
 210 93 210 93 198 87 c 128,-1,11
 186 81 186 81 172.5 67 c 128,-1,12
 159 53 159 53 155 31 c 0,13,14
 154 24 154 24 154 19 c 0,15,16
 154 6 154 6 160 -2 c 0,17,18
 170 -14 170 -14 195.5 -14 c 128,-1,19
 221 -14 221 -14 315 9 c 1,20,-1
 288 -145 l 1,21,22
 198 -167 198 -167 139 -167 c 0,23,24
 0 -166 0 -166 -0 -35 c 0,25,26
 0 -9 0 -9 5 22 c 0,0,1
360 427 m 0,27,28
 346 346 346 346 258 346 c 0,29,30
 182 346 182 346 182 405 c 0,31,32
 182 415 182 415 184 427 c 0,33,34
 191 466 191 466 214 485 c 128,-1,35
 237 504 237 504 282 504 c 0,36,37
 362 504 362 504 362 446 c 0,38,39
 362 437 362 437 360 427 c 0,27,28
EndSplineSet
EndChar

StartChar: Agrave
Encoding: 192 192 129
Width: 509
GlyphClass: 2
Flags: W
LayerCount: 2
Fore
SplineSet
430 0 m 1,0,-1
 259 0 l 1,1,-1
 257 100 l 1,2,-1
 136 100 l 1,3,-1
 99 0 l 1,4,-1
 -64 0 l 1,5,-1
 165 636 l 1,6,-1
 425 636 l 1,7,-1
 430 0 l 1,0,-1
259 220 m 1,8,-1
 263 447 l 1,9,-1
 256 447 l 1,10,-1
 180 220 l 1,11,-1
 259 220 l 1,8,-1
268 680 m 1,12,-1
 187 816 l 1,13,-1
 340 816 l 1,14,-1
 380 680 l 1,15,-1
 268 680 l 1,12,-1
EndSplineSet
EndChar

StartChar: Aacute
Encoding: 193 193 130
Width: 509
GlyphClass: 2
Flags: W
LayerCount: 2
Fore
SplineSet
430 0 m 1,0,-1
 259 0 l 1,1,-1
 257 100 l 1,2,-1
 136 100 l 1,3,-1
 99 0 l 1,4,-1
 -64 0 l 1,5,-1
 165 636 l 1,6,-1
 425 636 l 1,7,-1
 430 0 l 1,0,-1
259 220 m 1,8,-1
 263 447 l 1,9,-1
 256 447 l 1,10,-1
 180 220 l 1,11,-1
 259 220 l 1,8,-1
464 816 m 1,12,-1
 336 680 l 1,13,-1
 223 680 l 1,14,-1
 309 816 l 1,15,-1
 464 816 l 1,12,-1
EndSplineSet
EndChar

StartChar: Acircumflex
Encoding: 194 194 131
Width: 509
GlyphClass: 2
Flags: W
LayerCount: 2
Fore
SplineSet
430 0 m 1,0,-1
 259 0 l 1,1,-1
 257 100 l 1,2,-1
 136 100 l 1,3,-1
 99 0 l 1,4,-1
 -64 0 l 1,5,-1
 166 636 l 1,6,-1
 426 636 l 1,7,-1
 430 0 l 1,0,-1
259 220 m 1,8,-1
 263 447 l 1,9,-1
 256 447 l 1,10,-1
 180 220 l 1,11,-1
 259 220 l 1,8,-1
398 811 m 1,12,-1
 438 680 l 1,13,-1
 335 680 l 1,14,-1
 311 734 l 1,15,-1
 267 680 l 1,16,-1
 163 680 l 1,17,-1
 251 811 l 1,18,-1
 398 811 l 1,12,-1
EndSplineSet
EndChar

StartChar: Atilde
Encoding: 195 195 132
Width: 509
GlyphClass: 2
Flags: W
LayerCount: 2
Fore
SplineSet
430 0 m 1,0,-1
 259 0 l 1,1,-1
 257 100 l 1,2,-1
 136 100 l 1,3,-1
 99 0 l 1,4,-1
 -64 0 l 1,5,-1
 165 636 l 1,6,-1
 425 636 l 1,7,-1
 430 0 l 1,0,-1
259 220 m 1,8,-1
 263 447 l 1,9,-1
 256 447 l 1,10,-1
 180 220 l 1,11,-1
 259 220 l 1,8,-1
467 816 m 1,12,-1
 466 808 l 2,13,14
 455 747 455 747 431.5 714.5 c 128,-1,15
 408 682 408 682 355 682 c 0,16,17
 323 682 323 682 280 697 c 2,18,-1
 259 706 l 1,19,-1
 252 671 l 1,20,-1
 146 671 l 1,21,-1
 148 681 l 2,22,23
 159 744 159 744 183 775.5 c 128,-1,24
 207 807 207 807 253 807 c 0,25,26
 271 807 271 807 337 788 c 2,27,-1
 356 784 l 1,28,-1
 362 816 l 1,29,-1
 467 816 l 1,12,-1
EndSplineSet
EndChar

StartChar: Adieresis
Encoding: 196 196 133
Width: 509
GlyphClass: 2
Flags: W
LayerCount: 2
Fore
SplineSet
432 0 m 1,0,-1
 261 0 l 1,1,-1
 259 100 l 1,2,-1
 138 100 l 1,3,-1
 101 0 l 1,4,-1
 -62 0 l 1,5,-1
 167 636 l 1,6,-1
 427 636 l 1,7,-1
 432 0 l 1,0,-1
261 220 m 1,8,-1
 265 447 l 1,9,-1
 258 447 l 1,10,-1
 182 220 l 1,11,-1
 261 220 l 1,8,-1
172 694 m 0,12,13
 162 706 162 706 162 724 c 0,14,15
 162 730 162 730 164 736 c 0,16,17
 168 762 168 762 187 777.5 c 128,-1,18
 206 793 206 793 235 793 c 128,-1,19
 264 793 264 793 278 778 c 0,20,21
 288 767 288 767 288 749 c 0,22,23
 288 743 288 743 287 736 c 0,24,25
 277 679 277 679 213 679 c 0,26,27
 186 678 186 678 172 694 c 0,12,13
337 694 m 0,28,29
 326 706 326 706 326 724 c 0,30,31
 326 730 326 730 328 736 c 0,32,33
 332 762 332 762 351.5 777.5 c 128,-1,34
 371 793 371 793 400 793 c 128,-1,35
 429 793 429 793 443 778 c 0,36,37
 453 767 453 767 453 750 c 0,38,39
 453 744 453 744 452 736 c 0,40,41
 447 710 447 710 428 694.5 c 128,-1,42
 409 679 409 679 380 678.5 c 128,-1,43
 351 678 351 678 337 694 c 0,28,29
EndSplineSet
EndChar

StartChar: Aring
Encoding: 197 197 134
Width: 509
GlyphClass: 2
Flags: W
LayerCount: 2
Fore
SplineSet
429 0 m 1,0,-1
 258 0 l 1,1,-1
 256 100 l 1,2,-1
 135 100 l 1,3,-1
 98 0 l 1,4,-1
 -65 0 l 1,5,-1
 164 636 l 1,6,-1
 424 636 l 1,7,-1
 429 0 l 1,0,-1
258 220 m 1,8,-1
 262 447 l 1,9,-1
 255 447 l 1,10,-1
 179 220 l 1,11,-1
 258 220 l 1,8,-1
260.5 805 m 128,-1,13
 288 826 288 826 326 826 c 128,-1,14
 364 826 364 826 383 806 c 0,15,16
 397 791 397 791 397 768 c 0,17,18
 398 760 398 760 396 750 c 0,19,20
 390 714 390 714 363.5 693.5 c 128,-1,21
 337 673 337 673 299 673 c 0,22,23
 261 674 261 674 241 694 c 0,24,25
 226 710 226 710 226 734 c 0,26,27
 226 741 226 741 227 749 c 0,28,12
 233 784 233 784 260.5 805 c 128,-1,13
316 779 m 0,29,30
 294 778 294 778 290 750 c 0,31,32
 289 744 289 744 288 740 c 0,33,34
 288 722 288 722 306 722 c 0,35,36
 328 722 328 722 332 750 c 0,37,38
 333 756 333 756 334 761 c 0,39,40
 333 779 333 779 316 779 c 0,29,30
EndSplineSet
EndChar

StartChar: AE
Encoding: 198 198 135
Width: 714
GlyphClass: 2
Flags: W
LayerCount: 2
Fore
SplineSet
634 0 m 1,0,-1
 290 0 l 1,1,-1
 308 100 l 1,2,-1
 173 100 l 1,3,-1
 116 0 l 1,4,-1
 -56 0 l 1,5,-1
 322 636 l 1,6,-1
 756 636 l 1,7,-1
 718 479 l 1,8,-1
 549 479 l 1,9,-1
 533 384 l 1,10,-1
 680 384 l 1,11,-1
 656 249 l 1,12,-1
 509 249 l 1,13,-1
 490 143 l 1,14,-1
 669 143 l 1,15,-1
 634 0 l 1,0,-1
329 220 m 1,16,-1
 369 447 l 1,17,-1
 362 447 l 1,18,-1
 239 220 l 1,19,-1
 329 220 l 1,16,-1
EndSplineSet
EndChar

StartChar: Ccedilla
Encoding: 199 199 136
Width: 477
GlyphClass: 2
Flags: W
LayerCount: 2
Fore
SplineSet
306 -58 m 0,0,1
 315 -69 315 -69 315 -87 c 0,2,3
 315 -94 315 -94 314 -102 c 0,4,5
 309 -130 309 -130 279.5 -151.5 c 128,-1,6
 250 -173 250 -173 198 -173 c 128,-1,7
 146 -173 146 -173 107 -140 c 1,8,-1
 157 -69 l 1,9,10
 186 -102 186 -102 213 -102 c 0,11,12
 214 -102 214 -102 215 -102 c 0,13,14
 223 -102 223 -102 225 -94.5 c 128,-1,15
 227 -87 227 -87 216 -81 c 2,16,-1
 197 -69 l 2,17,18
 180 -58 180 -58 180 -43 c 0,19,20
 180 -40 180 -40 180 -37 c 0,21,22
 184 -18 184 -18 199 -6 c 1,23,24
 106 9 106 9 60 91 c 0,25,26
 31 144 31 144 30 223 c 0,27,28
 30 267 30 267 40 320 c 0,29,30
 66 467 66 467 159.5 563 c 128,-1,31
 253 659 253 659 369 659 c 128,-1,32
 485 659 485 659 532 599 c 1,33,-1
 448 445 l 1,34,35
 432 464 432 464 421 475 c 0,36,37
 392 505 392 505 348.5 505 c 128,-1,38
 305 505 305 505 269.5 452.5 c 128,-1,39
 234 400 234 400 220 320 c 0,40,41
 214 285 214 285 214 255 c 0,42,43
 214 218 214 218 224 190 c 0,44,45
 242 138 242 138 286 138 c 0,46,47
 346 138 346 138 404 190 c 1,48,-1
 435 45 l 1,49,50
 366 -3 366 -3 272 -9 c 1,51,52
 266 -16 266 -16 264.5 -21.5 c 128,-1,53
 263 -27 263 -27 278 -34.5 c 128,-1,54
 293 -42 293 -42 306 -58 c 0,0,1
EndSplineSet
EndChar

StartChar: Egrave
Encoding: 200 200 137
Width: 413
GlyphClass: 2
Flags: W
LayerCount: 2
Fore
SplineSet
317 0 m 1,0,-1
 -27 0 l 1,1,-1
 85 636 l 1,2,-1
 439 636 l 1,3,-1
 402 479 l 1,4,-1
 233 479 l 1,5,-1
 216 384 l 1,6,-1
 363 384 l 1,7,-1
 339 249 l 1,8,-1
 192 249 l 1,9,-1
 173 143 l 1,10,-1
 352 143 l 1,11,-1
 317 0 l 1,0,-1
234 680 m 1,12,-1
 153 816 l 1,13,-1
 306 816 l 1,14,-1
 346 680 l 1,15,-1
 234 680 l 1,12,-1
EndSplineSet
EndChar

StartChar: Eacute
Encoding: 201 201 138
Width: 413
GlyphClass: 2
Flags: W
LayerCount: 2
Fore
SplineSet
317 0 m 1,0,-1
 -27 0 l 1,1,-1
 85 636 l 1,2,-1
 439 636 l 1,3,-1
 402 479 l 1,4,-1
 233 479 l 1,5,-1
 216 384 l 1,6,-1
 363 384 l 1,7,-1
 339 249 l 1,8,-1
 192 249 l 1,9,-1
 173 143 l 1,10,-1
 352 143 l 1,11,-1
 317 0 l 1,0,-1
441 816 m 1,12,-1
 312 680 l 1,13,-1
 200 680 l 1,14,-1
 285 816 l 1,15,-1
 441 816 l 1,12,-1
EndSplineSet
EndChar

StartChar: Ecircumflex
Encoding: 202 202 139
Width: 413
GlyphClass: 2
Flags: W
LayerCount: 2
Fore
SplineSet
317 0 m 1,0,-1
 -27 0 l 1,1,-1
 86 636 l 1,2,-1
 440 636 l 1,3,-1
 402 479 l 1,4,-1
 233 479 l 1,5,-1
 216 384 l 1,6,-1
 363 384 l 1,7,-1
 339 249 l 1,8,-1
 192 249 l 1,9,-1
 174 143 l 1,10,-1
 353 143 l 1,11,-1
 317 0 l 1,0,-1
362 811 m 1,12,-1
 402 680 l 1,13,-1
 299 680 l 1,14,-1
 275 734 l 1,15,-1
 231 680 l 1,16,-1
 127 680 l 1,17,-1
 215 811 l 1,18,-1
 362 811 l 1,12,-1
EndSplineSet
EndChar

StartChar: Edieresis
Encoding: 203 203 140
Width: 413
GlyphClass: 2
Flags: W
LayerCount: 2
Fore
SplineSet
319 0 m 1,0,-1
 -25 0 l 1,1,-1
 87 636 l 1,2,-1
 441 636 l 1,3,-1
 404 479 l 1,4,-1
 235 479 l 1,5,-1
 218 384 l 1,6,-1
 365 384 l 1,7,-1
 341 249 l 1,8,-1
 194 249 l 1,9,-1
 175 143 l 1,10,-1
 354 143 l 1,11,-1
 319 0 l 1,0,-1
144 694 m 0,12,13
 134 706 134 706 134 724 c 0,14,15
 134 730 134 730 136 736 c 0,16,17
 140 762 140 762 159 777.5 c 128,-1,18
 178 793 178 793 206.5 793 c 0,19,20
 236 793 236 793 250 778 c 0,21,22
 261 767 261 767 260 749 c 0,23,24
 260 743 260 743 259 736 c 0,25,26
 249 679 249 679 184 679 c 0,27,28
 158 678 158 678 144 694 c 0,12,13
308 694 m 0,29,30
 298 706 298 706 298 724 c 0,31,32
 298 730 298 730 300 736 c 0,33,34
 304 762 304 762 323 777.5 c 128,-1,35
 342 793 342 793 371.5 793 c 128,-1,36
 401 793 401 793 415 778 c 0,37,38
 425 767 425 767 425 750 c 0,39,40
 425 744 425 744 424 736 c 0,41,42
 419 710 419 710 400 694.5 c 128,-1,43
 381 679 381 679 351.5 678.5 c 128,-1,44
 322 678 322 678 308 694 c 0,29,30
EndSplineSet
EndChar

StartChar: Igrave
Encoding: 204 204 141
Width: 278
GlyphClass: 2
Flags: W
LayerCount: 2
Fore
SplineSet
142 0 m 1,0,-1
 -32 0 l 1,1,-1
 80 636 l 1,2,-1
 254 636 l 1,3,-1
 142 0 l 1,0,-1
132 680 m 1,4,-1
 50 816 l 1,5,-1
 204 816 l 1,6,-1
 244 680 l 1,7,-1
 132 680 l 1,4,-1
EndSplineSet
EndChar

StartChar: Iacute
Encoding: 205 205 142
Width: 278
GlyphClass: 2
Flags: W
LayerCount: 2
Fore
SplineSet
146 0 m 1,0,-1
 -28 0 l 1,1,-1
 84 636 l 1,2,-1
 258 636 l 1,3,-1
 146 0 l 1,0,-1
336 816 m 1,4,-1
 208 680 l 1,5,-1
 95 680 l 1,6,-1
 181 816 l 1,7,-1
 336 816 l 1,4,-1
EndSplineSet
EndChar

StartChar: Icircumflex
Encoding: 206 206 143
Width: 278
GlyphClass: 2
Flags: W
LayerCount: 2
Fore
SplineSet
142 0 m 1,0,-1
 -32 0 l 1,1,-1
 81 636 l 1,2,-1
 255 636 l 1,3,-1
 142 0 l 1,0,-1
273 811 m 1,4,-1
 313 680 l 1,5,-1
 210 680 l 1,6,-1
 186 734 l 1,7,-1
 142 680 l 1,8,-1
 38 680 l 1,9,-1
 126 811 l 1,10,-1
 273 811 l 1,4,-1
EndSplineSet
EndChar

StartChar: Idieresis
Encoding: 207 207 144
Width: 278
GlyphClass: 2
Flags: W
LayerCount: 2
Fore
SplineSet
144 0 m 1,0,-1
 -30 0 l 1,1,-1
 82 636 l 1,2,-1
 256 636 l 1,3,-1
 144 0 l 1,0,-1
52 694 m 0,4,5
 42 706 42 706 42 723 c 0,6,7
 42 729 42 729 44 736 c 0,8,9
 48 762 48 762 66.5 777.5 c 128,-1,10
 85 793 85 793 114 793 c 128,-1,11
 143 793 143 793 157 778 c 0,12,13
 167 767 167 767 167 749 c 0,14,15
 167 743 167 743 166 736 c 0,16,17
 156 679 156 679 92 679 c 0,18,19
 65 678 65 678 52 694 c 0,4,5
216 694 m 0,20,21
 205 706 205 706 205 724 c 0,22,23
 204 730 204 730 206 736 c 0,24,25
 210 762 210 762 230 777.5 c 128,-1,26
 250 793 250 793 279.5 793 c 0,27,28
 308 793 308 793 322 778 c 0,29,30
 332 767 332 767 332 750 c 0,31,32
 332 744 332 744 331 736 c 0,33,34
 326 710 326 710 307.5 694.5 c 128,-1,35
 289 679 289 679 259.5 678.5 c 128,-1,36
 230 678 230 678 216 694 c 0,20,21
EndSplineSet
EndChar

StartChar: Eth
Encoding: 208 208 145
Width: 538
GlyphClass: 2
Flags: W
LayerCount: 2
Fore
SplineSet
520 332 m 0,0,1
 461 0 461 0 200 0 c 2,2,-1
 -11 0 l 1,3,-1
 34 256 l 1,4,-1
 -22 256 l 1,5,-1
 -1 377 l 1,6,-1
 55 377 l 1,7,-1
 101 636 l 1,8,-1
 316 636 l 2,9,10
 456 636 456 636 501 558 c 0,11,12
 530 508 530 508 530 430 c 0,13,14
 530 386 530 386 520 332 c 0,0,1
264 256 m 1,15,-1
 208 256 l 1,16,-1
 189 147 l 1,17,-1
 223 147 l 2,18,19
 277 147 277 147 299.5 185.5 c 128,-1,20
 322 224 322 224 338 315 c 0,21,22
 348 371 348 371 349 406 c 0,23,24
 348 430 348 430 344 444 c 0,25,26
 334 482 334 482 279 481 c 2,27,-1
 248 481 l 1,28,-1
 229 377 l 1,29,-1
 285 377 l 1,30,-1
 264 256 l 1,15,-1
EndSplineSet
EndChar

StartChar: Ntilde
Encoding: 209 209 146
Width: 556
GlyphClass: 2
Flags: W
LayerCount: 2
Fore
SplineSet
438 0 m 1,0,-1
 270 0 l 1,1,-1
 190 296 l 1,2,-1
 182 296 l 1,3,-1
 130 0 l 1,4,-1
 -26 0 l 1,5,-1
 86 636 l 1,6,-1
 259 636 l 1,7,-1
 331 331 l 1,8,-1
 339 331 l 1,9,-1
 393 636 l 1,10,-1
 550 636 l 1,11,-1
 438 0 l 1,0,-1
501 816 m 1,12,-1
 500 808 l 2,13,14
 489 747 489 747 465.5 714.5 c 128,-1,15
 442 682 442 682 389 682 c 0,16,17
 357 682 357 682 314 697 c 2,18,-1
 293 706 l 1,19,-1
 286 671 l 1,20,-1
 180 671 l 1,21,-1
 182 681 l 2,22,23
 193 744 193 744 217 775.5 c 128,-1,24
 241 807 241 807 287 807 c 0,25,26
 305 807 305 807 371 788 c 2,27,-1
 390 784 l 1,28,-1
 396 816 l 1,29,-1
 501 816 l 1,12,-1
EndSplineSet
EndChar

StartChar: Ograve
Encoding: 210 210 147
Width: 550
GlyphClass: 2
Flags: W
LayerCount: 2
Fore
SplineSet
319.5 646 m 128,-1,1
 454 646 454 646 498 570 c 0,2,3
 524 525 524 525 524 447 c 0,4,5
 524 392 524 392 512 324 c 0,6,7
 482 154 482 154 408.5 72 c 128,-1,8
 335 -10 335 -10 201.5 -10 c 128,-1,9
 68 -10 68 -10 24 71 c 0,10,11
 -2 119 -2 119 -1 198 c 0,12,13
 -1 252 -1 252 11 322 c 0,14,15
 41 492 41 492 113 569 c 128,-1,0
 185 646 185 646 319.5 646 c 128,-1,1
344 451 m 0,16,17
 335 484 335 484 289 484 c 128,-1,18
 243 484 243 484 224.5 451 c 128,-1,19
 206 418 206 418 189 325 c 2,20,-1
 185 300 l 2,21,22
 174 234 174 234 174 198 c 0,23,24
 174 180 174 180 176 170 c 0,25,26
 184 138 184 138 230.5 138 c 128,-1,27
 277 138 277 138 295.5 168 c 128,-1,28
 314 198 314 198 330 291 c 2,29,-1
 336 324 l 2,30,31
 347 385 347 385 347 421 c 0,32,33
 347 440 347 440 344 451 c 0,16,17
283 680 m 1,34,-1
 202 816 l 1,35,-1
 356 816 l 1,36,-1
 395 680 l 1,37,-1
 283 680 l 1,34,-1
EndSplineSet
EndChar

StartChar: Oacute
Encoding: 211 211 148
Width: 550
GlyphClass: 2
Flags: W
LayerCount: 2
Fore
SplineSet
319.5 646 m 128,-1,1
 454 646 454 646 498 570 c 0,2,3
 524 525 524 525 524 447 c 0,4,5
 524 392 524 392 512 324 c 0,6,7
 482 154 482 154 408.5 72 c 128,-1,8
 335 -10 335 -10 201.5 -10 c 128,-1,9
 68 -10 68 -10 24 71 c 0,10,11
 -2 119 -2 119 -1 198 c 0,12,13
 -1 252 -1 252 11 322 c 0,14,15
 41 492 41 492 113 569 c 128,-1,0
 185 646 185 646 319.5 646 c 128,-1,1
344 451 m 0,16,17
 335 484 335 484 289 484 c 128,-1,18
 243 484 243 484 224.5 451 c 128,-1,19
 206 418 206 418 189 325 c 2,20,-1
 185 300 l 2,21,22
 174 234 174 234 174 198 c 0,23,24
 174 180 174 180 176 170 c 0,25,26
 184 138 184 138 230.5 138 c 128,-1,27
 277 138 277 138 295.5 168 c 128,-1,28
 314 198 314 198 330 291 c 2,29,-1
 336 324 l 2,30,31
 347 385 347 385 347 421 c 0,32,33
 347 440 347 440 344 451 c 0,16,17
495 816 m 1,34,-1
 366 680 l 1,35,-1
 254 680 l 1,36,-1
 339 816 l 1,37,-1
 495 816 l 1,34,-1
EndSplineSet
EndChar

StartChar: Ocircumflex
Encoding: 212 212 149
Width: 550
GlyphClass: 2
Flags: W
LayerCount: 2
Fore
SplineSet
319.5 646 m 128,-1,1
 454 646 454 646 498 570 c 0,2,3
 525 525 525 525 525 446 c 0,4,5
 525 392 525 392 513 324 c 0,6,7
 483 154 483 154 409.5 72 c 128,-1,8
 336 -10 336 -10 202.5 -10 c 128,-1,9
 69 -10 69 -10 25 71 c 0,10,11
 -1 119 -1 119 -1 199 c 0,12,13
 -1 252 -1 252 11 322 c 0,14,15
 41 492 41 492 113 569 c 128,-1,0
 185 646 185 646 319.5 646 c 128,-1,1
344 451 m 0,16,17
 336 484 336 484 290 484 c 128,-1,18
 244 484 244 484 225 451 c 128,-1,19
 206 418 206 418 190 325 c 2,20,-1
 185 300 l 2,21,22
 174 235 174 235 174 199 c 0,23,24
 174 180 174 180 177 170 c 0,25,26
 186 138 186 138 232 138 c 128,-1,27
 278 138 278 138 296 168 c 128,-1,28
 314 198 314 198 331 291 c 2,29,-1
 337 324 l 2,30,31
 347 385 347 385 347 421 c 0,32,33
 347 440 347 440 344 451 c 0,16,17
420 811 m 1,34,-1
 462 680 l 1,35,-1
 358 680 l 1,36,-1
 334 734 l 1,37,-1
 291 680 l 1,38,-1
 186 680 l 1,39,-1
 274 811 l 1,40,-1
 420 811 l 1,34,-1
EndSplineSet
EndChar

StartChar: Otilde
Encoding: 213 213 150
Width: 550
GlyphClass: 2
Flags: W
LayerCount: 2
Fore
SplineSet
319.5 646 m 128,-1,1
 454 646 454 646 498 570 c 0,2,3
 524 525 524 525 524 447 c 0,4,5
 524 392 524 392 512 324 c 0,6,7
 482 154 482 154 408.5 72 c 128,-1,8
 335 -10 335 -10 201.5 -10 c 128,-1,9
 68 -10 68 -10 24 71 c 0,10,11
 -2 119 -2 119 -1 198 c 0,12,13
 -1 252 -1 252 11 322 c 0,14,15
 41 492 41 492 113 569 c 128,-1,0
 185 646 185 646 319.5 646 c 128,-1,1
344 451 m 0,16,17
 335 484 335 484 289 484 c 128,-1,18
 243 484 243 484 224.5 451 c 128,-1,19
 206 418 206 418 189 325 c 2,20,-1
 185 300 l 2,21,22
 174 234 174 234 174 198 c 0,23,24
 174 180 174 180 176 170 c 0,25,26
 184 138 184 138 230.5 138 c 128,-1,27
 277 138 277 138 295.5 168 c 128,-1,28
 314 198 314 198 330 291 c 2,29,-1
 336 324 l 2,30,31
 347 385 347 385 347 421 c 0,32,33
 347 440 347 440 344 451 c 0,16,17
489 816 m 1,34,-1
 487 808 l 2,35,36
 476 747 476 747 453 714.5 c 128,-1,37
 430 682 430 682 377 682 c 0,38,39
 345 682 345 682 302 697 c 2,40,-1
 279 706 l 1,41,-1
 273 671 l 1,42,-1
 168 671 l 1,43,-1
 170 681 l 2,44,45
 181 744 181 744 205 775.5 c 128,-1,46
 229 807 229 807 275 807 c 0,47,48
 293 807 293 807 359 788 c 2,49,-1
 377 784 l 1,50,-1
 383 816 l 1,51,-1
 489 816 l 1,34,-1
EndSplineSet
EndChar

StartChar: Odieresis
Encoding: 214 214 151
Width: 550
GlyphClass: 2
Flags: W
LayerCount: 2
Fore
SplineSet
321.5 646 m 128,-1,1
 456 646 456 646 500 570 c 0,2,3
 526 525 526 525 526 447 c 0,4,5
 526 392 526 392 514 324 c 0,6,7
 484 154 484 154 410.5 72 c 128,-1,8
 337 -10 337 -10 203.5 -10 c 128,-1,9
 70 -10 70 -10 26 71 c 0,10,11
 0 119 0 119 1 198 c 0,12,13
 1 252 1 252 13 322 c 0,14,15
 43 492 43 492 115 569 c 128,-1,0
 187 646 187 646 321.5 646 c 128,-1,1
346 451 m 0,16,17
 337 484 337 484 291 484 c 128,-1,18
 245 484 245 484 226.5 451 c 128,-1,19
 208 418 208 418 191 325 c 2,20,-1
 187 300 l 2,21,22
 176 234 176 234 176 198 c 0,23,24
 176 180 176 180 178 170 c 0,25,26
 186 138 186 138 232.5 138 c 128,-1,27
 279 138 279 138 297.5 168 c 128,-1,28
 316 198 316 198 332 291 c 2,29,-1
 338 324 l 2,30,31
 349 385 349 385 349 421 c 0,32,33
 349 440 349 440 346 451 c 0,16,17
202 694 m 0,34,35
 192 706 192 706 191 724 c 0,36,37
 190 730 190 730 192 736 c 0,38,39
 196 762 196 762 215.5 777.5 c 128,-1,40
 235 793 235 793 263.5 793 c 128,-1,41
 292 793 292 793 306 778 c 0,42,43
 317 767 317 767 317 749 c 0,44,45
 317 743 317 743 316 736 c 0,46,47
 306 679 306 679 241 679 c 0,48,49
 216 678 216 678 202 694 c 0,34,35
366 694 m 0,50,51
 355 706 355 706 355 724 c 0,52,53
 354 730 354 730 356 736 c 0,54,55
 360 762 360 762 380 777.5 c 128,-1,56
 400 793 400 793 429 793 c 128,-1,57
 458 793 458 793 472 778 c 0,58,59
 482 767 482 767 482 750 c 0,60,61
 482 744 482 744 481 736 c 0,62,63
 476 710 476 710 457 694.5 c 128,-1,64
 438 679 438 679 409 678.5 c 128,-1,65
 380 678 380 678 366 694 c 0,50,51
EndSplineSet
EndChar

StartChar: multiply
Encoding: 215 215 152
Width: 487
GlyphClass: 2
Flags: W
LayerCount: 2
Fore
SplineSet
309 113 m 1,0,-1
 230 214 l 1,1,-1
 113 112 l 1,2,-1
 36 206 l 1,3,-1
 156 304 l 1,4,-1
 70 401 l 1,5,-1
 179 493 l 1,6,-1
 259 391 l 1,7,-1
 374 493 l 1,8,-1
 451 398 l 1,9,-1
 333 301 l 1,10,-1
 416 204 l 1,11,-1
 309 113 l 1,0,-1
EndSplineSet
EndChar

StartChar: Oslash
Encoding: 216 216 153
Width: 550
GlyphClass: 2
Flags: W
LayerCount: 2
Fore
SplineSet
335 646 m 0,0,1
 362 646 362 646 386 643 c 1,2,-1
 418 699 l 1,3,-1
 588 699 l 1,4,-1
 514 569 l 1,5,6
 540 524 540 524 540 446 c 0,7,8
 540 393 540 393 528 324 c 0,9,10
 498 154 498 154 424.5 72 c 128,-1,11
 351 -10 351 -10 216 -10 c 0,12,13
 204 -10 204 -10 184 -8 c 1,14,-1
 147 -73 l 1,15,-1
 -25 -73 l 1,16,-1
 49 56 l 1,17,18
 13 106 13 106 13 197 c 0,19,20
 13 249 13 249 25 314 c 0,21,22
 57 493 57 493 129 569.5 c 128,-1,23
 201 646 201 646 335 646 c 0,0,1
361 457 m 0,24,25
 352 490 352 490 306 490 c 128,-1,26
 260 490 260 490 241.5 457 c 128,-1,27
 223 424 223 424 206 331 c 2,28,-1
 202 306 l 2,29,30
 190 238 190 238 190 201 c 0,31,32
 190 183 190 183 192 172 c 0,33,34
 200 138 200 138 246 138 c 128,-1,35
 292 138 292 138 311.5 170.5 c 128,-1,36
 331 203 331 203 347 297 c 2,37,-1
 353 330 l 2,38,39
 364 391 364 391 364 427 c 0,40,41
 364 446 364 446 361 457 c 0,24,25
EndSplineSet
EndChar

StartChar: Ugrave
Encoding: 217 217 154
Width: 556
GlyphClass: 2
Flags: W
LayerCount: 2
Fore
SplineSet
195 162 m 0,0,1
 206 146 206 146 236 146 c 128,-1,2
 266 146 266 146 280.5 161 c 128,-1,3
 295 176 295 176 301 210 c 2,4,-1
 376 636 l 1,5,-1
 552 636 l 1,6,-1
 475 200 l 2,7,8
 456 90 456 90 387 40 c 128,-1,9
 318 -10 318 -10 202 -10 c 128,-1,10
 86 -10 86 -10 38 40 c 0,11,12
 4 75 4 75 4 141 c 0,13,14
 4 167 4 167 9 198 c 2,15,-1
 86 636 l 1,16,-1
 265 636 l 1,17,-1
 190 209 l 2,18,19
 188 198 188 198 188 188 c 0,20,21
 188 172 188 172 195 162 c 0,0,1
280 680 m 1,22,-1
 199 816 l 1,23,-1
 353 816 l 1,24,-1
 392 680 l 1,25,-1
 280 680 l 1,22,-1
EndSplineSet
EndChar

StartChar: Uacute
Encoding: 218 218 155
Width: 556
GlyphClass: 2
Flags: W
LayerCount: 2
Fore
SplineSet
195 162 m 0,0,1
 206 146 206 146 236 146 c 128,-1,2
 266 146 266 146 280.5 161 c 128,-1,3
 295 176 295 176 301 210 c 2,4,-1
 376 636 l 1,5,-1
 552 636 l 1,6,-1
 475 200 l 2,7,8
 456 90 456 90 387 40 c 128,-1,9
 318 -10 318 -10 202 -10 c 128,-1,10
 86 -10 86 -10 38 40 c 0,11,12
 4 75 4 75 4 141 c 0,13,14
 4 167 4 167 9 198 c 2,15,-1
 86 636 l 1,16,-1
 265 636 l 1,17,-1
 190 209 l 2,18,19
 188 198 188 198 188 188 c 0,20,21
 188 172 188 172 195 162 c 0,0,1
508 816 m 1,22,-1
 380 680 l 1,23,-1
 267 680 l 1,24,-1
 353 816 l 1,25,-1
 508 816 l 1,22,-1
EndSplineSet
EndChar

StartChar: Ucircumflex
Encoding: 219 219 156
Width: 556
GlyphClass: 2
Flags: W
LayerCount: 2
Fore
SplineSet
196 162 m 0,0,1
 206 146 206 146 236 146 c 128,-1,2
 266 146 266 146 280.5 161 c 128,-1,3
 295 176 295 176 301 210 c 2,4,-1
 377 636 l 1,5,-1
 553 636 l 1,6,-1
 476 200 l 2,7,8
 457 90 457 90 388 40 c 128,-1,9
 319 -10 319 -10 203 -10 c 0,10,11
 86 -10 86 -10 38 40 c 0,12,13
 3 76 3 76 4 141 c 0,14,15
 4 167 4 167 9 198 c 2,16,-1
 87 636 l 1,17,-1
 266 636 l 1,18,-1
 190 209 l 2,19,20
 188 199 188 199 188 190 c 0,21,22
 189 172 189 172 196 162 c 0,0,1
425 811 m 1,23,-1
 467 680 l 1,24,-1
 363 680 l 1,25,-1
 340 734 l 1,26,-1
 296 680 l 1,27,-1
 191 680 l 1,28,-1
 279 811 l 1,29,-1
 425 811 l 1,23,-1
EndSplineSet
EndChar

StartChar: Udieresis
Encoding: 220 220 157
Width: 556
GlyphClass: 2
Flags: W
LayerCount: 2
Fore
SplineSet
197 162 m 0,0,1
 208 146 208 146 238 146 c 128,-1,2
 268 146 268 146 282.5 161 c 128,-1,3
 297 176 297 176 303 210 c 2,4,-1
 378 636 l 1,5,-1
 554 636 l 1,6,-1
 477 200 l 2,7,8
 458 90 458 90 389 40 c 128,-1,9
 320 -10 320 -10 204 -10 c 128,-1,10
 88 -10 88 -10 40 40 c 0,11,12
 6 75 6 75 6 141 c 0,13,14
 6 167 6 167 11 198 c 2,15,-1
 88 636 l 1,16,-1
 267 636 l 1,17,-1
 192 209 l 2,18,19
 190 198 190 198 190 188 c 0,20,21
 190 172 190 172 197 162 c 0,0,1
204 694 m 0,22,23
 194 706 194 706 194 724 c 0,24,25
 194 730 194 730 196 736 c 0,26,27
 200 762 200 762 219 777.5 c 128,-1,28
 238 793 238 793 266.5 793 c 0,29,30
 296 793 296 793 310 778 c 0,31,32
 321 767 321 767 320 749 c 0,33,34
 320 743 320 743 319 736 c 0,35,36
 309 679 309 679 245 679 c 0,37,38
 218 678 218 678 204 694 c 0,22,23
369 694 m 0,39,40
 358 706 358 706 358 724 c 0,41,42
 358 730 358 730 360 736 c 0,43,44
 364 762 364 762 383.5 777.5 c 128,-1,45
 403 793 403 793 432 793 c 128,-1,46
 461 793 461 793 475 778 c 0,47,48
 485 767 485 767 485 750 c 0,49,50
 485 744 485 744 484 736 c 0,51,52
 479 710 479 710 460 694.5 c 128,-1,53
 441 679 441 679 412 678.5 c 128,-1,54
 383 678 383 678 369 694 c 0,39,40
EndSplineSet
EndChar

StartChar: Yacute
Encoding: 221 221 158
Width: 475
GlyphClass: 2
Flags: W
LayerCount: 2
Fore
SplineSet
516 636 m 1,0,-1
 288 197 l 1,1,-1
 253 0 l 1,2,-1
 79 0 l 1,3,-1
 114 197 l 1,4,-1
 41 636 l 1,5,-1
 234 636 l 1,6,-1
 244 429 l 1,7,-1
 252 429 l 1,8,-1
 332 636 l 1,9,-1
 516 636 l 1,0,-1
469 806 m 1,10,-1
 341 670 l 1,11,-1
 228 670 l 1,12,-1
 314 806 l 1,13,-1
 469 806 l 1,10,-1
EndSplineSet
EndChar

StartChar: Thorn
Encoding: 222 222 159
Width: 473
GlyphClass: 2
Flags: W
LayerCount: 2
Fore
SplineSet
221 117 m 2,0,-1
 182 117 l 1,1,-1
 161 0 l 1,2,-1
 -11 0 l 1,3,-1
 101 636 l 1,4,-1
 273 636 l 1,5,-1
 257 545 l 1,6,-1
 285 545 l 2,7,8
 399 545 399 545 441 495 c 0,9,10
 469 461 469 461 469 398 c 0,11,12
 469 368 469 368 463 330 c 0,13,14
 443 216 443 216 385 166.5 c 128,-1,15
 327 117 327 117 221 117 c 2,0,-1
285 317 m 0,16,17
 289 340 289 340 289 356 c 0,18,19
 290 370 290 370 286 380 c 0,20,21
 278 398 278 398 247 399 c 2,22,-1
 231 399 l 1,23,-1
 203 238 l 1,24,-1
 224 238 l 2,25,26
 253 238 253 238 265 255 c 128,-1,27
 277 272 277 272 285 317 c 0,16,17
EndSplineSet
EndChar

StartChar: germandbls
Encoding: 223 223 160
Width: 516
GlyphClass: 2
Flags: W
LayerCount: 2
Fore
SplineSet
218 138 m 1,0,-1
 255 135 l 2,1,2
 301 135 301 135 311 196 c 0,3,4
 313 205 313 205 313 213 c 0,5,6
 313 267 313 267 238 267 c 0,7,8
 237 267 237 267 236 267 c 1,9,-1
 258 395 l 1,10,11
 293 395 293 395 311 411 c 128,-1,12
 329 427 329 427 335 460 c 0,13,14
 337 471 337 471 337 480 c 0,15,16
 337 520 337 520 296 520 c 0,17,18
 258 520 258 520 251 480 c 2,19,-1
 167 0 l 1,20,-1
 -4 0 l 1,21,-1
 57 349 l 1,22,-1
 12 349 l 1,23,-1
 35 476 l 1,24,-1
 80 476 l 1,25,-1
 83 493 l 2,26,27
 99 585 99 585 159.5 628 c 128,-1,28
 220 671 220 671 328 671 c 128,-1,29
 436 671 436 671 484 623 c 0,30,31
 520 587 520 587 521 527 c 0,32,33
 521 506 521 506 517 484 c 0,34,35
 501 394 501 394 431 349 c 1,36,-1
 431 345 l 1,37,38
 491 311 491 311 491 231 c 0,39,40
 491 209 491 209 486 183 c 0,41,42
 470 90 470 90 417 40 c 128,-1,43
 364 -10 364 -10 276 -10 c 0,44,45
 244 -10 244 -10 189 0 c 1,46,-1
 218 138 l 1,0,-1
EndSplineSet
EndChar

StartChar: agrave
Encoding: 224 224 161
Width: 446
GlyphClass: 2
Flags: W
LayerCount: 2
Fore
SplineSet
405 362 m 2,0,-1
 363 151 l 2,1,2
 360 132 360 132 368.5 125 c 128,-1,3
 377 118 377 118 400 118 c 1,4,-1
 363 -6 l 1,5,6
 303 -10 303 -10 297 -10 c 0,7,8
 221 -10 221 -10 210 42 c 1,9,-1
 205 42 l 1,10,11
 158 -10 158 -10 79 -10 c 0,12,13
 19 -10 19 -10 -7 29 c 0,14,15
 -25 56 -25 56 -25 95 c 0,16,17
 -25 113 -25 113 -21 135 c 0,18,19
 -6 220 -6 220 53 253 c 128,-1,20
 112 286 112 286 226 296 c 1,21,-1
 231 321 l 2,22,23
 232 325 232 325 232 329 c 0,24,25
 232 349 232 349 210 349 c 0,26,27
 209 349 209 349 208 349 c 0,28,29
 159 349 159 349 49 319 c 1,30,-1
 50 469 l 1,31,32
 187 503 187 503 274 503 c 0,33,34
 362 503 362 503 390 469 c 0,35,36
 410 446 410 446 409 404 c 0,37,38
 409 385 409 385 405 362 c 2,0,-1
164 110 m 0,39,40
 202 110 202 110 209 150 c 2,41,-1
 218 200 l 1,42,43
 179 195 179 195 161 184 c 128,-1,44
 143 173 143 173 138 147 c 0,45,46
 137 141 137 141 137 136 c 0,47,48
 137 110 137 110 164 110 c 0,39,40
219 532 m 1,49,-1
 134 676 l 1,50,-1
 296 676 l 1,51,-1
 337 532 l 1,52,-1
 219 532 l 1,49,-1
EndSplineSet
EndChar

StartChar: aacute
Encoding: 225 225 162
Width: 446
GlyphClass: 2
Flags: W
LayerCount: 2
Fore
SplineSet
405 362 m 2,0,-1
 363 151 l 2,1,2
 360 132 360 132 368.5 125 c 128,-1,3
 377 118 377 118 400 118 c 1,4,-1
 363 -6 l 1,5,6
 303 -10 303 -10 297 -10 c 0,7,8
 221 -10 221 -10 210 42 c 1,9,-1
 205 42 l 1,10,11
 158 -10 158 -10 79 -10 c 0,12,13
 19 -10 19 -10 -7 29 c 0,14,15
 -25 56 -25 56 -25 95 c 0,16,17
 -25 113 -25 113 -21 135 c 0,18,19
 -6 220 -6 220 53 253 c 128,-1,20
 112 286 112 286 226 296 c 1,21,-1
 231 321 l 2,22,23
 232 325 232 325 232 329 c 0,24,25
 232 349 232 349 210 349 c 0,26,27
 209 349 209 349 208 349 c 0,28,29
 159 349 159 349 49 319 c 1,30,-1
 50 469 l 1,31,32
 187 503 187 503 274 503 c 0,33,34
 362 503 362 503 390 469 c 0,35,36
 410 446 410 446 409 404 c 0,37,38
 409 385 409 385 405 362 c 2,0,-1
164 110 m 0,39,40
 202 110 202 110 209 150 c 2,41,-1
 218 200 l 1,42,43
 179 195 179 195 161 184 c 128,-1,44
 143 173 143 173 138 147 c 0,45,46
 137 141 137 141 137 136 c 0,47,48
 137 110 137 110 164 110 c 0,39,40
432 676 m 1,49,-1
 296 532 l 1,50,-1
 178 532 l 1,51,-1
 268 676 l 1,52,-1
 432 676 l 1,49,-1
EndSplineSet
EndChar

StartChar: acircumflex
Encoding: 226 226 163
Width: 446
GlyphClass: 2
Flags: W
LayerCount: 2
Fore
SplineSet
406 362 m 2,0,-1
 363 151 l 2,1,2
 360 132 360 132 369 125 c 128,-1,3
 378 118 378 118 401 118 c 1,4,-1
 364 -6 l 1,5,6
 304 -10 304 -10 297 -10 c 0,7,8
 221 -10 221 -10 210 42 c 1,9,-1
 205 42 l 1,10,11
 158 -10 158 -10 79 -10 c 0,12,13
 20 -10 20 -10 -6 29 c 0,14,15
 -23 56 -23 56 -24 95 c 0,16,17
 -24 114 -24 114 -20 135 c 0,18,19
 -5 220 -5 220 53.5 253 c 128,-1,20
 112 286 112 286 227 296 c 1,21,-1
 231 321 l 2,22,23
 232 325 232 325 232 329 c 0,24,25
 232 349 232 349 210 349 c 0,26,27
 209 349 209 349 208 349 c 0,28,29
 159 349 159 349 49 319 c 1,30,-1
 50 469 l 1,31,32
 187 503 187 503 274 503 c 128,-1,33
 361 503 361 503 390 469 c 0,34,35
 410 446 410 446 410 403 c 0,36,37
 410 385 410 385 406 362 c 2,0,-1
164 110 m 0,38,39
 202 110 202 110 209 150 c 2,40,-1
 218 200 l 1,41,42
 179 195 179 195 161 184 c 128,-1,43
 143 173 143 173 139 147 c 0,44,45
 138 140 138 140 138 135 c 0,46,47
 138 110 138 110 164 110 c 0,38,39
358 671 m 1,48,-1
 402 532 l 1,49,-1
 293 532 l 1,50,-1
 267 590 l 1,51,-1
 221 532 l 1,52,-1
 112 532 l 1,53,-1
 203 671 l 1,54,-1
 358 671 l 1,48,-1
EndSplineSet
EndChar

StartChar: atilde
Encoding: 227 227 164
Width: 446
GlyphClass: 2
Flags: W
LayerCount: 2
Fore
SplineSet
405 362 m 2,0,-1
 363 151 l 2,1,2
 360 132 360 132 368.5 125 c 128,-1,3
 377 118 377 118 400 118 c 1,4,-1
 363 -6 l 1,5,6
 303 -10 303 -10 297 -10 c 0,7,8
 221 -10 221 -10 210 42 c 1,9,-1
 205 42 l 1,10,11
 158 -10 158 -10 79 -10 c 0,12,13
 19 -10 19 -10 -7 29 c 0,14,15
 -25 56 -25 56 -25 95 c 0,16,17
 -25 113 -25 113 -21 135 c 0,18,19
 -6 220 -6 220 53 253 c 128,-1,20
 112 286 112 286 226 296 c 1,21,-1
 231 321 l 2,22,23
 232 325 232 325 232 329 c 0,24,25
 232 349 232 349 210 349 c 0,26,27
 209 349 209 349 208 349 c 0,28,29
 159 349 159 349 49 319 c 1,30,-1
 50 469 l 1,31,32
 187 503 187 503 274 503 c 0,33,34
 362 503 362 503 390 469 c 0,35,36
 410 446 410 446 409 404 c 0,37,38
 409 385 409 385 405 362 c 2,0,-1
164 110 m 0,39,40
 202 110 202 110 209 150 c 2,41,-1
 218 200 l 1,42,43
 179 195 179 195 161 184 c 128,-1,44
 143 173 143 173 138 147 c 0,45,46
 137 141 137 141 137 136 c 0,47,48
 137 110 137 110 164 110 c 0,39,40
428 676 m 1,49,-1
 427 668 l 2,50,51
 415 602 415 602 391 568.5 c 128,-1,52
 367 535 367 535 311 535 c 0,53,54
 274 535 274 535 232 551 c 2,55,-1
 209 559 l 1,56,-1
 203 523 l 1,57,-1
 91 523 l 1,58,-1
 92 534 l 2,59,60
 104 601 104 601 129.5 634 c 128,-1,61
 155 667 155 667 204 667 c 0,62,63
 220 667 220 667 292 647 c 2,64,-1
 311 642 l 1,65,-1
 317 676 l 1,66,-1
 428 676 l 1,49,-1
EndSplineSet
EndChar

StartChar: adieresis
Encoding: 228 228 165
Width: 446
GlyphClass: 2
Flags: W
LayerCount: 2
Fore
SplineSet
407 362 m 2,0,-1
 365 151 l 2,1,2
 362 132 362 132 370.5 125 c 128,-1,3
 379 118 379 118 402 118 c 1,4,-1
 365 -6 l 1,5,6
 305 -10 305 -10 299 -10 c 0,7,8
 223 -10 223 -10 212 42 c 1,9,-1
 207 42 l 1,10,11
 160 -10 160 -10 81 -10 c 0,12,13
 21 -10 21 -10 -5 29 c 0,14,15
 -23 56 -23 56 -23 95 c 0,16,17
 -23 113 -23 113 -19 135 c 0,18,19
 -4 220 -4 220 55 253 c 128,-1,20
 114 286 114 286 229 296 c 1,21,-1
 233 321 l 2,22,23
 234 325 234 325 234 329 c 0,24,25
 234 349 234 349 212 349 c 0,26,27
 211 349 211 349 210 349 c 0,28,29
 161 349 161 349 51 319 c 1,30,-1
 52 469 l 1,31,32
 189 503 189 503 276 503 c 0,33,34
 364 503 364 503 392 469 c 0,35,36
 412 446 412 446 411 404 c 0,37,38
 411 385 411 385 407 362 c 2,0,-1
166 110 m 0,39,40
 204 110 204 110 211 150 c 2,41,-1
 220 200 l 1,42,43
 181 195 181 195 163 184 c 128,-1,44
 145 173 145 173 140 147 c 0,45,46
 139 141 139 141 139 136 c 0,47,48
 139 110 139 110 166 110 c 0,39,40
122 547 m 0,49,50
 112 559 112 559 112 577 c 0,51,52
 112 584 112 584 113 592 c 0,53,54
 118 620 118 620 137 635.5 c 128,-1,55
 156 651 156 651 187 651 c 0,56,57
 218 652 218 652 233 636 c 0,58,59
 244 624 244 624 244 605 c 0,60,61
 244 599 244 599 243 592 c 0,62,63
 232 532 232 532 164 531 c 0,64,65
 136 531 136 531 122 547 c 0,49,50
294 547 m 0,66,67
 284 559 284 559 285 577 c 0,68,69
 285 584 285 584 286 592 c 0,70,71
 291 620 291 620 310.5 635.5 c 128,-1,72
 330 651 330 651 361 651 c 0,73,74
 392 652 392 652 406 636 c 0,75,76
 417 624 417 624 417 605 c 0,77,78
 417 600 417 600 416 592 c 0,79,80
 411 564 411 564 391 547.5 c 128,-1,81
 371 531 371 531 339.5 531 c 128,-1,82
 308 531 308 531 294 547 c 0,66,67
EndSplineSet
EndChar

StartChar: aring
Encoding: 229 229 166
Width: 446
GlyphClass: 2
Flags: W
LayerCount: 2
Fore
SplineSet
404 362 m 2,0,-1
 362 151 l 2,1,2
 359 132 359 132 367.5 125 c 128,-1,3
 376 118 376 118 399 118 c 1,4,-1
 362 -6 l 1,5,6
 302 -10 302 -10 296 -10 c 0,7,8
 220 -10 220 -10 209 42 c 1,9,-1
 204 42 l 1,10,11
 157 -10 157 -10 78 -10 c 0,12,13
 18 -10 18 -10 -8 29 c 0,14,15
 -26 56 -26 56 -26 95 c 0,16,17
 -26 113 -26 113 -22 135 c 0,18,19
 -7 220 -7 220 52 253 c 128,-1,20
 111 286 111 286 226 296 c 1,21,-1
 230 321 l 2,22,23
 231 325 231 325 231 329 c 0,24,25
 231 349 231 349 209 349 c 0,26,27
 208 349 208 349 207 349 c 0,28,29
 158 349 158 349 48 319 c 1,30,-1
 49 469 l 1,31,32
 186 503 186 503 273 503 c 128,-1,33
 360 503 360 503 388 469 c 0,34,35
 408 446 408 446 408 404 c 0,36,37
 408 385 408 385 404 362 c 2,0,-1
163 110 m 0,38,39
 201 110 201 110 208 150 c 2,40,-1
 217 200 l 1,41,42
 178 195 178 195 160 184 c 128,-1,43
 142 173 142 173 137 147 c 0,44,45
 136 141 136 141 136 136 c 0,46,47
 136 110 136 110 163 110 c 0,38,39
210 665 m 0,48,49
 238 687 238 687 278 687 c 128,-1,50
 318 687 318 687 338 666 c 0,51,52
 353 650 353 650 353 625 c 0,53,54
 354 617 354 617 352 607 c 0,55,56
 346 569 346 569 318 547 c 128,-1,57
 290 525 290 525 250 525 c 0,58,59
 210 524 210 524 189 546 c 0,60,61
 173 562 173 562 173 588 c 0,62,63
 173 596 173 596 175 606 c 0,64,65
 182 644 182 644 210 665 c 0,48,49
270 637 m 0,66,67
 248 637 248 637 242 607 c 0,68,69
 241 601 241 601 240 596 c 0,70,71
 240 577 240 577 258 577 c 0,72,73
 280 577 280 577 286 607 c 0,74,75
 287 613 287 613 288 618 c 0,76,77
 288 637 288 637 270 637 c 0,66,67
EndSplineSet
EndChar

StartChar: ae
Encoding: 230 230 167
Width: 658
GlyphClass: 2
Flags: W
LayerCount: 2
Fore
SplineSet
10 28 m 0,0,1
 -9 54 -9 54 -9 98 c 0,2,3
 -8 120 -8 120 -4 144 c 0,4,5
 10 220 10 220 68.5 253 c 128,-1,6
 127 286 127 286 242 296 c 1,7,-1
 246 321 l 2,8,9
 247 325 247 325 247 329 c 0,10,11
 247 349 247 349 225 349 c 0,12,13
 224 349 224 349 223 349 c 0,14,15
 174 349 174 349 64 319 c 1,16,-1
 65 469 l 1,17,18
 202 503 202 503 296 503 c 0,19,20
 350 503 350 503 384 477 c 1,21,22
 432 503 432 503 491 503 c 0,23,24
 596 503 596 503 633 452 c 0,25,26
 659 416 659 416 659 360 c 0,27,28
 659 336 659 336 654 307 c 0,29,30
 644 248 644 248 629 201 c 1,31,-1
 394 201 l 1,32,33
 392 188 392 188 392 177 c 0,34,35
 392 120 392 120 451 120 c 0,36,37
 485 120 485 120 587 143 c 1,38,-1
 584 18 l 1,39,40
 488 -11 488 -11 398 -11 c 0,41,42
 396 -10 396 -10 395 -10 c 0,43,44
 304 -10 304 -10 266 53 c 1,45,-1
 262 53 l 1,46,47
 196 -10 196 -10 99 -10 c 0,48,49
 38 -10 38 -10 10 28 c 0,0,1
462 358 m 0,50,51
 435 358 435 358 424 340.5 c 128,-1,52
 413 323 413 323 406 286 c 1,53,-1
 495 286 l 1,54,-1
 499 310 l 2,55,56
 500 318 500 318 500 324 c 0,57,58
 500 358 500 358 462 358 c 0,50,51
179 110 m 0,59,60
 217 110 217 110 224 150 c 2,61,-1
 233 200 l 1,62,63
 194 195 194 195 176 184 c 128,-1,64
 158 173 158 173 154 147 c 0,65,66
 153 141 153 141 153 136 c 0,67,68
 153 110 153 110 179 110 c 0,59,60
EndSplineSet
EndChar

StartChar: ccedilla
Encoding: 231 231 168
Width: 353
GlyphClass: 2
Flags: W
LayerCount: 2
Fore
SplineSet
358 332 m 1,0,1
 305 358 305 358 274 358 c 0,2,3
 273 358 273 358 273 358 c 0,4,5
 242 358 242 358 226.5 329 c 128,-1,6
 211 300 211 300 201 242 c 0,7,8
 195 205 195 205 195 181 c 0,9,10
 194 168 194 168 196 158 c 0,11,12
 202 132 202 132 236 132.5 c 128,-1,13
 270 133 270 133 322 144 c 1,14,-1
 317 13 l 1,15,16
 255 -6 255 -6 202 -9 c 1,17,18
 193 -18 193 -18 192 -25.5 c 128,-1,19
 191 -33 191 -33 207 -41 c 0,20,21
 246 -63 246 -63 246 -92 c 0,22,23
 246 -96 246 -96 246 -100 c 0,24,25
 240 -134 240 -134 211 -154.5 c 128,-1,26
 182 -175 182 -175 132.5 -175 c 128,-1,27
 83 -175 83 -175 44 -145 c 1,28,-1
 90 -81 l 1,29,30
 126 -113 126 -113 142.5 -113 c 128,-1,31
 159 -113 159 -113 161 -103 c 128,-1,32
 163 -93 163 -93 151 -86 c 2,33,-1
 135 -76 l 2,34,35
 116 -66 116 -66 116 -50 c 0,36,37
 116 -47 116 -47 117 -44 c 0,38,39
 121 -24 121 -24 139 -6 c 1,40,41
 66 6 66 6 38 70 c 0,42,43
 22 107 22 107 21 161 c 0,44,45
 22 199 22 199 30 245 c 0,46,47
 50 356 50 356 114 429.5 c 128,-1,48
 178 503 178 503 275 503 c 0,49,50
 348 503 348 503 401 478 c 1,51,-1
 358 332 l 1,0,1
EndSplineSet
EndChar

StartChar: egrave
Encoding: 232 232 169
Width: 454
GlyphClass: 2
Flags: W
LayerCount: 2
Fore
SplineSet
242 356 m 0,0,1
 215 356 215 356 204 338.5 c 128,-1,2
 193 321 193 321 186 284 c 1,3,-1
 275 284 l 1,4,-1
 280 308 l 2,5,6
 281 315 281 315 281 321 c 0,7,8
 281 356 281 356 242 356 c 0,0,1
272 503 m 0,9,10
 378 503 378 503 414 452 c 0,11,12
 439 417 439 417 438 362 c 0,13,14
 438 336 438 336 433 307 c 0,15,16
 431 295 431 295 407 197 c 1,17,-1
 174 197 l 1,18,19
 172 184 172 184 172 173 c 0,20,21
 172 120 172 120 230 120 c 0,22,23
 264 120 264 120 367 143 c 1,24,-1
 359 16 l 1,25,26
 271 -10 271 -10 189 -10 c 0,27,28
 186 -10 186 -10 183 -10 c 0,29,30
 78 -10 78 -10 34 59 c 0,31,32
 4 106 4 106 3 176 c 0,33,34
 3 209 3 209 10 247 c 0,35,36
 55 503 55 503 272 503 c 0,9,10
244 532 m 1,37,-1
 158 676 l 1,38,-1
 320 676 l 1,39,-1
 362 532 l 1,40,-1
 244 532 l 1,37,-1
EndSplineSet
EndChar

StartChar: eacute
Encoding: 233 233 170
Width: 454
GlyphClass: 2
Flags: W
LayerCount: 2
Fore
SplineSet
242 356 m 0,0,1
 215 356 215 356 204 338.5 c 128,-1,2
 193 321 193 321 186 284 c 1,3,-1
 275 284 l 1,4,-1
 280 308 l 2,5,6
 281 315 281 315 281 321 c 0,7,8
 281 356 281 356 242 356 c 0,0,1
272 503 m 0,9,10
 378 503 378 503 414 452 c 0,11,12
 439 417 439 417 438 362 c 0,13,14
 438 336 438 336 433 307 c 0,15,16
 431 295 431 295 407 197 c 1,17,-1
 174 197 l 1,18,19
 172 184 172 184 172 173 c 0,20,21
 172 120 172 120 230 120 c 0,22,23
 264 120 264 120 367 143 c 1,24,-1
 359 16 l 1,25,26
 271 -10 271 -10 189 -10 c 0,27,28
 186 -10 186 -10 183 -10 c 0,29,30
 78 -10 78 -10 34 59 c 0,31,32
 4 106 4 106 3 176 c 0,33,34
 3 209 3 209 10 247 c 0,35,36
 55 503 55 503 272 503 c 0,9,10
461 676 m 1,37,-1
 326 532 l 1,38,-1
 208 532 l 1,39,-1
 298 676 l 1,40,-1
 461 676 l 1,37,-1
EndSplineSet
EndChar

StartChar: ecircumflex
Encoding: 234 234 171
Width: 454
GlyphClass: 2
Flags: W
LayerCount: 2
Fore
SplineSet
242 356 m 0,0,1
 215 356 215 356 204 338.5 c 128,-1,2
 193 321 193 321 187 284 c 1,3,-1
 276 284 l 1,4,-1
 280 308 l 2,5,6
 281 315 281 315 281 321 c 0,7,8
 281 356 281 356 242 356 c 0,0,1
272 503 m 0,9,10
 378 503 378 503 414 452 c 0,11,12
 439 417 439 417 439 360 c 0,13,14
 439 335 439 335 434 307 c 0,15,16
 432 295 432 295 407 197 c 1,17,-1
 174 197 l 1,18,19
 172 184 172 184 172 174 c 0,20,21
 172 120 172 120 231 120 c 0,22,23
 265 120 265 120 367 143 c 1,24,-1
 360 16 l 1,25,26
 272 -10 272 -10 189 -10 c 0,27,28
 186 -10 186 -10 183 -10 c 0,29,30
 78 -10 78 -10 34 59 c 0,31,32
 4 106 4 106 3 176 c 0,33,34
 3 209 3 209 10 247 c 0,35,36
 55 503 55 503 272 503 c 0,9,10
381 671 m 1,37,-1
 424 532 l 1,38,-1
 316 532 l 1,39,-1
 290 590 l 1,40,-1
 244 532 l 1,41,-1
 134 532 l 1,42,-1
 226 671 l 1,43,-1
 381 671 l 1,37,-1
EndSplineSet
EndChar

StartChar: edieresis
Encoding: 235 235 172
Width: 454
GlyphClass: 2
Flags: W
LayerCount: 2
Fore
SplineSet
244 356 m 0,0,1
 217 356 217 356 206 338.5 c 128,-1,2
 195 321 195 321 189 284 c 1,3,-1
 278 284 l 1,4,-1
 282 308 l 2,5,6
 283 315 283 315 283 321 c 0,7,8
 283 356 283 356 244 356 c 0,0,1
274 503 m 0,9,10
 380 503 380 503 416 452 c 0,11,12
 441 417 441 417 441 360 c 0,13,14
 441 335 441 335 436 307 c 0,15,16
 434 295 434 295 409 197 c 1,17,-1
 176 197 l 1,18,19
 174 184 174 184 174 174 c 0,20,21
 174 120 174 120 233 120 c 0,22,23
 267 120 267 120 369 143 c 1,24,-1
 361 16 l 1,25,26
 273 -10 273 -10 191 -10 c 0,27,28
 188 -10 188 -10 185 -10 c 0,29,30
 80 -10 80 -10 36 59 c 0,31,32
 6 106 6 106 5 176 c 0,33,34
 5 209 5 209 12 247 c 0,35,36
 57 503 57 503 274 503 c 0,9,10
143 547 m 0,37,38
 133 559 133 559 133 577 c 0,39,40
 133 584 133 584 134 592 c 0,41,42
 139 620 139 620 158.5 635.5 c 128,-1,43
 178 651 178 651 208.5 651 c 0,44,45
 239 652 239 652 254 636 c 0,46,47
 265 624 265 624 265 605 c 0,48,49
 265 599 265 599 264 592 c 0,50,51
 253 532 253 532 185 531 c 0,52,53
 157 531 157 531 143 547 c 0,37,38
316 547 m 0,54,55
 306 559 306 559 306 577 c 0,56,57
 306 584 306 584 307 592 c 0,58,59
 312 620 312 620 332 635.5 c 128,-1,60
 352 651 352 651 382.5 651 c 0,61,62
 414 652 414 652 428 636 c 0,63,64
 439 624 439 624 438 605 c 0,65,66
 438 600 438 600 437 592 c 0,67,68
 432 564 432 564 412 547.5 c 128,-1,69
 392 531 392 531 361 531 c 128,-1,70
 330 531 330 531 316 547 c 0,54,55
EndSplineSet
EndChar

StartChar: igrave
Encoding: 236 236 173
Width: 237
GlyphClass: 2
Flags: W
LayerCount: 2
Fore
SplineSet
144 0 m 1,0,-1
 -25 0 l 1,1,-1
 61 485 l 1,2,-1
 230 485 l 1,3,-1
 144 0 l 1,0,-1
119 532 m 1,4,-1
 34 676 l 1,5,-1
 196 676 l 1,6,-1
 237 532 l 1,7,-1
 119 532 l 1,4,-1
EndSplineSet
EndChar

StartChar: iacute
Encoding: 237 237 174
Width: 237
GlyphClass: 2
Flags: W
LayerCount: 2
Fore
SplineSet
143 0 m 1,0,-1
 -26 0 l 1,1,-1
 60 485 l 1,2,-1
 229 485 l 1,3,-1
 143 0 l 1,0,-1
328 676 m 1,4,-1
 192 532 l 1,5,-1
 74 532 l 1,6,-1
 164 676 l 1,7,-1
 328 676 l 1,4,-1
EndSplineSet
EndChar

StartChar: icircumflex
Encoding: 238 238 175
Width: 237
GlyphClass: 2
Flags: W
LayerCount: 2
Fore
SplineSet
144 0 m 1,0,-1
 -25 0 l 1,1,-1
 60 485 l 1,2,-1
 229 485 l 1,3,-1
 144 0 l 1,0,-1
256 671 m 1,4,-1
 299 532 l 1,5,-1
 191 532 l 1,6,-1
 165 590 l 1,7,-1
 119 532 l 1,8,-1
 9 532 l 1,9,-1
 101 671 l 1,10,-1
 256 671 l 1,4,-1
EndSplineSet
EndChar

StartChar: idieresis
Encoding: 239 239 176
Width: 237
GlyphClass: 2
Flags: W
LayerCount: 2
Fore
SplineSet
146 0 m 1,0,-1
 -23 0 l 1,1,-1
 62 485 l 1,2,-1
 231 485 l 1,3,-1
 146 0 l 1,0,-1
23 547 m 0,4,5
 13 559 13 559 13 577 c 0,6,7
 13 584 13 584 14 592 c 0,8,9
 19 620 19 620 38.5 635.5 c 128,-1,10
 58 651 58 651 88.5 651 c 0,11,12
 119 652 119 652 134 636 c 0,13,14
 145 624 145 624 145 605 c 0,15,16
 145 599 145 599 144 592 c 0,17,18
 133 532 133 532 66 531 c 0,19,20
 37 531 37 531 23 547 c 0,4,5
196 547 m 0,21,22
 186 559 186 559 186 577 c 0,23,24
 186 584 186 584 187 592 c 0,25,26
 192 620 192 620 212 635.5 c 128,-1,27
 232 651 232 651 263 651 c 0,28,29
 294 652 294 652 308 636 c 0,30,31
 318 625 318 625 318 606 c 0,32,33
 318 600 318 600 317 592 c 0,34,35
 312 564 312 564 292.5 547.5 c 128,-1,36
 273 531 273 531 241.5 531 c 128,-1,37
 210 531 210 531 196 547 c 0,21,22
EndSplineSet
EndChar

StartChar: eth
Encoding: 240 240 177
Width: 483
GlyphClass: 2
Flags: W
LayerCount: 2
Fore
SplineSet
201 410 m 0,0,1
 240 410 240 410 275 403 c 1,2,-1
 279 407 l 1,3,4
 273 445 273 445 249 468 c 1,5,-1
 131 412 l 1,6,-1
 148 506 l 1,7,-1
 172 518 l 1,8,9
 139 524 139 524 99 524 c 1,10,-1
 122 658 l 1,11,12
 267 658 267 658 338 628 c 1,13,-1
 441 675 l 1,14,-1
 421 561 l 1,15,-1
 404 552 l 1,16,17
 460 484 460 484 460 372 c 0,18,19
 460 325 460 325 450 271 c 0,20,21
 425 129 425 129 358.5 59.5 c 128,-1,22
 292 -10 292 -10 173 -10 c 0,23,24
 -4 -10 -4 -10 -4 148 c 0,25,26
 -4 178 -4 178 2 213 c 0,27,28
 19 309 19 309 72 359.5 c 128,-1,29
 125 410 125 410 201 410 c 0,0,1
231 288 m 0,30,31
 205 288 205 288 192.5 266.5 c 0,32,33
 180 246 180 246 172 204 c 0,34,35
 168 180 168 180 168 163 c 0,36,37
 168 152 168 152 170 144 c 0,38,39
 176 126 176 126 202 125.5 c 128,-1,40
 228 125 228 125 240.5 147.5 c 128,-1,41
 253 170 253 170 261 213 c 0,42,43
 264 230 264 230 264 244 c 0,44,45
 264 288 264 288 231 288 c 0,30,31
EndSplineSet
EndChar

StartChar: ntilde
Encoding: 241 241 178
Width: 484
GlyphClass: 2
Flags: W
LayerCount: 2
Fore
SplineSet
226 455 m 1,0,1
 290 503 290 503 357.5 503 c 0,2,3
 425 504 425 504 447 472 c 0,4,5
 462 451 462 451 462 416 c 0,6,7
 462 399 462 399 458 378 c 2,8,-1
 391 0 l 1,9,-1
 216 0 l 1,10,-1
 273 319 l 2,11,12
 274 324 274 324 274 327 c 0,13,14
 274 345 274 345 255 345 c 0,15,16
 226 345 226 345 205 331 c 1,17,-1
 146 0 l 1,18,-1
 -26 0 l 1,19,-1
 61 490 l 1,20,-1
 217 490 l 1,21,-1
 222 455 l 1,22,-1
 226 455 l 1,0,1
448 676 m 1,23,-1
 446 668 l 2,24,25
 434 602 434 602 410 568.5 c 128,-1,26
 386 535 386 535 331 535 c 0,27,28
 294 535 294 535 252 551 c 2,29,-1
 228 559 l 1,30,-1
 222 523 l 1,31,-1
 111 523 l 1,32,-1
 113 534 l 2,33,34
 125 601 125 601 150 634 c 128,-1,35
 175 667 175 667 224 667 c 0,36,37
 240 667 240 667 311 647 c 2,38,-1
 332 642 l 1,39,-1
 338 676 l 1,40,-1
 448 676 l 1,23,-1
EndSplineSet
EndChar

StartChar: ograve
Encoding: 242 242 179
Width: 473
GlyphClass: 2
Flags: W
LayerCount: 2
Fore
SplineSet
96 442.5 m 128,-1,1
 158 503 158 503 268 503 c 0,2,3
 378 504 378 504 418 444 c 0,4,5
 443 407 443 407 443 339 c 0,6,7
 443 298 443 298 434 248 c 0,8,9
 410 112 410 112 350 51 c 128,-1,10
 290 -10 290 -10 178.5 -10 c 0,11,12
 66 -10 66 -10 26 52 c 0,13,14
 1 91 1 91 1 158 c 0,15,16
 1 198 1 198 10 248 c 0,17,0
 34 382 34 382 96 442.5 c 128,-1,1
243.5 365 m 0,18,19
 217 365 217 365 206 344.5 c 128,-1,20
 195 324 195 324 184 258 c 2,21,-1
 179 233 l 2,22,23
 169 175 169 175 169 150 c 0,24,25
 170 143 170 143 170 139 c 0,26,27
 174 118 174 118 199.5 118 c 128,-1,28
 225 118 225 118 236.5 139.5 c 128,-1,29
 248 161 248 161 259 227 c 2,30,-1
 265 257 l 2,31,32
 274 309 274 309 274 333 c 0,33,34
 274 340 274 340 274 344 c 0,35,36
 270 364 270 364 243.5 365 c 0,18,19
246 532 m 1,37,-1
 160 676 l 1,38,-1
 322 676 l 1,39,-1
 364 532 l 1,40,-1
 246 532 l 1,37,-1
EndSplineSet
EndChar

StartChar: oacute
Encoding: 243 243 180
Width: 473
GlyphClass: 2
Flags: W
LayerCount: 2
Fore
SplineSet
96 442.5 m 128,-1,1
 158 503 158 503 268 503 c 0,2,3
 378 504 378 504 418 444 c 0,4,5
 443 407 443 407 443 339 c 0,6,7
 443 298 443 298 434 248 c 0,8,9
 410 112 410 112 350 51 c 128,-1,10
 290 -10 290 -10 178.5 -10 c 0,11,12
 66 -10 66 -10 26 52 c 0,13,14
 1 91 1 91 1 158 c 0,15,16
 1 198 1 198 10 248 c 0,17,0
 34 382 34 382 96 442.5 c 128,-1,1
243.5 365 m 0,18,19
 217 365 217 365 206 344.5 c 128,-1,20
 195 324 195 324 184 258 c 2,21,-1
 179 233 l 2,22,23
 169 175 169 175 169 150 c 0,24,25
 170 143 170 143 170 139 c 0,26,27
 174 118 174 118 199.5 118 c 128,-1,28
 225 118 225 118 236.5 139.5 c 128,-1,29
 248 161 248 161 259 227 c 2,30,-1
 265 257 l 2,31,32
 274 309 274 309 274 333 c 0,33,34
 274 340 274 340 274 344 c 0,35,36
 270 364 270 364 243.5 365 c 0,18,19
451 676 m 1,37,-1
 316 532 l 1,38,-1
 198 532 l 1,39,-1
 287 676 l 1,40,-1
 451 676 l 1,37,-1
EndSplineSet
EndChar

StartChar: ocircumflex
Encoding: 244 244 181
Width: 473
GlyphClass: 2
Flags: W
LayerCount: 2
Fore
SplineSet
96 442.5 m 128,-1,1
 158 503 158 503 268 503 c 0,2,3
 378 504 378 504 418 444 c 0,4,5
 443 407 443 407 443 338 c 0,6,7
 442 298 442 298 434 248 c 0,8,9
 410 112 410 112 350 51 c 128,-1,10
 290 -10 290 -10 178.5 -10 c 128,-1,11
 67 -10 67 -10 27 52 c 0,12,13
 2 91 2 91 2 158 c 0,14,15
 2 198 2 198 10 248 c 0,16,0
 34 382 34 382 96 442.5 c 128,-1,1
243.5 365 m 0,17,18
 217 365 217 365 206.5 344.5 c 128,-1,19
 196 324 196 324 184 258 c 2,20,-1
 180 233 l 2,21,22
 170 175 170 175 170 150 c 0,23,24
 170 143 170 143 170 139 c 0,25,26
 174 118 174 118 200 118 c 128,-1,27
 226 118 226 118 237 139.5 c 128,-1,28
 248 161 248 161 260 227 c 2,29,-1
 265 257 l 2,30,31
 274 309 274 309 274 333 c 0,32,33
 274 340 274 340 274 344 c 0,34,35
 270 364 270 364 243.5 365 c 0,17,18
375 671 m 1,36,-1
 419 532 l 1,37,-1
 310 532 l 1,38,-1
 285 590 l 1,39,-1
 239 532 l 1,40,-1
 129 532 l 1,41,-1
 221 671 l 1,42,-1
 375 671 l 1,36,-1
EndSplineSet
EndChar

StartChar: otilde
Encoding: 245 245 182
Width: 473
GlyphClass: 2
Flags: W
LayerCount: 2
Fore
SplineSet
96 442.5 m 128,-1,1
 158 503 158 503 268 503 c 0,2,3
 378 504 378 504 418 444 c 0,4,5
 443 407 443 407 443 339 c 0,6,7
 443 298 443 298 434 248 c 0,8,9
 410 112 410 112 350 51 c 128,-1,10
 290 -10 290 -10 178.5 -10 c 0,11,12
 66 -10 66 -10 26 52 c 0,13,14
 1 91 1 91 1 158 c 0,15,16
 1 198 1 198 10 248 c 0,17,0
 34 382 34 382 96 442.5 c 128,-1,1
243.5 365 m 0,18,19
 217 365 217 365 206 344.5 c 128,-1,20
 195 324 195 324 184 258 c 2,21,-1
 179 233 l 2,22,23
 169 175 169 175 169 150 c 0,24,25
 170 143 170 143 170 139 c 0,26,27
 174 118 174 118 199.5 118 c 128,-1,28
 225 118 225 118 236.5 139.5 c 128,-1,29
 248 161 248 161 259 227 c 2,30,-1
 265 257 l 2,31,32
 274 309 274 309 274 333 c 0,33,34
 274 340 274 340 274 344 c 0,35,36
 270 364 270 364 243.5 365 c 0,18,19
450 676 m 1,37,-1
 449 668 l 2,38,39
 437 602 437 602 413 568.5 c 128,-1,40
 389 535 389 535 334 535 c 0,41,42
 297 535 297 535 254 551 c 2,43,-1
 231 559 l 1,44,-1
 225 523 l 1,45,-1
 114 523 l 1,46,-1
 115 534 l 2,47,48
 127 601 127 601 152.5 634 c 128,-1,49
 178 667 178 667 227 667 c 0,50,51
 243 667 243 667 314 647 c 2,52,-1
 334 642 l 1,53,-1
 340 676 l 1,54,-1
 450 676 l 1,37,-1
EndSplineSet
EndChar

StartChar: odieresis
Encoding: 246 246 183
Width: 473
GlyphClass: 2
Flags: W
LayerCount: 2
Fore
SplineSet
98 442.5 m 128,-1,1
 160 503 160 503 270 503 c 0,2,3
 380 504 380 504 420 444 c 0,4,5
 445 407 445 407 445 339 c 0,6,7
 445 298 445 298 436 248 c 0,8,9
 412 112 412 112 352 51 c 128,-1,10
 292 -10 292 -10 180.5 -10 c 0,11,12
 68 -10 68 -10 28 52 c 0,13,14
 3 91 3 91 3 158 c 0,15,16
 3 198 3 198 12 248 c 0,17,0
 36 382 36 382 98 442.5 c 128,-1,1
245.5 365 m 0,18,19
 219 365 219 365 208.5 344.5 c 128,-1,20
 198 324 198 324 186 258 c 2,21,-1
 182 233 l 2,22,23
 171 174 171 174 171 149 c 0,24,25
 171 143 171 143 172 139 c 0,26,27
 175 118 175 118 201 118 c 128,-1,28
 227 118 227 118 238.5 139.5 c 128,-1,29
 250 161 250 161 262 227 c 2,30,-1
 267 257 l 2,31,32
 276 309 276 309 276 333 c 0,33,34
 276 340 276 340 276 344 c 0,35,36
 272 364 272 364 245.5 365 c 0,18,19
142 547 m 0,37,38
 132 559 132 559 132 577 c 0,39,40
 132 584 132 584 133 592 c 0,41,42
 138 620 138 620 157.5 635.5 c 128,-1,43
 177 651 177 651 207.5 651 c 0,44,45
 238 652 238 652 253 636 c 0,46,47
 264 624 264 624 264 605 c 0,48,49
 264 599 264 599 263 592 c 0,50,51
 252 532 252 532 184 531 c 0,52,53
 156 531 156 531 142 547 c 0,37,38
315 547 m 0,54,55
 305 559 305 559 305 577 c 0,56,57
 305 584 305 584 306 592 c 0,58,59
 311 620 311 620 331 635.5 c 128,-1,60
 351 651 351 651 381.5 651 c 0,61,62
 412 652 412 652 426 636 c 0,63,64
 437 624 437 624 437 605 c 0,65,66
 437 600 437 600 436 592 c 0,67,68
 431 564 431 564 411 547.5 c 128,-1,69
 391 531 391 531 360 531 c 128,-1,70
 329 531 329 531 315 547 c 0,54,55
EndSplineSet
EndChar

StartChar: divide
Encoding: 247 247 184
Width: 493
GlyphClass: 2
Flags: W
LayerCount: 2
Fore
SplineSet
429 237 m 1,0,-1
 42 237 l 1,1,-1
 65 366 l 1,2,-1
 452 366 l 1,3,-1
 429 237 l 1,0,-1
121 87 m 0,4,5
 128 128 128 128 153 148 c 128,-1,6
 178 168 178 168 225 168 c 128,-1,7
 272 168 272 168 290 148 c 0,8,9
 302 134 302 134 302 109 c 0,10,11
 302 98 302 98 300 85 c 0,12,13
 286 6 286 6 196 6 c 0,14,15
 119 6 119 6 119 67 c 0,16,17
 119 76 119 76 121 87 c 0,4,5
195 511 m 0,18,19
 202 552 202 552 227.5 572 c 128,-1,20
 253 592 253 592 300 592 c 128,-1,21
 347 592 347 592 365 572 c 0,22,23
 377 558 377 558 377 533 c 0,24,25
 377 522 377 522 375 509 c 0,26,27
 361 430 361 430 271 430 c 0,28,29
 193 430 193 430 193 491 c 0,30,31
 193 500 193 500 195 511 c 0,18,19
EndSplineSet
EndChar

StartChar: oslash
Encoding: 248 248 185
Width: 455
GlyphClass: 2
Flags: W
LayerCount: 2
Fore
SplineSet
276 503 m 0,0,1
 299 503 299 503 309 502 c 1,2,-1
 345 563 l 1,3,-1
 479 563 l 1,4,-1
 417 455 l 1,5,6
 451 416 451 416 451 339 c 0,7,8
 451 301 451 301 443 255 c 0,9,10
 418 113 418 113 358 51.5 c 128,-1,11
 298 -10 298 -10 186 -10 c 0,12,13
 174 -10 174 -10 152 -8 c 1,14,-1
 116 -73 l 1,15,-1
 -20 -73 l 1,16,-1
 44 38 l 1,17,18
 9 78 9 78 9 157 c 0,19,20
 8 194 8 194 16 240 c 0,21,22
 40 382 40 382 102.5 442.5 c 128,-1,23
 165 503 165 503 276 503 c 0,0,1
251.5 365 m 0,24,25
 225 365 225 365 214 344.5 c 128,-1,26
 203 324 203 324 191 258 c 2,27,-1
 187 233 l 2,28,29
 177 177 177 177 177 152 c 0,30,31
 177 144 177 144 178 139 c 0,32,33
 182 118 182 118 208 118 c 128,-1,34
 234 118 234 118 244.5 139.5 c 128,-1,35
 255 161 255 161 267 227 c 2,36,-1
 272 257 l 2,37,38
 282 311 282 311 282 334 c 0,39,40
 282 340 282 340 281 344 c 0,41,42
 278 364 278 364 251.5 365 c 0,24,25
EndSplineSet
EndChar

StartChar: ugrave
Encoding: 249 249 186
Width: 478
GlyphClass: 2
Flags: W
LayerCount: 2
Fore
SplineSet
93 -10 m 0,0,1
 -10 -10 -10 -10 -10 86 c 0,2,3
 -10 104 -10 104 -6 125 c 2,4,-1
 59 490 l 1,5,-1
 233 490 l 1,6,-1
 176 167 l 2,7,8
 175 162 175 162 175 158 c 0,9,10
 175 141 175 141 193 141 c 0,11,12
 222 141 222 141 244 156 c 1,13,-1
 303 490 l 1,14,-1
 475 490 l 1,15,-1
 389 2 l 1,16,-1
 227 2 l 1,17,-1
 233 38 l 1,18,-1
 229 38 l 1,19,20
 165 -10 165 -10 93 -10 c 0,0,1
229 532 m 1,21,-1
 143 676 l 1,22,-1
 305 676 l 1,23,-1
 346 532 l 1,24,-1
 229 532 l 1,21,-1
EndSplineSet
EndChar

StartChar: uacute
Encoding: 250 250 187
Width: 478
GlyphClass: 2
Flags: W
LayerCount: 2
Fore
SplineSet
93 -10 m 0,0,1
 -10 -10 -10 -10 -10 86 c 0,2,3
 -10 104 -10 104 -6 125 c 2,4,-1
 59 490 l 1,5,-1
 233 490 l 1,6,-1
 176 167 l 2,7,8
 175 162 175 162 175 158 c 0,9,10
 175 141 175 141 193 141 c 0,11,12
 222 141 222 141 244 156 c 1,13,-1
 303 490 l 1,14,-1
 475 490 l 1,15,-1
 389 2 l 1,16,-1
 227 2 l 1,17,-1
 233 38 l 1,18,-1
 229 38 l 1,19,20
 165 -10 165 -10 93 -10 c 0,0,1
473 676 m 1,21,-1
 337 532 l 1,22,-1
 219 532 l 1,23,-1
 309 676 l 1,24,-1
 473 676 l 1,21,-1
EndSplineSet
EndChar

StartChar: ucircumflex
Encoding: 251 251 188
Width: 478
GlyphClass: 2
Flags: W
LayerCount: 2
Fore
SplineSet
93 -10 m 0,0,1
 -9 -10 -9 -10 -9 84 c 0,2,3
 -9 103 -9 103 -5 125 c 2,4,-1
 59 490 l 1,5,-1
 233 490 l 1,6,-1
 176 167 l 2,7,8
 175 162 175 162 175 159 c 0,9,10
 175 141 175 141 194 141 c 0,11,12
 223 141 223 141 244 156 c 1,13,-1
 303 490 l 1,14,-1
 475 490 l 1,15,-1
 389 2 l 1,16,-1
 227 2 l 1,17,-1
 233 38 l 1,18,-1
 229 38 l 1,19,20
 165 -10 165 -10 93 -10 c 0,0,1
378 671 m 1,21,-1
 422 532 l 1,22,-1
 314 532 l 1,23,-1
 288 590 l 1,24,-1
 242 532 l 1,25,-1
 132 532 l 1,26,-1
 224 671 l 1,27,-1
 378 671 l 1,21,-1
EndSplineSet
EndChar

StartChar: udieresis
Encoding: 252 252 189
Width: 478
GlyphClass: 2
Flags: W
LayerCount: 2
Fore
SplineSet
95 -10 m 0,0,1
 -7 -10 -7 -10 -7 84 c 0,2,3
 -7 103 -7 103 -3 125 c 2,4,-1
 61 490 l 1,5,-1
 235 490 l 1,6,-1
 178 167 l 2,7,8
 177 162 177 162 177 158 c 0,9,10
 177 141 177 141 195 141 c 0,11,12
 224 141 224 141 246 156 c 1,13,-1
 305 490 l 1,14,-1
 477 490 l 1,15,-1
 391 2 l 1,16,-1
 229 2 l 1,17,-1
 235 38 l 1,18,-1
 231 38 l 1,19,20
 167 -10 167 -10 95 -10 c 0,0,1
144 547 m 0,21,22
 134 559 134 559 134 577 c 0,23,24
 134 584 134 584 135 592 c 0,25,26
 140 620 140 620 159.5 635.5 c 128,-1,27
 179 651 179 651 209.5 651 c 0,28,29
 240 652 240 652 255 636 c 0,30,31
 266 624 266 624 266 605 c 0,32,33
 266 599 266 599 265 592 c 0,34,35
 254 532 254 532 187 531 c 0,36,37
 158 531 158 531 144 547 c 0,21,22
317 547 m 0,38,39
 307 559 307 559 307 577 c 0,40,41
 307 584 307 584 308 592 c 0,42,43
 313 620 313 620 333 635.5 c 128,-1,44
 353 651 353 651 383.5 651 c 0,45,46
 414 652 414 652 428 636 c 0,47,48
 439 624 439 624 439 605 c 0,49,50
 439 600 439 600 438 592 c 0,51,52
 433 564 433 564 413 547.5 c 128,-1,53
 393 531 393 531 362 531 c 128,-1,54
 331 531 331 531 317 547 c 0,38,39
EndSplineSet
EndChar

StartChar: yacute
Encoding: 253 253 190
Width: 455
GlyphClass: 2
Flags: W
LayerCount: 2
Fore
SplineSet
496 490 m 1,0,-1
 280 -14 l 2,1,2
 248 -90 248 -90 204 -120.5 c 128,-1,3
 160 -151 160 -151 74 -151 c 2,4,-1
 -28 -151 l 1,5,-1
 -19 -18 l 1,6,-1
 38 -18 l 2,7,8
 73 -18 73 -18 77 9 c 0,9,10
 78 15 78 15 78 36 c 2,11,-1
 40 490 l 1,12,-1
 222 490 l 1,13,-1
 214 184 l 1,14,-1
 224 184 l 1,15,-1
 328 490 l 1,16,-1
 496 490 l 1,0,-1
477 676 m 1,17,-1
 342 532 l 1,18,-1
 224 532 l 1,19,-1
 314 676 l 1,20,-1
 477 676 l 1,17,-1
EndSplineSet
EndChar

StartChar: thorn
Encoding: 254 254 191
Width: 477
GlyphClass: 2
Flags: W
LayerCount: 2
Fore
SplineSet
454 446 m 0,0,1
 465 419 465 419 465 374 c 0,2,3
 465 324 465 324 452 254 c 0,4,5
 428 118 428 118 381.5 53.5 c 128,-1,6
 335 -11 335 -11 236 -11 c 0,7,8
 190 -11 190 -11 159 8 c 1,9,-1
 133 -140 l 1,10,-1
 -39 -140 l 1,11,-1
 101 656 l 1,12,-1
 272 656 l 1,13,-1
 241 479 l 1,14,-1
 245 479 l 1,15,16
 279 502 279 502 336 502 c 0,17,18
 432 502 432 502 454 446 c 0,0,1
268 189.5 m 0,19,20
 272 208 272 208 280 256 c 0,21,22
 286 292 286 292 287 315 c 0,23,24
 287 323 287 323 286 330 c 0,25,26
 283 356 283 356 261 356 c 128,-1,27
 239 356 239 356 216 344 c 1,28,-1
 179 132 l 1,29,30
 196 123 196 123 214 123 c 128,-1,31
 232 123 232 123 240.5 129.5 c 128,-1,32
 249 136 249 136 256.5 154 c 128,-1,33
 264 172 264 172 268 189.5 c 0,19,20
EndSplineSet
EndChar

StartChar: ydieresis
Encoding: 255 255 192
Width: 455
GlyphClass: 2
Flags: W
LayerCount: 2
Fore
SplineSet
498 490 m 1,0,-1
 282 -14 l 2,1,2
 250 -90 250 -90 206 -120.5 c 128,-1,3
 162 -151 162 -151 76 -151 c 2,4,-1
 -26 -151 l 1,5,-1
 -17 -18 l 1,6,-1
 40 -18 l 2,7,8
 75 -18 75 -18 80 9 c 0,9,10
 81 15 81 15 80 36 c 2,11,-1
 42 490 l 1,12,-1
 224 490 l 1,13,-1
 216 184 l 1,14,-1
 226 184 l 1,15,-1
 330 490 l 1,16,-1
 498 490 l 1,0,-1
137 547 m 0,17,18
 127 559 127 559 127 577 c 0,19,20
 127 584 127 584 128 592 c 0,21,22
 133 620 133 620 152.5 635.5 c 128,-1,23
 172 651 172 651 203 651 c 0,24,25
 234 652 234 652 248 636 c 0,26,27
 259 624 259 624 259 606 c 0,28,29
 259 600 259 600 258 592 c 0,30,31
 247 532 247 532 180 531 c 0,32,33
 151 531 151 531 137 547 c 0,17,18
310 547 m 0,34,35
 300 559 300 559 300 577 c 0,36,37
 300 584 300 584 301 592 c 0,38,39
 306 620 306 620 326 635.5 c 128,-1,40
 346 651 346 651 377 651 c 0,41,42
 408 652 408 652 422 636 c 0,43,44
 432 625 432 625 432 606 c 0,45,46
 432 600 432 600 431 592 c 0,47,48
 426 564 426 564 406.5 547.5 c 128,-1,49
 387 531 387 531 355.5 531 c 128,-1,50
 324 531 324 531 310 547 c 0,34,35
EndSplineSet
EndChar

StartChar: hbar
Encoding: 295 295 193
Width: 478
GlyphClass: 2
Flags: W
LayerCount: 2
Fore
SplineSet
228 455 m 1,0,1
 292 503 292 503 358 503 c 0,2,3
 424 504 424 504 446 472 c 0,4,5
 460 451 460 451 460 416 c 0,6,7
 460 399 460 399 456 378 c 2,8,-1
 389 0 l 1,9,-1
 215 0 l 1,10,-1
 271 319 l 2,11,12
 272 324 272 324 272 328 c 0,13,14
 272 345 272 345 254 345 c 0,15,16
 225 345 225 345 204 331 c 1,17,-1
 145 0 l 1,18,-1
 -27 0 l 1,19,-1
 65 518 l 1,20,-1
 34 518 l 1,21,-1
 51 615 l 1,22,-1
 82 615 l 1,23,-1
 89 656 l 1,24,-1
 260 656 l 1,25,-1
 253 615 l 1,26,-1
 327 615 l 1,27,-1
 310 518 l 1,28,-1
 236 518 l 1,29,-1
 224 455 l 1,30,-1
 228 455 l 1,0,1
EndSplineSet
EndChar

StartChar: Itilde
Encoding: 296 296 194
Width: 284
GlyphClass: 2
Flags: W
LayerCount: 2
Fore
SplineSet
157 0 m 1,0,-1
 -17 0 l 1,1,-1
 95 636 l 1,2,-1
 269 636 l 1,3,-1
 157 0 l 1,0,-1
355 816 m 1,4,-1
 354 808 l 2,5,6
 343 747 343 747 319.5 714.5 c 128,-1,7
 296 682 296 682 243 682 c 0,8,9
 211 682 211 682 168 697 c 2,10,-1
 146 706 l 1,11,-1
 139 671 l 1,12,-1
 34 671 l 1,13,-1
 36 681 l 2,14,15
 47 744 47 744 71 775.5 c 128,-1,16
 95 807 95 807 141 807 c 0,17,18
 159 807 159 807 225 788 c 2,19,-1
 243 784 l 1,20,-1
 249 816 l 1,21,-1
 355 816 l 1,4,-1
EndSplineSet
EndChar

StartChar: itilde
Encoding: 297 297 195
Width: 237
GlyphClass: 2
Flags: W
LayerCount: 2
Fore
SplineSet
144 0 m 1,0,-1
 -25 0 l 1,1,-1
 61 485 l 1,2,-1
 230 485 l 1,3,-1
 144 0 l 1,0,-1
334 676 m 1,4,-1
 332 668 l 2,5,6
 320 602 320 602 296.5 568.5 c 128,-1,7
 273 535 273 535 217 535 c 0,8,9
 180 535 180 535 138 551 c 2,10,-1
 115 559 l 1,11,-1
 109 523 l 1,12,-1
 -3 523 l 1,13,-1
 -1 534 l 2,14,15
 11 601 11 601 36 634 c 128,-1,16
 61 667 61 667 110 667 c 0,17,18
 126 667 126 667 197 647 c 2,19,-1
 218 642 l 1,20,-1
 224 676 l 1,21,-1
 334 676 l 1,4,-1
EndSplineSet
EndChar

StartChar: dotlessi
Encoding: 305 305 196
Width: 237
GlyphClass: 2
Flags: W
LayerCount: 2
Fore
SplineSet
161 0 m 1,0,-1
 -8 0 l 1,1,-1
 78 485 l 1,2,-1
 247 485 l 1,3,-1
 161 0 l 1,0,-1
EndSplineSet
EndChar

StartChar: IJ
Encoding: 306 306 197
Width: 575
GlyphClass: 2
Flags: W
LayerCount: 2
Fore
SplineSet
174 0 m 1,0,-1
 -0 0 l 1,1,-1
 112 636 l 1,2,-1
 286 636 l 1,3,-1
 174 0 l 1,0,-1
587 636 m 1,4,-1
 497 128 l 2,5,6
 483 49 483 49 442.5 19.5 c 128,-1,7
 402 -10 402 -10 305 -10 c 2,8,-1
 253 -10 l 1,9,-1
 265 129 l 1,10,-1
 300 129 l 2,11,12
 317 129 317 129 322 133.5 c 128,-1,13
 327 138 327 138 330 154 c 2,14,-1
 415 636 l 1,15,-1
 587 636 l 1,4,-1
EndSplineSet
EndChar

StartChar: ij
Encoding: 307 307 198
Width: 491
GlyphClass: 2
Flags: W
LayerCount: 2
Fore
SplineSet
490 485 m 1,0,-1
 403 -12 l 2,1,2
 389 -92 389 -92 348 -121.5 c 128,-1,3
 307 -151 307 -151 211 -151 c 2,4,-1
 159 -151 l 1,5,-1
 170 -9 l 1,6,-1
 205 -9 l 2,7,8
 222 -9 222 -9 228 -4.5 c 128,-1,9
 234 0 234 0 236 15 c 2,10,-1
 319 485 l 1,11,-1
 490 485 l 1,0,-1
159 0 m 1,12,-1
 -10 0 l 1,13,-1
 75 485 l 1,14,-1
 244 485 l 1,15,-1
 159 0 l 1,12,-1
85 584 m 0,16,17
 92 625 92 625 117 644.5 c 128,-1,18
 142 664 142 664 191 664 c 128,-1,19
 240 664 240 664 258 644 c 0,20,21
 271 630 271 630 271 606 c 0,22,23
 271 596 271 596 269 584 c 0,24,25
 262 544 262 544 237 525 c 128,-1,26
 212 506 212 506 163 506 c 128,-1,27
 114 506 114 506 96 524 c 0,28,29
 83 537 83 537 83 563 c 0,30,31
 83 573 83 573 85 584 c 0,16,17
329 584 m 0,32,33
 336 625 336 625 361 644.5 c 128,-1,34
 386 664 386 664 435.5 664 c 128,-1,35
 485 664 485 664 503 644 c 0,36,37
 516 630 516 630 516 606 c 0,38,39
 516 596 516 596 514 584 c 0,40,41
 507 544 507 544 482 525 c 128,-1,42
 457 506 457 506 407.5 506 c 128,-1,43
 358 506 358 506 340 524 c 0,44,45
 327 537 327 537 327 563 c 0,46,47
 327 573 327 573 329 584 c 0,32,33
EndSplineSet
EndChar

StartChar: Jcircumflex
Encoding: 308 308 199
Width: 294
GlyphClass: 2
Flags: W
LayerCount: 2
Fore
SplineSet
292 636 m 1,0,-1
 202 128 l 2,1,2
 188 49 188 49 147 19.5 c 128,-1,3
 106 -10 106 -10 10 -10 c 2,4,-1
 -42 -10 l 1,5,-1
 -32 129 l 1,6,-1
 3 129 l 2,7,8
 20 129 20 129 26 133.5 c 128,-1,9
 32 138 32 138 35 154 c 2,10,-1
 120 636 l 1,11,-1
 292 636 l 1,0,-1
303 811 m 1,12,-1
 345 680 l 1,13,-1
 242 680 l 1,14,-1
 218 734 l 1,15,-1
 174 680 l 1,16,-1
 69 680 l 1,17,-1
 157 811 l 1,18,-1
 303 811 l 1,12,-1
EndSplineSet
EndChar

StartChar: jcircumflex
Encoding: 309 309 200
Width: 253
GlyphClass: 2
Flags: W
LayerCount: 2
Fore
SplineSet
254 485 m 1,0,-1
 166 -12 l 2,1,2
 152 -92 152 -92 111.5 -121.5 c 128,-1,3
 71 -151 71 -151 -25 -151 c 2,4,-1
 -76 -151 l 1,5,-1
 -65 -9 l 1,6,-1
 -31 -9 l 2,7,8
 -14 -9 -14 -9 -8.5 -4.5 c 128,-1,9
 -3 0 -3 0 -0 15 c 2,10,-1
 83 485 l 1,11,-1
 254 485 l 1,0,-1
277 671 m 1,12,-1
 320 532 l 1,13,-1
 212 532 l 1,14,-1
 186 590 l 1,15,-1
 140 532 l 1,16,-1
 31 532 l 1,17,-1
 122 671 l 1,18,-1
 277 671 l 1,12,-1
EndSplineSet
EndChar

StartChar: kcommaaccent
Encoding: 311 311 201
Width: 452
GlyphClass: 2
Flags: W
LayerCount: 2
Fore
SplineSet
412 0 m 1,0,-1
 222 0 l 1,1,-1
 193 188 l 1,2,-1
 189 188 l 1,3,-1
 156 0 l 1,4,-1
 -11 0 l 1,5,-1
 105 656 l 1,6,-1
 274 656 l 1,7,-1
 210 295 l 1,8,-1
 214 295 l 1,9,-1
 323 490 l 1,10,-1
 502 490 l 1,11,-1
 355 246 l 1,12,-1
 412 0 l 1,0,-1
76 -78 m 0,13,14
 88 -9 88 -9 182 -9 c 0,15,16
 266 -9 266 -9 266 -65 c 0,17,18
 266 -72 266 -72 265 -80 c 0,19,20
 255 -135 255 -135 168 -179 c 1,21,-1
 87 -173 l 1,22,-1
 132 -131 l 1,23,24
 103 -132 103 -132 87 -118 c 0,25,26
 75 -108 75 -108 75 -90 c 0,27,28
 75 -84 75 -84 76 -78 c 0,13,14
EndSplineSet
EndChar

StartChar: kgreenlandic
Encoding: 312 312 202
Width: 456
GlyphClass: 2
Flags: W
LayerCount: 2
Fore
SplineSet
414 0 m 1,0,-1
 224 0 l 1,1,-1
 191 174 l 1,2,-1
 187 174 l 1,3,-1
 157 0 l 1,4,-1
 -13 0 l 1,5,-1
 73 492 l 1,6,-1
 245 492 l 1,7,-1
 211 295 l 1,8,-1
 215 295 l 1,9,10
 284 418 284 418 317 444 c 0,11,12
 371 487 371 487 408 495 c 128,-1,13
 445 503 445 503 482 503 c 1,14,-1
 445 333 l 1,15,16
 427 333 427 333 411 321.5 c 128,-1,17
 395 310 395 310 386.5 297 c 128,-1,18
 378 284 378 284 356 250 c 1,19,-1
 414 0 l 1,0,-1
EndSplineSet
EndChar

StartChar: Ldotaccent
Encoding: 319 319 203
Width: 434
GlyphClass: 2
Flags: W
LayerCount: 2
Fore
SplineSet
313 0 m 1,0,-1
 -11 0 l 1,1,-1
 101 636 l 1,2,-1
 276 636 l 1,3,-1
 189 142 l 1,4,-1
 348 142 l 1,5,-1
 313 0 l 1,0,-1
331 221 m 0,6,7
 247 221 247 221 247 289 c 0,8,9
 247 300 247 300 249 312 c 0,10,11
 265 404 265 404 363 404 c 0,12,13
 447 404 447 404 447 336 c 0,14,15
 447 324 447 324 445 312 c 0,16,17
 429 220 429 220 331 221 c 0,6,7
EndSplineSet
EndChar

StartChar: ldot
Encoding: 320 320 204
Width: 430
GlyphClass: 2
Flags: W
LayerCount: 2
Fore
SplineSet
-6 113 m 2,0,-1
 90 656 l 1,1,-1
 259 656 l 1,2,-1
 172 167 l 2,3,4
 169 150 169 150 175.5 142.5 c 128,-1,5
 182 135 182 135 201 135 c 1,6,-1
 162 -10 l 1,7,-1
 106 -10 l 2,8,9
 38 -10 38 -10 10 18 c 0,10,11
 -10 38 -10 38 -10 76 c 0,12,13
 -10 93 -10 93 -6 113 c 2,0,-1
310 221 m 0,14,15
 225 221 225 221 225 289 c 0,16,17
 225 300 225 300 227 312 c 0,18,19
 244 404 244 404 342 404 c 0,20,21
 427 404 427 404 426 336 c 0,22,23
 426 324 426 324 424 312 c 0,24,25
 408 220 408 220 310 221 c 0,14,15
EndSplineSet
EndChar

StartChar: Lslash
Encoding: 321 321 205
Width: 370
GlyphClass: 2
Flags: W
LayerCount: 2
Fore
SplineSet
313 0 m 1,0,-1
 -11 0 l 1,1,-1
 21 183 l 1,2,-1
 -28 156 l 1,3,-1
 -1 307 l 1,4,-1
 48 335 l 1,5,-1
 101 636 l 1,6,-1
 276 636 l 1,7,-1
 243 446 l 1,8,-1
 303 481 l 1,9,-1
 276 330 l 1,10,-1
 216 295 l 1,11,-1
 189 142 l 1,12,-1
 348 142 l 1,13,-1
 313 0 l 1,0,-1
EndSplineSet
EndChar

StartChar: lslash
Encoding: 322 322 206
Width: 238
GlyphClass: 2
Flags: W
LayerCount: 2
Fore
SplineSet
-2 113 m 2,0,-1
 10 183 l 1,1,-1
 -28 162 l 1,2,-1
 -2 313 l 1,3,-1
 37 335 l 1,4,-1
 94 656 l 1,5,-1
 263 656 l 1,6,-1
 225 442 l 1,7,-1
 264 465 l 1,8,-1
 237 313 l 1,9,-1
 198 291 l 1,10,-1
 176 167 l 2,11,12
 173 150 173 150 179.5 142.5 c 128,-1,13
 186 135 186 135 206 135 c 1,14,-1
 166 -10 l 1,15,-1
 110 -10 l 2,16,17
 42 -10 42 -10 14 18 c 0,18,19
 -6 38 -6 38 -6 76 c 0,20,21
 -6 93 -6 93 -2 113 c 2,0,-1
EndSplineSet
EndChar

StartChar: Nacute
Encoding: 323 323 207
Width: 553
GlyphClass: 2
Flags: W
LayerCount: 2
Fore
SplineSet
437 0 m 1,0,-1
 269 0 l 1,1,-1
 189 296 l 1,2,-1
 181 296 l 1,3,-1
 129 0 l 1,4,-1
 -27 0 l 1,5,-1
 85 636 l 1,6,-1
 258 636 l 1,7,-1
 330 331 l 1,8,-1
 338 331 l 1,9,-1
 392 636 l 1,10,-1
 549 636 l 1,11,-1
 437 0 l 1,0,-1
500 816 m 1,12,-1
 372 680 l 1,13,-1
 259 680 l 1,14,-1
 344 816 l 1,15,-1
 500 816 l 1,12,-1
EndSplineSet
EndChar

StartChar: nacute
Encoding: 324 324 208
Width: 478
GlyphClass: 2
Flags: W
LayerCount: 2
Fore
SplineSet
223 455 m 1,0,1
 287 503 287 503 354.5 503 c 0,2,3
 422 504 422 504 444 472 c 0,4,5
 458 451 458 451 458 416 c 0,6,7
 458 399 458 399 454 378 c 2,8,-1
 387 0 l 1,9,-1
 213 0 l 1,10,-1
 270 319 l 2,11,12
 271 324 271 324 271 327 c 0,13,14
 271 345 271 345 252 345 c 0,15,16
 223 345 223 345 202 331 c 1,17,-1
 143 0 l 1,18,-1
 -29 0 l 1,19,-1
 58 490 l 1,20,-1
 214 490 l 1,21,-1
 219 455 l 1,22,-1
 223 455 l 1,0,1
454 676 m 1,23,-1
 318 532 l 1,24,-1
 200 532 l 1,25,-1
 290 676 l 1,26,-1
 454 676 l 1,23,-1
EndSplineSet
EndChar

StartChar: OE
Encoding: 338 338 209
Width: 708
GlyphClass: 2
Flags: W
LayerCount: 2
Fore
SplineSet
336 646 m 0,0,1
 381 646 381 646 422 636 c 1,2,-1
 739 636 l 1,3,-1
 712 485 l 1,4,-1
 539 485 l 1,5,6
 540 467 540 467 540 447 c 0,7,8
 540 420 540 420 538 390 c 1,9,-1
 673 390 l 1,10,-1
 649 255 l 1,11,-1
 513 255 l 1,12,13
 499 196 499 196 476 150 c 1,14,-1
 653 150 l 1,15,-1
 627 0 l 1,16,-1
 303 0 l 1,17,18
 260 -10 260 -10 216 -10 c 0,19,20
 84 -10 84 -10 40 71 c 0,21,22
 14 119 14 119 15 198 c 0,23,24
 15 252 15 252 27 322 c 0,25,26
 57 492 57 492 129.5 569 c 128,-1,27
 202 646 202 646 336 646 c 0,0,1
361 457 m 0,28,29
 352 490 352 490 306 490 c 128,-1,30
 260 490 260 490 241.5 457 c 128,-1,31
 223 424 223 424 206 331 c 2,32,-1
 202 306 l 2,33,34
 190 238 190 238 190 201 c 0,35,36
 190 183 190 183 192 172 c 0,37,38
 200 138 200 138 246 138 c 128,-1,39
 292 138 292 138 311.5 170.5 c 128,-1,40
 331 203 331 203 347 297 c 2,41,-1
 353 330 l 2,42,43
 364 391 364 391 364 427 c 0,44,45
 364 446 364 446 361 457 c 0,28,29
EndSplineSet
EndChar

StartChar: oe
Encoding: 339 339 210
Width: 700
GlyphClass: 2
Flags: W
LayerCount: 2
Fore
SplineSet
398 462 m 1,0,1
 449 503 449 503 545 503 c 0,2,3
 701 503 701 503 701 363 c 0,4,5
 701 337 701 337 696 307 c 0,6,7
 686 248 686 248 671 201 c 1,8,-1
 436 201 l 1,9,10
 434 188 434 188 434 177 c 0,11,12
 434 120 434 120 493 120 c 0,13,14
 527 120 527 120 629 143 c 1,15,-1
 626 18 l 1,16,17
 530 -11 530 -11 448 -11 c 0,18,19
 448 -10 448 -10 446 -10 c 0,20,21
 364 -10 364 -10 327 34 c 1,22,23
 279 -10 279 -10 177 -10 c 0,24,25
 74 -10 74 -10 34 52 c 0,26,27
 8 91 8 91 9 159 c 0,28,29
 10 200 10 200 18 248 c 0,30,31
 42 382 42 382 104 442.5 c 128,-1,32
 166 503 166 503 276 503 c 0,33,34
 364 503 364 503 398 462 c 1,0,1
251.5 365 m 0,35,36
 225 365 225 365 214 344.5 c 128,-1,37
 203 324 203 324 191 258 c 2,38,-1
 187 233 l 2,39,40
 177 175 177 175 177 150 c 0,41,42
 178 143 178 143 178 139 c 0,43,44
 182 118 182 118 207.5 118 c 128,-1,45
 233 118 233 118 244 139.5 c 128,-1,46
 255 161 255 161 267 227 c 2,47,-1
 272 257 l 2,48,49
 282 311 282 311 282 334 c 0,50,51
 282 340 282 340 281 344 c 0,52,53
 278 364 278 364 251.5 365 c 0,35,36
504 358 m 0,54,55
 477 358 477 358 466 340.5 c 128,-1,56
 455 323 455 323 448 286 c 1,57,-1
 537 286 l 1,58,-1
 541 310 l 2,59,60
 542 318 542 318 542 324 c 0,61,62
 542 358 542 358 504 358 c 0,54,55
EndSplineSet
EndChar

StartChar: Racute
Encoding: 340 340 211
Width: 505
GlyphClass: 2
Flags: W
LayerCount: 2
Fore
SplineSet
485 434 m 0,0,1
 475 377 475 377 450.5 339 c 128,-1,2
 426 301 426 301 385 270 c 1,3,-1
 422 0 l 1,4,-1
 232 0 l 1,5,-1
 209 229 l 1,6,-1
 185 229 l 1,7,-1
 145 0 l 1,8,-1
 -27 0 l 1,9,-1
 85 636 l 1,10,-1
 323 636 l 2,11,12
 424 636 424 636 464 588 c 0,13,14
 491 555 491 555 491 496 c 0,15,16
 491 468 491 468 485 434 c 0,0,1
271.5 352.5 m 128,-1,18
 286 368 286 368 293 408 c 0,19,20
 296 426 296 426 296 440 c 0,21,22
 296 456 296 456 292 464 c 0,23,24
 284 480 284 480 258 480 c 2,25,-1
 230 480 l 1,26,-1
 204 337 l 1,27,-1
 231 337 l 2,28,17
 257 337 257 337 271.5 352.5 c 128,-1,18
464 816 m 1,29,-1
 336 680 l 1,30,-1
 223 680 l 1,31,-1
 309 816 l 1,32,-1
 464 816 l 1,29,-1
EndSplineSet
EndChar

StartChar: Rcommaaccent
Encoding: 342 342 212
Width: 505
GlyphClass: 2
Flags: W
LayerCount: 2
Fore
SplineSet
516 434 m 0,0,1
 506 377 506 377 482 339 c 128,-1,2
 458 301 458 301 416 270 c 1,3,-1
 454 0 l 1,4,-1
 264 0 l 1,5,-1
 241 229 l 1,6,-1
 217 229 l 1,7,-1
 177 0 l 1,8,-1
 5 0 l 1,9,-1
 117 636 l 1,10,-1
 355 636 l 2,11,12
 457 636 457 636 496 588 c 0,13,14
 522 555 522 555 522 497 c 0,15,16
 522 468 522 468 516 434 c 0,0,1
303.5 352.5 m 128,-1,18
 318 368 318 368 325 408 c 0,19,20
 328 426 328 426 328 439 c 0,21,22
 328 456 328 456 323 464 c 0,23,24
 314 480 314 480 289 480 c 2,25,-1
 261 480 l 1,26,-1
 236 337 l 1,27,-1
 263 337 l 2,28,17
 289 337 289 337 303.5 352.5 c 128,-1,18
115 -78 m 0,29,30
 127 -9 127 -9 221 -9 c 0,31,32
 304 -9 304 -9 304 -65 c 0,33,34
 304 -72 304 -72 303 -80 c 0,35,36
 293 -135 293 -135 207 -179 c 1,37,-1
 126 -173 l 1,38,-1
 170 -131 l 1,39,40
 142 -132 142 -132 126 -118 c 0,41,42
 114 -108 114 -108 114 -90 c 0,43,44
 114 -84 114 -84 115 -78 c 0,29,30
EndSplineSet
EndChar

StartChar: rcommaaccent
Encoding: 343 343 213
Width: 320
GlyphClass: 2
Flags: W
LayerCount: 2
Fore
SplineSet
221 275 m 2,0,-1
 172 0 l 1,1,-1
 2 0 l 1,2,-1
 89 490 l 1,3,-1
 238 490 l 1,4,-1
 243 461 l 1,5,-1
 248 461 l 1,6,7
 277 488 277 488 301.5 495.5 c 128,-1,8
 326 503 326 503 381 503 c 1,9,-1
 344 339 l 1,10,-1
 297 339 l 2,11,12
 257 339 257 339 242.5 326.5 c 128,-1,13
 228 314 228 314 221 275 c 2,0,-1
-6 -78 m 0,14,15
 6 -9 6 -9 100 -9 c 0,16,17
 183 -9 183 -9 183 -64 c 0,18,19
 183 -72 183 -72 181 -80 c 0,20,21
 171 -135 171 -135 85 -179 c 1,22,-1
 4 -173 l 1,23,-1
 48 -131 l 1,24,25
 19 -132 19 -132 4 -118 c 0,26,27
 -7 -108 -7 -108 -7 -90 c 0,28,29
 -7 -84 -7 -84 -6 -78 c 0,14,15
EndSplineSet
EndChar

StartChar: Rcaron
Encoding: 344 344 214
Width: 505
GlyphClass: 2
Flags: W
LayerCount: 2
Fore
SplineSet
486 434 m 0,0,1
 476 377 476 377 452 339 c 128,-1,2
 428 301 428 301 386 270 c 1,3,-1
 423 0 l 1,4,-1
 233 0 l 1,5,-1
 211 229 l 1,6,-1
 187 229 l 1,7,-1
 146 0 l 1,8,-1
 -26 0 l 1,9,-1
 87 636 l 1,10,-1
 325 636 l 2,11,12
 427 636 427 636 466 588 c 0,13,14
 492 555 492 555 492 497 c 0,15,16
 492 468 492 468 486 434 c 0,0,1
273 352.5 m 0,17,18
 286 368 286 368 294 408 c 0,19,20
 297 426 297 426 298 440 c 0,21,22
 298 456 298 456 293 464 c 0,23,24
 284 480 284 480 259 480 c 2,25,-1
 231 480 l 1,26,-1
 206 337 l 1,27,-1
 233 337 l 2,28,29
 259 337 259 337 273 352.5 c 0,17,18
223 668 m 1,30,-1
 191 800 l 1,31,-1
 286 800 l 1,32,-1
 304 751 l 1,33,-1
 340 800 l 1,34,-1
 436 800 l 1,35,-1
 356 668 l 1,36,-1
 223 668 l 1,30,-1
EndSplineSet
EndChar

StartChar: rcaron
Encoding: 345 345 215
Width: 320
GlyphClass: 2
Flags: W
LayerCount: 2
Fore
SplineSet
190 275 m 2,0,-1
 142 0 l 1,1,-1
 -28 0 l 1,2,-1
 58 490 l 1,3,-1
 207 490 l 1,4,-1
 212 461 l 1,5,-1
 217 461 l 1,6,7
 246 488 246 488 271 495.5 c 128,-1,8
 296 503 296 503 351 503 c 1,9,-1
 314 339 l 1,10,-1
 267 339 l 2,11,12
 227 339 227 339 212 326.5 c 128,-1,13
 197 314 197 314 190 275 c 2,0,-1
135 530 m 1,14,-1
 101 670 l 1,15,-1
 201 670 l 1,16,-1
 221 617 l 1,17,-1
 259 670 l 1,18,-1
 359 670 l 1,19,-1
 276 530 l 1,20,-1
 135 530 l 1,14,-1
EndSplineSet
EndChar

StartChar: Scaron
Encoding: 352 352 216
Width: 437
GlyphClass: 2
Flags: W
LayerCount: 2
Fore
SplineSet
104 591 m 128,-1,1
 167 646 167 646 259.5 646 c 128,-1,2
 352 646 352 646 447 628 c 1,3,-1
 397 464 l 1,4,5
 304 487 304 487 265 487 c 0,6,7
 263 487 263 487 262 487 c 0,8,9
 208 487 208 487 208 445 c 0,10,11
 208 432 208 432 226 419 c 0,12,13
 246 404 246 404 275.5 388.5 c 128,-1,14
 305 373 305 373 334 351 c 128,-1,15
 363 329 363 329 379 288 c 0,16,17
 389 262 389 262 389 231 c 0,18,19
 389 213 389 213 386 194 c 0,20,21
 369 97 369 97 307 43.5 c 128,-1,22
 245 -10 245 -10 149.5 -10 c 128,-1,23
 54 -10 54 -10 -32 19 c 1,24,-1
 6 172 l 1,25,26
 110 140 110 140 153 140 c 0,27,28
 203 140 203 140 203 183 c 0,29,30
 203 200 203 200 186 214 c 0,31,32
 166 230 166 230 136 246.5 c 128,-1,33
 106 263 106 263 76 284.5 c 128,-1,34
 46 306 46 306 30 347 c 0,35,36
 21 372 21 372 21 402 c 0,37,38
 21 422 21 422 25 444 c 0,39,0
 41 536 41 536 104 591 c 128,-1,1
198 668 m 1,40,-1
 164 800 l 1,41,-1
 259 800 l 1,42,-1
 278 751 l 1,43,-1
 314 800 l 1,44,-1
 409 800 l 1,45,-1
 331 668 l 1,46,-1
 198 668 l 1,40,-1
EndSplineSet
EndChar

StartChar: scaron
Encoding: 353 353 217
Width: 379
GlyphClass: 2
Flags: W
LayerCount: 2
Fore
SplineSet
100 461.5 m 128,-1,1
 153 503 153 503 233 503 c 128,-1,2
 313 503 313 503 391 482 c 1,3,-1
 348 340 l 1,4,5
 248 364 248 364 212 364 c 0,6,7
 190 364 190 364 187 346 c 0,8,9
 185 335 185 335 207 326 c 0,10,11
 284 296 284 296 319 258 c 0,12,13
 344 231 344 231 344 184 c 0,14,15
 344 166 344 166 340 144 c 0,16,17
 326 68 326 68 280.5 29 c 128,-1,18
 235 -10 235 -10 154.5 -10 c 128,-1,19
 74 -10 74 -10 -2 10 c 1,20,-1
 34 148 l 1,21,22
 129 120 129 120 160 120 c 0,23,24
 161 120 161 120 161 120 c 0,25,26
 191 120 191 120 193.5 135 c 128,-1,27
 196 150 196 150 176 158 c 0,28,29
 91 193 91 193 56 232 c 0,30,31
 30 260 30 260 30 308 c 0,32,33
 30 326 30 326 34 346 c 0,34,0
 47 420 47 420 100 461.5 c 128,-1,1
169 530 m 1,35,-1
 135 670 l 1,36,-1
 235 670 l 1,37,-1
 255 617 l 1,38,-1
 292 670 l 1,39,-1
 393 670 l 1,40,-1
 309 530 l 1,41,-1
 169 530 l 1,35,-1
EndSplineSet
EndChar

StartChar: Ydieresis
Encoding: 376 376 218
Width: 475
GlyphClass: 2
Flags: W
LayerCount: 2
Fore
SplineSet
517 636 m 1,0,-1
 289 197 l 1,1,-1
 254 0 l 1,2,-1
 80 0 l 1,3,-1
 115 197 l 1,4,-1
 42 636 l 1,5,-1
 235 636 l 1,6,-1
 245 429 l 1,7,-1
 253 429 l 1,8,-1
 333 636 l 1,9,-1
 517 636 l 1,0,-1
166 694 m 0,10,11
 156 706 156 706 155 724 c 0,12,13
 154 730 154 730 156 736 c 0,14,15
 160 762 160 762 179.5 777.5 c 128,-1,16
 199 793 199 793 227.5 793 c 128,-1,17
 256 793 256 793 270 778 c 0,18,19
 281 767 281 767 281 749 c 0,20,21
 281 743 281 743 280 736 c 0,22,23
 270 679 270 679 206 679 c 0,24,25
 180 678 180 678 166 694 c 0,10,11
330 694 m 0,26,27
 319 706 319 706 319 724 c 0,28,29
 318 730 318 730 320 736 c 0,30,31
 324 762 324 762 344 777.5 c 128,-1,32
 364 793 364 793 393 793 c 128,-1,33
 422 793 422 793 436 778 c 0,34,35
 446 767 446 767 446 750 c 0,36,37
 446 744 446 744 445 736 c 0,38,39
 440 710 440 710 421 694.5 c 128,-1,40
 402 679 402 679 373 678.5 c 128,-1,41
 344 678 344 678 330 694 c 0,26,27
EndSplineSet
EndChar

StartChar: Zcaron
Encoding: 381 381 219
Width: 462
GlyphClass: 2
Flags: W
LayerCount: 2
Fore
SplineSet
382 0 m 1,0,-1
 -36 0 l 1,1,-1
 -23 94 l 1,2,-1
 232 477 l 1,3,-1
 34 477 l 1,4,-1
 52 636 l 1,5,-1
 484 636 l 1,6,-1
 471 536 l 1,7,-1
 224 146 l 1,8,-1
 408 146 l 1,9,-1
 382 0 l 1,0,-1
223 668 m 1,10,-1
 191 800 l 1,11,-1
 286 800 l 1,12,-1
 304 751 l 1,13,-1
 340 800 l 1,14,-1
 436 800 l 1,15,-1
 356 668 l 1,16,-1
 223 668 l 1,10,-1
EndSplineSet
EndChar

StartChar: zcaron
Encoding: 382 382 220
Width: 402
GlyphClass: 2
Flags: W
LayerCount: 2
Fore
SplineSet
331 0 m 1,0,-1
 -36 0 l 1,1,-1
 -24 98 l 1,2,-1
 172 347 l 1,3,-1
 14 347 l 1,4,-1
 39 490 l 1,5,-1
 407 490 l 1,6,-1
 397 399 l 1,7,-1
 206 141 l 1,8,-1
 356 141 l 1,9,-1
 331 0 l 1,0,-1
171 530 m 1,10,-1
 137 670 l 1,11,-1
 237 670 l 1,12,-1
 257 617 l 1,13,-1
 295 670 l 1,14,-1
 395 670 l 1,15,-1
 312 530 l 1,16,-1
 171 530 l 1,10,-1
EndSplineSet
EndChar

StartChar: florin
Encoding: 402 402 221
Width: 377
GlyphClass: 2
Flags: W
LayerCount: 2
Fore
SplineSet
22 -151 m 0,0,1
 -20 -151 -20 -151 -64 -140 c 1,2,-1
 -31 6 l 1,3,4
 5 0 5 0 18 0 c 0,5,6
 28 0 28 0 33 15 c 2,7,-1
 114 332 l 1,8,-1
 56 332 l 1,9,-1
 83 433 l 1,10,-1
 140 433 l 1,11,-1
 159 508 l 2,12,13
 178 582 178 582 226.5 623 c 128,-1,14
 275 664 275 664 331.5 664 c 128,-1,15
 388 664 388 664 442 654 c 1,16,-1
 391 496 l 1,17,18
 352 505 352 505 343 505 c 128,-1,19
 334 505 334 505 330 492 c 2,20,-1
 314 433 l 1,21,-1
 375 433 l 1,22,-1
 347 332 l 1,23,-1
 287 332 l 1,24,-1
 204 7 l 2,25,26
 185 -69 185 -69 138.5 -110 c 128,-1,27
 92 -151 92 -151 22 -151 c 0,0,1
EndSplineSet
EndChar

StartChar: circumflex
Encoding: 710 710 222
Width: 512
GlyphClass: 2
Flags: W
LayerCount: 2
Fore
SplineSet
352 671 m 1,0,-1
 396 532 l 1,1,-1
 287 532 l 1,2,-1
 261 590 l 1,3,-1
 215 532 l 1,4,-1
 106 532 l 1,5,-1
 197 671 l 1,6,-1
 352 671 l 1,0,-1
EndSplineSet
EndChar

StartChar: caron
Encoding: 711 711 223
Width: 512
GlyphClass: 2
Flags: W
LayerCount: 2
Fore
SplineSet
174 530 m 1,0,-1
 139 670 l 1,1,-1
 239 670 l 1,2,-1
 259 617 l 1,3,-1
 297 670 l 1,4,-1
 397 670 l 1,5,-1
 315 530 l 1,6,-1
 174 530 l 1,0,-1
EndSplineSet
EndChar

StartChar: breve
Encoding: 728 728 224
Width: 512
GlyphClass: 2
Flags: W
LayerCount: 2
Fore
SplineSet
282 631 m 0,0,1
 310 631 310 631 317 679 c 1,2,-1
 429 679 l 1,3,4
 398 518 398 518 259 518 c 0,5,6
 143 518 143 518 143 630 c 0,7,8
 143 652 143 652 148 679 c 1,9,-1
 262 679 l 1,10,11
 260 668 260 668 260 660 c 0,12,13
 261 631 261 631 282 631 c 0,0,1
EndSplineSet
EndChar

StartChar: dotaccent
Encoding: 729 729 225
Width: 512
GlyphClass: 2
Flags: W
LayerCount: 2
Fore
SplineSet
173 584 m 0,0,1
 180 625 180 625 205 644.5 c 128,-1,2
 230 664 230 664 279 664 c 128,-1,3
 328 664 328 664 346 644 c 0,4,5
 359 630 359 630 359 606 c 0,6,7
 359 596 359 596 357 584 c 0,8,9
 350 544 350 544 325 525 c 128,-1,10
 300 506 300 506 251 506 c 128,-1,11
 202 506 202 506 184 524 c 0,12,13
 171 537 171 537 171 563 c 0,14,15
 171 573 171 573 173 584 c 0,0,1
EndSplineSet
EndChar

StartChar: ring
Encoding: 730 730 226
Width: 512
GlyphClass: 2
Flags: W
LayerCount: 2
Fore
SplineSet
210 665 m 0,0,1
 238 687 238 687 278 687 c 128,-1,2
 318 687 318 687 338 666 c 0,3,4
 353 650 353 650 353 626 c 0,5,6
 353 617 353 617 351 607 c 0,7,8
 344 569 344 569 317 547 c 128,-1,9
 290 525 290 525 250 525 c 0,10,11
 210 524 210 524 189 546 c 0,12,13
 173 562 173 562 173 588 c 0,14,15
 173 596 173 596 175 606 c 0,16,17
 182 644 182 644 210 665 c 0,0,1
268 637 m 0,18,19
 246 637 246 637 241 607 c 0,20,21
 240 602 240 602 240 597 c 0,22,23
 240 577 240 577 258 577 c 0,24,25
 280 577 280 577 286 607 c 0,26,27
 287 612 287 612 287 617 c 0,28,29
 286 637 286 637 268 637 c 0,18,19
EndSplineSet
EndChar

StartChar: ogonek
Encoding: 731 731 227
Width: 512
GlyphClass: 2
Flags: W
LayerCount: 2
Fore
SplineSet
178 -95 m 0,0,1
 186 -47 186 -47 253 0 c 1,2,-1
 339 0 l 1,3,4
 286 -51 286 -51 281 -76 c 0,5,6
 279 -85 279 -85 292 -85 c 128,-1,7
 305 -85 305 -85 328 -66 c 1,8,-1
 350 -123 l 1,9,10
 296 -167 296 -167 242 -167 c 0,11,12
 208 -167 208 -167 190 -149 c 0,13,14
 176 -135 176 -135 176 -112 c 0,15,16
 176 -104 176 -104 178 -95 c 0,0,1
EndSplineSet
EndChar

StartChar: tilde
Encoding: 732 732 228
Width: 512
GlyphClass: 2
Flags: W
LayerCount: 2
Fore
SplineSet
431 676 m 1,0,-1
 430 668 l 2,1,2
 418 602 418 602 394 568.5 c 128,-1,3
 370 535 370 535 315 535 c 0,4,5
 278 535 278 535 235 551 c 2,6,-1
 212 559 l 1,7,-1
 206 523 l 1,8,-1
 95 523 l 1,9,-1
 96 534 l 2,10,11
 108 601 108 601 133 634 c 128,-1,12
 158 667 158 667 208 667 c 0,13,14
 224 667 224 667 295 647 c 2,15,-1
 314 642 l 1,16,-1
 320 676 l 1,17,-1
 431 676 l 1,0,-1
EndSplineSet
EndChar

StartChar: hungarumlaut
Encoding: 733 733 229
Width: 512
GlyphClass: 2
Flags: W
LayerCount: 2
Fore
SplineSet
312 675 m 1,0,-1
 171 520 l 1,1,-1
 81 520 l 1,2,-1
 188 675 l 1,3,-1
 312 675 l 1,0,-1
476 675 m 1,4,-1
 325 520 l 1,5,-1
 233 520 l 1,6,-1
 341 675 l 1,7,-1
 476 675 l 1,4,-1
EndSplineSet
EndChar

StartChar: dotaccentcmb
Encoding: 775 775 230
Width: 512
GlyphClass: 2
Flags: W
LayerCount: 2
Fore
SplineSet
173 584 m 0,0,1
 180 625 180 625 205 644.5 c 128,-1,2
 230 664 230 664 279 664 c 128,-1,3
 328 664 328 664 346 644 c 0,4,5
 359 630 359 630 359 606 c 0,6,7
 359 596 359 596 357 584 c 0,8,9
 350 544 350 544 325 525 c 128,-1,10
 300 506 300 506 251 506 c 128,-1,11
 202 506 202 506 184 524 c 0,12,13
 171 537 171 537 171 563 c 0,14,15
 171 573 171 573 173 584 c 0,0,1
EndSplineSet
EndChar

StartChar: Delta
Encoding: 916 916 231
AltUni2: 002206.ffffffff.0 002206.ffffffff.0
Width: 509
GlyphClass: 2
Flags: W
LayerCount: 2
Fore
SplineSet
-48 0 m 1,0,-1
 183 636 l 1,1,-1
 441 636 l 1,2,-1
 446 0 l 1,3,-1
 -48 0 l 1,0,-1
173 154 m 1,4,-1
 277 154 l 1,5,-1
 280 443 l 1,6,-1
 271 443 l 1,7,-1
 173 154 l 1,4,-1
EndSplineSet
EndChar

StartChar: Omega
Encoding: 937 937 232
AltUni2: 002126.ffffffff.0 002126.ffffffff.0
Width: 563
GlyphClass: 2
Flags: W
LayerCount: 2
Fore
SplineSet
338 646 m 0,0,1
 545 646 545 646 544 453 c 0,2,3
 544 415 544 415 536 369 c 0,4,5
 523 294 523 294 493.5 241 c 128,-1,6
 464 188 464 188 415 140 c 1,7,-1
 414 136 l 1,8,-1
 497 136 l 1,9,-1
 473 0 l 1,10,-1
 241 0 l 1,11,-1
 263 126 l 1,12,13
 333 206 333 206 354 325 c 0,14,15
 365 387 365 387 365 422 c 0,16,17
 365 446 365 446 360 457 c 0,18,19
 348 485 348 485 306 485 c 0,20,21
 305 484 305 484 304 484 c 0,22,23
 260 484 260 484 240.5 447 c 128,-1,24
 221 410 221 410 204 314 c 0,25,26
 199 286 199 286 199 258 c 0,27,28
 199 191 199 191 228 127 c 1,29,-1
 206 0 l 1,30,-1
 -24 0 l 1,31,-1
 0 136 l 1,32,-1
 76 136 l 1,33,-1
 77 140 l 1,34,35
 35 214 35 214 35 303 c 0,36,37
 35 338 35 338 42 376 c 0,38,39
 90 646 90 646 338 646 c 0,0,1
EndSplineSet
EndChar

StartChar: pi
Encoding: 960 960 233
Width: 520
GlyphClass: 2
Flags: W
LayerCount: 2
Fore
SplineSet
425 0 m 1,0,-1
 251 0 l 1,1,-1
 312 345 l 1,2,-1
 241 345 l 1,3,-1
 180 0 l 1,4,-1
 8 0 l 1,5,-1
 69 345 l 1,6,-1
 31 345 l 1,7,-1
 56 485 l 1,8,-1
 550 485 l 1,9,-1
 525 345 l 1,10,-1
 486 345 l 1,11,-1
 425 0 l 1,0,-1
EndSplineSet
EndChar

StartChar: endash
Encoding: 8211 8211 234
Width: 439
GlyphClass: 2
Flags: W
LayerCount: 2
Fore
SplineSet
378 190 m 1,0,-1
 37 190 l 1,1,-1
 61 328 l 1,2,-1
 402 328 l 1,3,-1
 378 190 l 1,0,-1
EndSplineSet
EndChar

StartChar: emdash
Encoding: 8212 8212 235
Width: 654
GlyphClass: 2
Flags: W
LayerCount: 2
Fore
SplineSet
593 190 m 1,0,-1
 37 190 l 1,1,-1
 61 328 l 1,2,-1
 617 328 l 1,3,-1
 593 190 l 1,0,-1
EndSplineSet
EndChar

StartChar: quoteleft
Encoding: 8216 8216 236
Width: 242
GlyphClass: 2
Flags: W
LayerCount: 2
Fore
SplineSet
82 397 m 0,0,1
 4 397 4 397 4 464 c 0,2,3
 4 476 4 476 6 490 c 0,4,5
 22 583 22 583 167 664 c 1,6,-1
 223 641 l 1,7,-1
 145 558 l 1,8,-1
 146 553 l 1,9,10
 190 544 190 544 190 497 c 0,11,12
 190 488 190 488 188 478 c 0,13,14
 174 397 174 397 82 397 c 0,0,1
EndSplineSet
EndChar

StartChar: quoteright
Encoding: 8217 8217 237
Width: 242
GlyphClass: 2
Flags: W
LayerCount: 2
Fore
SplineSet
160 656 m 0,0,1
 237 656 237 656 237 589 c 0,2,3
 237 578 237 578 235 564 c 0,4,5
 219 472 219 472 76 390 c 1,6,-1
 20 413 l 1,7,-1
 97 496 l 1,8,-1
 96 501 l 1,9,10
 53 510 53 510 53 555 c 0,11,12
 53 564 53 564 55 575 c 0,13,14
 69 656 69 656 160 656 c 0,0,1
EndSplineSet
EndChar

StartChar: quotesinglbase
Encoding: 8218 8218 238
Width: 242
GlyphClass: 2
Flags: W
LayerCount: 2
Fore
SplineSet
160 144 m 0,0,1
 237 144 237 144 237 77 c 0,2,3
 237 66 237 66 235 52 c 0,4,5
 219 -40 219 -40 76 -122 c 1,6,-1
 20 -99 l 1,7,-1
 97 -16 l 1,8,-1
 96 -11 l 1,9,10
 53 -2 53 -2 53 43 c 0,11,12
 53 52 53 52 55 63 c 0,13,14
 69 144 69 144 160 144 c 0,0,1
EndSplineSet
EndChar

StartChar: quotedblleft
Encoding: 8220 8220 239
Width: 447
GlyphClass: 2
Flags: W
LayerCount: 2
Fore
SplineSet
286 397 m 0,0,1
 209 397 209 397 209 464 c 0,2,3
 210 476 210 476 212 490 c 0,4,5
 228 583 228 583 372 664 c 1,6,-1
 428 641 l 1,7,-1
 350 558 l 1,8,-1
 351 553 l 1,9,10
 394 544 394 544 394 499 c 0,11,12
 394 489 394 489 392 478 c 0,13,14
 377 397 377 397 286 397 c 0,0,1
82 397 m 0,15,16
 4 397 4 397 4 464 c 0,17,18
 4 476 4 476 6 490 c 0,19,20
 22 583 22 583 167 664 c 1,21,-1
 223 641 l 1,22,-1
 145 558 l 1,23,-1
 146 553 l 1,24,25
 190 544 190 544 190 497 c 0,26,27
 190 488 190 488 188 478 c 0,28,29
 174 397 174 397 82 397 c 0,15,16
EndSplineSet
EndChar

StartChar: quotedblright
Encoding: 8221 8221 240
Width: 447
GlyphClass: 2
Flags: W
LayerCount: 2
Fore
SplineSet
136 656 m 0,0,1
 213 656 213 656 213 589 c 0,2,3
 213 578 213 578 211 564 c 0,4,5
 195 472 195 472 52 390 c 1,6,-1
 -5 413 l 1,7,-1
 73 496 l 1,8,-1
 72 501 l 1,9,10
 29 510 29 510 29 555 c 0,11,12
 29 564 29 564 31 575 c 0,13,14
 45 656 45 656 136 656 c 0,0,1
340 656 m 0,15,16
 418 656 418 656 418 589 c 0,17,18
 418 578 418 578 416 564 c 0,19,20
 400 472 400 472 257 390 c 1,21,-1
 200 413 l 1,22,-1
 278 496 l 1,23,-1
 277 501 l 1,24,25
 233 510 233 510 233 556 c 0,26,27
 233 565 233 565 235 575 c 0,28,29
 248 656 248 656 340 656 c 0,15,16
EndSplineSet
EndChar

StartChar: quotedblbase
Encoding: 8222 8222 241
Width: 447
GlyphClass: 2
Flags: W
LayerCount: 2
Fore
SplineSet
160 144 m 0,0,1
 237 144 237 144 237 77 c 0,2,3
 237 66 237 66 235 52 c 0,4,5
 219 -40 219 -40 76 -122 c 1,6,-1
 20 -99 l 1,7,-1
 97 -16 l 1,8,-1
 96 -11 l 1,9,10
 53 -2 53 -2 53 43 c 0,11,12
 53 52 53 52 55 63 c 0,13,14
 69 144 69 144 160 144 c 0,0,1
365 144 m 0,15,16
 442 144 442 144 442 77 c 0,17,18
 442 66 442 66 440 52 c 0,19,20
 424 -40 424 -40 281 -122 c 1,21,-1
 225 -99 l 1,22,-1
 302 -16 l 1,23,-1
 301 -11 l 1,24,25
 258 -2 258 -2 258 43 c 0,26,27
 258 52 258 52 260 63 c 0,28,29
 274 144 274 144 365 144 c 0,15,16
EndSplineSet
EndChar

StartChar: dagger
Encoding: 8224 8224 242
Width: 414
GlyphClass: 2
Flags: W
LayerCount: 2
Fore
SplineSet
50 341 m 1,0,-1
 74 477 l 1,1,-1
 172 477 l 1,2,-1
 197 623 l 1,3,-1
 349 623 l 1,4,-1
 324 477 l 1,5,-1
 427 477 l 1,6,-1
 403 341 l 1,7,-1
 300 341 l 1,8,-1
 213 -153 l 1,9,-1
 61 -153 l 1,10,-1
 148 341 l 1,11,-1
 50 341 l 1,0,-1
EndSplineSet
EndChar

StartChar: daggerdbl
Encoding: 8225 8225 243
Width: 428
GlyphClass: 2
Flags: W
LayerCount: 2
Fore
SplineSet
-9 7 m 1,0,-1
 15 144 l 1,1,-1
 113 144 l 1,2,-1
 148 341 l 1,3,-1
 50 341 l 1,4,-1
 74 477 l 1,5,-1
 172 477 l 1,6,-1
 197 623 l 1,7,-1
 349 623 l 1,8,-1
 324 477 l 1,9,-1
 427 477 l 1,10,-1
 403 341 l 1,11,-1
 300 341 l 1,12,-1
 265 144 l 1,13,-1
 367 144 l 1,14,-1
 343 7 l 1,15,-1
 241 7 l 1,16,-1
 213 -153 l 1,17,-1
 61 -153 l 1,18,-1
 89 7 l 1,19,-1
 -9 7 l 1,0,-1
EndSplineSet
EndChar

StartChar: bullet
Encoding: 8226 8226 244
Width: 422
GlyphClass: 2
Flags: W
LayerCount: 2
Fore
SplineSet
191 175 m 0,0,1
 81 175 81 175 81 271 c 0,2,3
 81 288 81 288 84 308 c 0,4,5
 107 440 107 440 237 440 c 0,6,7
 343 440 343 440 343 345 c 0,8,9
 343 328 343 328 339 308 c 0,10,11
 316 176 316 176 191 175 c 0,0,1
EndSplineSet
EndChar

StartChar: ellipsis
Encoding: 8230 8230 245
Width: 800
GlyphClass: 2
Flags: W
LayerCount: 2
Fore
SplineSet
68 70 m 0,0,1
 75 111 75 111 100 131 c 128,-1,2
 125 151 125 151 172 151 c 128,-1,3
 219 151 219 151 237 131 c 0,4,5
 250 117 250 117 250 90 c 0,6,7
 250 80 250 80 248 68 c 0,8,9
 234 -11 234 -11 144 -11 c 0,10,11
 66 -11 66 -11 66 50 c 0,12,13
 66 59 66 59 68 70 c 0,0,1
308 70 m 0,14,15
 315 111 315 111 340 131 c 128,-1,16
 365 151 365 151 412 151 c 128,-1,17
 459 151 459 151 477 131 c 0,18,19
 490 117 490 117 490 90 c 0,20,21
 490 80 490 80 488 68 c 0,22,23
 474 -11 474 -11 384 -11 c 0,24,25
 306 -11 306 -11 306 50 c 0,26,27
 306 59 306 59 308 70 c 0,14,15
553 70 m 0,28,29
 560 111 560 111 585 131 c 128,-1,30
 610 151 610 151 657 151 c 128,-1,31
 704 151 704 151 722 131 c 0,32,33
 735 117 735 117 735 90 c 0,34,35
 735 80 735 80 733 68 c 0,36,37
 719 -11 719 -11 629 -11 c 0,38,39
 551 -11 551 -11 551 50 c 0,40,41
 551 59 551 59 553 70 c 0,28,29
EndSplineSet
EndChar

StartChar: perthousand
Encoding: 8240 8240 246
Width: 1160
GlyphClass: 2
Flags: W
LayerCount: 2
Fore
SplineSet
625 646 m 1,0,-1
 325 -10 l 1,1,-1
 205 -10 l 1,2,-1
 504 646 l 1,3,-1
 625 646 l 1,0,-1
244 413 m 2,4,-1
 246 424 l 2,5,6
 257 481 257 481 257 503 c 0,7,8
 256 526 256 526 248 534 c 128,-1,9
 240 542 240 542 226 541.5 c 128,-1,10
 212 541 212 541 203 533.5 c 128,-1,11
 194 526 194 526 188 508 c 0,12,13
 179 484 179 484 167 424 c 2,14,-1
 165 413 l 2,15,16
 154 349 154 349 154 325 c 0,17,18
 154 300 154 300 162 292 c 0,19,20
 168 286 168 286 183 286 c 128,-1,21
 198 286 198 286 207 292.5 c 128,-1,22
 216 299 216 299 223 319 c 0,23,24
 232 345 232 345 244 413 c 2,4,-1
360 417 m 0,25,26
 338 296 338 296 297 241 c 128,-1,27
 256 186 256 186 165 186 c 128,-1,28
 74 186 74 186 52 242 c 0,29,30
 40 270 40 270 40 315 c 0,31,32
 40 358 40 358 50 417 c 0,33,34
 72 537 72 537 113 591.5 c 128,-1,35
 154 646 154 646 245.5 646 c 128,-1,36
 337 646 337 646 359 592 c 0,37,38
 370 565 370 565 370 520 c 0,39,40
 371 477 371 477 360 417 c 0,25,26
665 216 m 2,41,-1
 667 227 l 2,42,43
 678 284 678 284 678 307 c 128,-1,44
 678 330 678 330 670 337 c 128,-1,45
 662 344 662 344 648 344 c 128,-1,46
 634 344 634 344 624 337 c 128,-1,47
 614 330 614 330 607 311 c 0,48,49
 599 287 599 287 588 227 c 2,50,-1
 586 216 l 2,51,52
 574 150 574 150 574 126 c 128,-1,53
 574 102 574 102 582 96 c 128,-1,54
 590 90 590 90 604.5 89.5 c 128,-1,55
 619 89 619 89 628 95.5 c 128,-1,56
 637 102 637 102 644 123 c 0,57,58
 653 148 653 148 665 216 c 2,41,-1
780 220 m 0,59,60
 758 99 758 99 717 44.5 c 128,-1,61
 676 -10 676 -10 585.5 -10 c 0,62,63
 494 -10 494 -10 472 45 c 0,64,65
 460 73 460 73 461 119 c 0,66,67
 461 162 461 162 471 220 c 0,68,69
 492 340 492 340 533.5 395 c 128,-1,70
 575 450 575 450 666 450 c 0,71,72
 758 450 758 450 780 396 c 0,73,74
 792 368 792 368 791 322 c 0,75,76
 791 279 791 279 780 220 c 0,59,60
995 216 m 2,77,-1
 997 227 l 2,78,79
 1008 284 1008 284 1008 307 c 128,-1,80
 1008 330 1008 330 1000 337 c 128,-1,81
 992 344 992 344 977.5 344 c 128,-1,82
 963 344 963 344 953.5 337 c 128,-1,83
 944 330 944 330 937 311 c 0,84,85
 929 287 929 287 918 227 c 2,86,-1
 916 216 l 2,87,88
 904 150 904 150 904 126 c 128,-1,89
 904 102 904 102 912 96 c 0,90,91
 919 90 919 90 934 89.5 c 128,-1,92
 949 89 949 89 958 95.5 c 128,-1,93
 967 102 967 102 974 123 c 0,94,95
 983 148 983 148 995 216 c 2,77,-1
1110 220 m 0,96,97
 1088 99 1088 99 1047 44.5 c 128,-1,98
 1006 -10 1006 -10 915.5 -10 c 0,99,100
 824 -10 824 -10 802 45 c 0,101,102
 790 73 790 73 791 119 c 0,103,104
 791 162 791 162 801 220 c 0,105,106
 822 340 822 340 863.5 395 c 128,-1,107
 905 450 905 450 996 450 c 128,-1,108
 1087 450 1087 450 1109 396 c 0,109,110
 1120 368 1120 368 1120 323 c 0,111,112
 1121 280 1121 280 1110 220 c 0,96,97
EndSplineSet
EndChar

StartChar: guilsinglleft
Encoding: 8249 8249 247
Width: 325
GlyphClass: 2
Flags: W
LayerCount: 2
Fore
SplineSet
19 212 m 1,0,-1
 30 275 l 1,1,-1
 248 488 l 1,2,-1
 314 427 l 1,3,-1
 174 248 l 1,4,-1
 252 69 l 1,5,-1
 156 4 l 1,6,-1
 19 212 l 1,0,-1
EndSplineSet
EndChar

StartChar: guilsinglright
Encoding: 8250 8250 248
Width: 324
GlyphClass: 2
Flags: W
LayerCount: 2
Fore
SplineSet
305 275 m 1,0,-1
 294 212 l 1,1,-1
 86 4 l 1,2,-1
 12 69 l 1,3,-1
 152 248 l 1,4,-1
 76 427 l 1,5,-1
 166 488 l 1,6,-1
 305 275 l 1,0,-1
EndSplineSet
EndChar

StartChar: fraction
Encoding: 8260 8260 249
Width: 369
GlyphClass: 2
Flags: W
LayerCount: 2
Fore
SplineSet
449 636 m 1,0,-1
 90 -151 l 1,1,-1
 -79 -151 l 1,2,-1
 279 636 l 1,3,-1
 449 636 l 1,0,-1
EndSplineSet
EndChar

StartChar: Euro
Encoding: 8364 8364 250
Width: 510
GlyphClass: 2
Flags: W
LayerCount: 2
Fore
SplineSet
44 426 m 1,0,-1
 105 426 l 1,1,2
 180 646 180 646 385 646 c 0,3,4
 463 646 463 646 527 613 c 1,5,-1
 471 455 l 1,6,7
 399 481 399 481 367 481 c 0,8,9
 366 481 366 481 365 481 c 0,10,11
 313 481 313 481 286 426 c 1,12,-1
 462 426 l 1,13,-1
 434 325 l 1,14,-1
 257 325 l 1,15,-1
 252 293 l 1,16,-1
 427 293 l 1,17,-1
 403 194 l 1,18,-1
 247 194 l 1,19,20
 255 145 255 145 308 144 c 0,21,22
 343 144 343 144 422 164 c 1,23,-1
 422 19 l 1,24,25
 339 -10 339 -10 259 -10 c 0,26,27
 256 -10 256 -10 254 -10 c 0,28,29
 66 -10 66 -10 65 194 c 1,30,-1
 3 194 l 1,31,-1
 21 293 l 1,32,-1
 76 293 l 1,33,-1
 81 325 l 1,34,-1
 26 325 l 1,35,-1
 44 426 l 1,0,-1
EndSplineSet
EndChar

StartChar: trademark
Encoding: 8482 8482 251
Width: 584
GlyphClass: 2
Flags: W
LayerCount: 2
Fore
SplineSet
250 551 m 1,0,-1
 191 551 l 1,1,-1
 144 287 l 1,2,-1
 56 287 l 1,3,-1
 103 551 l 1,4,-1
 41 551 l 1,5,-1
 61 636 l 1,6,-1
 271 636 l 1,7,-1
 250 551 l 1,0,-1
529 287 m 1,8,-1
 447 287 l 1,9,-1
 479 469 l 1,10,-1
 475 469 l 1,11,-1
 412 287 l 1,12,-1
 330 287 l 1,13,-1
 334 469 l 1,14,-1
 329 469 l 1,15,-1
 297 287 l 1,16,-1
 216 287 l 1,17,-1
 290 636 l 1,18,-1
 405 636 l 1,19,-1
 399 446 l 1,20,-1
 404 446 l 1,21,-1
 465 636 l 1,22,-1
 579 636 l 1,23,-1
 529 287 l 1,8,-1
EndSplineSet
EndChar

StartChar: partialdiff
Encoding: 8706 8706 252
Width: 479
GlyphClass: 2
Flags: W
LayerCount: 2
Fore
SplineSet
201 410 m 0,0,1
 240 410 240 410 276 403 c 1,2,-1
 280 407 l 1,3,4
 240 492 240 492 83 492 c 1,5,-1
 110 646 l 1,6,7
 460 646 460 646 460 368 c 0,8,9
 460 323 460 323 451 271 c 0,10,11
 426 129 426 129 359 59.5 c 128,-1,12
 292 -10 292 -10 173 -10 c 0,13,14
 -5 -10 -5 -10 -5 149 c 0,15,16
 -5 178 -5 178 1 213 c 0,17,18
 18 309 18 309 71.5 359.5 c 128,-1,19
 125 410 125 410 201 410 c 0,0,1
232 288 m 0,20,21
 206 288 206 288 193 266.5 c 0,22,23
 180 246 180 246 172 204 c 0,24,25
 168 181 168 181 168 164 c 0,26,27
 168 152 168 152 171 144 c 0,28,29
 177 126 177 126 203 125.5 c 128,-1,30
 229 125 229 125 241.5 147.5 c 128,-1,31
 254 170 254 170 261 213 c 0,32,33
 264 231 264 231 264 245 c 0,34,35
 264 288 264 288 232 288 c 0,20,21
EndSplineSet
EndChar

StartChar: product
Encoding: 8719 8719 253
Width: 590
GlyphClass: 2
Flags: W
LayerCount: 2
Fore
SplineSet
612 490 m 1,0,-1
 555 490 l 1,1,-1
 469 0 l 1,2,-1
 294 0 l 1,3,-1
 380 490 l 1,4,-1
 281 490 l 1,5,-1
 195 0 l 1,6,-1
 19 0 l 1,7,-1
 105 490 l 1,8,-1
 39 490 l 1,9,-1
 65 636 l 1,10,-1
 638 636 l 1,11,-1
 612 490 l 1,0,-1
EndSplineSet
EndChar

StartChar: summation
Encoding: 8721 8721 254
Width: 492
GlyphClass: 2
Flags: W
LayerCount: 2
Fore
SplineSet
498 477 m 1,0,-1
 328 477 l 1,1,-1
 408 344 l 1,2,-1
 400 297 l 1,3,-1
 254 146 l 1,4,-1
 450 146 l 1,5,-1
 424 0 l 1,6,-1
 -24 0 l 1,7,-1
 -9 116 l 1,8,-1
 183 314 l 1,9,-1
 49 511 l 1,10,-1
 75 631 l 1,11,-1
 526 631 l 1,12,-1
 498 477 l 1,0,-1
EndSplineSet
EndChar

StartChar: minus
Encoding: 8722 8722 255
Width: 493
GlyphClass: 2
Flags: W
LayerCount: 2
Fore
SplineSet
429 237 m 1,0,-1
 42 237 l 1,1,-1
 64 366 l 1,2,-1
 451 366 l 1,3,-1
 429 237 l 1,0,-1
EndSplineSet
EndChar

StartChar: radical
Encoding: 8730 8730 256
Width: 612
GlyphClass: 2
Flags: W
LayerCount: 2
Fore
SplineSet
252 114 m 1,0,-1
 542 852 l 1,1,-1
 913 852 l 1,2,-1
 870 714 l 1,3,-1
 659 714 l 1,4,-1
 292 -133 l 1,5,-1
 101 -133 l 1,6,-1
 38 490 l 1,7,-1
 225 490 l 1,8,-1
 238 114 l 1,9,-1
 252 114 l 1,0,-1
EndSplineSet
EndChar

StartChar: infinity
Encoding: 8734 8734 257
Width: 683
GlyphClass: 2
Flags: W
LayerCount: 2
Fore
SplineSet
235 469 m 0,0,1
 318 469 318 469 355 390 c 1,2,-1
 359 390 l 1,3,4
 424 469 424 469 513 469 c 0,5,6
 586 468 586 468 620 418 c 0,7,8
 643 384 643 384 643 330 c 0,9,10
 643 305 643 305 638 275 c 0,11,12
 622 182 622 182 570 131.5 c 128,-1,13
 518 81 518 81 445 81 c 0,14,15
 358 81 358 81 323 163 c 1,16,-1
 318 163 l 1,17,18
 248 81 248 81 171.5 81 c 0,19,20
 96 81 96 81 62 131 c 0,21,22
 40 165 40 165 39 217 c 0,23,24
 38 243 38 243 44 273 c 0,25,26
 60 365 60 365 112 417 c 128,-1,27
 164 469 164 469 235 469 c 0,0,1
285 274 m 1,28,29
 260 344 260 344 222.5 344 c 128,-1,30
 185 344 185 344 173 274 c 0,31,32
 170 257 170 257 170 245 c 0,33,34
 170 205 170 205 198 205 c 0,35,36
 199 205 199 205 199 205 c 0,37,38
 240 205 240 205 285 274 c 1,28,29
483 344 m 0,39,40
 466 344 466 344 442.5 324.5 c 128,-1,41
 419 305 419 305 397 272 c 1,42,43
 418 205 418 205 458 205 c 0,44,45
 459 205 459 205 459 205 c 0,46,47
 497 204 497 204 509 274 c 0,48,49
 512 291 512 291 512 304 c 0,50,51
 512 344 512 344 483 344 c 0,39,40
EndSplineSet
EndChar

StartChar: integral
Encoding: 8747 8747 258
Width: 451
GlyphClass: 2
Flags: W
LayerCount: 2
Fore
SplineSet
116 171 m 2,0,-1
 212 606 l 2,1,2
 239 727 239 727 310.5 791 c 128,-1,3
 382 855 382 855 515 855 c 2,4,-1
 575 855 l 1,5,-1
 544 722 l 1,6,7
 464 722 464 722 431 686.5 c 128,-1,8
 398 651 398 651 379 565 c 2,9,-1
 277 106 l 2,10,11
 247 -31 247 -31 177.5 -88 c 128,-1,12
 108 -145 108 -145 -41 -145 c 2,13,-1
 -96 -145 l 1,14,15
 -89 -115 -89 -115 -76 -69.5 c 128,-1,16
 -63 -24 -63 -24 -56 1 c 1,17,18
 -22 2 -22 2 1.5 5 c 128,-1,19
 25 8 25 8 43 19 c 128,-1,20
 61 30 61 30 70.5 38.5 c 128,-1,21
 80 47 80 47 89 72 c 0,22,23
 102 108 102 108 116 171 c 2,0,-1
EndSplineSet
EndChar

StartChar: approxequal
Encoding: 8776 8776 259
Width: 503
GlyphClass: 2
Flags: W
LayerCount: 2
Fore
SplineSet
461 269 m 1,0,-1
 458 256 l 2,1,2
 445 183 445 183 413.5 144 c 128,-1,3
 382 105 382 105 306 105 c 0,4,5
 261 105 261 105 180 134 c 1,6,-1
 174 99 l 1,7,-1
 17 99 l 1,8,-1
 19 114 l 2,9,10
 32 188 32 188 65.5 225.5 c 128,-1,11
 99 263 99 263 167 263 c 0,12,13
 203 263 203 263 298 234 c 1,14,-1
 304 269 l 1,15,-1
 461 269 l 1,0,-1
487 465 m 1,16,-1
 485 452 l 2,17,18
 472 379 472 379 439.5 340 c 128,-1,19
 407 301 407 301 332 301 c 0,20,21
 287 301 287 301 206 330 c 1,22,-1
 200 295 l 1,23,-1
 43 295 l 1,24,-1
 46 309 l 2,25,26
 59 383 59 383 92 421.5 c 128,-1,27
 125 460 125 460 193 460 c 0,28,29
 227 460 227 460 324 431 c 1,30,-1
 330 465 l 1,31,-1
 487 465 l 1,16,-1
EndSplineSet
EndChar

StartChar: notequal
Encoding: 8800 8800 260
Width: 464
GlyphClass: 2
Flags: W
LayerCount: 2
Fore
SplineSet
379 93 m 1,0,-1
 221 93 l 1,1,-1
 161 -27 l 1,2,-1
 6 -27 l 1,3,-1
 66 93 l 1,4,-1
 24 93 l 1,5,-1
 49 232 l 1,6,-1
 137 232 l 1,7,-1
 171 300 l 1,8,-1
 61 300 l 1,9,-1
 85 439 l 1,10,-1
 241 439 l 1,11,-1
 304 562 l 1,12,-1
 458 562 l 1,13,-1
 396 439 l 1,14,-1
 440 439 l 1,15,-1
 416 300 l 1,16,-1
 325 300 l 1,17,-1
 292 232 l 1,18,-1
 404 232 l 1,19,-1
 379 93 l 1,0,-1
EndSplineSet
EndChar

StartChar: lessequal
Encoding: 8804 8804 261
Width: 485
GlyphClass: 2
Flags: W
LayerCount: 2
Fore
SplineSet
410 161 m 1,0,-1
 49 306 l 1,1,-1
 77 464 l 1,2,-1
 490 614 l 1,3,-1
 461 451 l 1,4,-1
 223 386 l 1,5,-1
 439 324 l 1,6,-1
 410 161 l 1,0,-1
382 0 m 1,7,-1
 -5 0 l 1,8,-1
 18 130 l 1,9,-1
 405 130 l 1,10,-1
 382 0 l 1,7,-1
EndSplineSet
EndChar

StartChar: greaterequal
Encoding: 8805 8805 262
Width: 485
GlyphClass: 2
Flags: W
LayerCount: 2
Fore
SplineSet
436 306 m 1,0,-1
 23 161 l 1,1,-1
 52 324 l 1,2,-1
 290 386 l 1,3,-1
 74 451 l 1,4,-1
 103 614 l 1,5,-1
 464 464 l 1,6,-1
 436 306 l 1,0,-1
382 0 m 1,7,-1
 -5 0 l 1,8,-1
 18 130 l 1,9,-1
 405 130 l 1,10,-1
 382 0 l 1,7,-1
EndSplineSet
EndChar

StartChar: lozenge
Encoding: 9674 9674 263
Width: 590
GlyphClass: 2
Flags: W
LayerCount: 2
Fore
SplineSet
554 305 m 1,0,-1
 295 -58 l 1,1,-1
 175 -58 l 1,2,-1
 47 305 l 1,3,-1
 305 669 l 1,4,-1
 423 669 l 1,5,-1
 554 305 l 1,0,-1
395 305 m 1,6,-1
 334 499 l 1,7,-1
 207 305 l 1,8,-1
 266 111 l 1,9,-1
 395 305 l 1,6,-1
EndSplineSet
EndChar

StartChar: ff
Encoding: 64256 64256 264
Width: 566
GlyphClass: 2
Flags: W
LayerCount: 2
Fore
SplineSet
518 671 m 0,0,1
 581 671 581 671 650 665 c 1,2,-1
 610 515 l 1,3,4
 565 520 565 520 543.5 520 c 128,-1,5
 522 520 522 520 518 502 c 2,6,-1
 514 476 l 1,7,-1
 598 476 l 1,8,-1
 567 349 l 1,9,-1
 494 349 l 1,10,-1
 433 0 l 1,11,-1
 262 0 l 1,12,-1
 323 349 l 1,13,-1
 227 349 l 1,14,-1
 166 0 l 1,15,-1
 -5 0 l 1,16,-1
 56 349 l 1,17,-1
 11 349 l 1,18,-1
 34 476 l 1,19,-1
 79 476 l 1,20,-1
 89 535 l 2,21,22
 113 671 113 671 252 671 c 0,23,24
 289 671 289 671 355 667 c 1,25,-1
 317 517 l 1,26,27
 284 520 284 520 275 520 c 0,28,29
 257 520 257 520 252 502 c 2,30,-1
 248 476 l 1,31,-1
 346 476 l 1,32,-1
 356 535 l 2,33,34
 380 671 380 671 518 671 c 0,0,1
EndSplineSet
EndChar

StartChar: fi
Encoding: 64257 64257 265
Width: 523
GlyphClass: 2
Flags: W
LayerCount: 2
Fore
SplineSet
252 664 m 0,0,1
 299 664 299 664 355 659 c 1,2,-1
 316 510 l 1,3,4
 281 513 281 513 274 513 c 0,5,6
 256 513 256 513 252 495 c 2,7,-1
 248 476 l 1,8,-1
 514 476 l 1,9,-1
 430 0 l 1,10,-1
 262 0 l 1,11,-1
 324 349 l 1,12,-1
 228 349 l 1,13,-1
 166 0 l 1,14,-1
 -5 0 l 1,15,-1
 57 349 l 1,16,-1
 12 349 l 1,17,-1
 34 476 l 1,18,-1
 79 476 l 1,19,-1
 88 527 l 2,20,21
 114 664 114 664 252 664 c 0,0,1
356 584 m 0,22,23
 364 625 364 625 389 644.5 c 128,-1,24
 414 664 414 664 463.5 664 c 128,-1,25
 513 664 513 664 531 644 c 0,26,27
 544 630 544 630 544 607 c 0,28,29
 544 596 544 596 542 584 c 0,30,31
 534 544 534 544 509.5 525 c 128,-1,32
 485 506 485 506 435.5 506 c 128,-1,33
 386 506 386 506 368 524 c 0,34,35
 355 537 355 537 354 562 c 0,36,37
 354 572 354 572 356 584 c 0,22,23
EndSplineSet
EndChar

StartChar: fl
Encoding: 64258 64258 266
Width: 528
GlyphClass: 2
Flags: W
LayerCount: 2
Fore
SplineSet
253 671 m 0,0,1
 308 671 308 671 356 667 c 1,2,-1
 318 517 l 1,3,4
 283 520 283 520 275 520 c 0,5,6
 257 520 257 520 253 502 c 2,7,-1
 249 476 l 1,8,-1
 347 476 l 1,9,-1
 378 656 l 1,10,-1
 546 656 l 1,11,-1
 460 167 l 2,12,13
 457 150 457 150 464 142.5 c 128,-1,14
 471 135 471 135 490 135 c 1,15,-1
 451 -10 l 1,16,-1
 395 -10 l 2,17,18
 327 -10 327 -10 299 18 c 0,19,20
 279 38 279 38 279 76 c 0,21,22
 279 93 279 93 283 113 c 2,23,-1
 324 349 l 1,24,-1
 228 349 l 1,25,-1
 167 0 l 1,26,-1
 -4 0 l 1,27,-1
 57 349 l 1,28,-1
 12 349 l 1,29,-1
 35 476 l 1,30,-1
 80 476 l 1,31,-1
 90 535 l 2,32,33
 115 671 115 671 253 671 c 0,0,1
EndSplineSet
EndChar

StartChar: ffi
Encoding: 64259 64259 267
Width: 783
GlyphClass: 2
Flags: W
LayerCount: 2
Fore
SplineSet
518 671 m 0,0,1
 565 671 565 671 621 667 c 1,2,-1
 583 517 l 1,3,4
 548 520 548 520 541 520 c 0,5,6
 523 520 523 520 518 502 c 2,7,-1
 514 476 l 1,8,-1
 781 476 l 1,9,-1
 697 0 l 1,10,-1
 528 0 l 1,11,-1
 589 349 l 1,12,-1
 494 349 l 1,13,-1
 433 0 l 1,14,-1
 262 0 l 1,15,-1
 323 349 l 1,16,-1
 227 349 l 1,17,-1
 166 0 l 1,18,-1
 -5 0 l 1,19,-1
 56 349 l 1,20,-1
 11 349 l 1,21,-1
 34 476 l 1,22,-1
 79 476 l 1,23,-1
 89 535 l 2,24,25
 113 671 113 671 252 671 c 0,26,27
 289 671 289 671 355 667 c 1,28,-1
 317 517 l 1,29,30
 284 520 284 520 275 520 c 0,31,32
 257 520 257 520 252 502 c 2,33,-1
 248 476 l 1,34,-1
 346 476 l 1,35,-1
 356 535 l 2,36,37
 380 671 380 671 518 671 c 0,0,1
617 590 m 0,38,39
 624 631 624 631 649 650.5 c 128,-1,40
 674 670 674 670 723.5 670 c 128,-1,41
 773 670 773 670 791 650 c 0,42,43
 804 636 804 636 804 612 c 0,44,45
 804 602 804 602 802 590 c 0,46,47
 795 550 795 550 770 531 c 128,-1,48
 745 512 745 512 695.5 512 c 128,-1,49
 646 512 646 512 628 530 c 0,50,51
 615 543 615 543 615 569 c 0,52,53
 615 579 615 579 617 590 c 0,38,39
EndSplineSet
EndChar

StartChar: ffl
Encoding: 64260 64260 268
Width: 794
GlyphClass: 2
Flags: W
LayerCount: 2
Fore
SplineSet
519 671 m 0,0,1
 574 671 574 671 622 667 c 1,2,-1
 584 517 l 1,3,4
 549 520 549 520 541 520 c 0,5,6
 523 520 523 520 519 502 c 2,7,-1
 515 476 l 1,8,-1
 613 476 l 1,9,-1
 644 656 l 1,10,-1
 813 656 l 1,11,-1
 727 167 l 2,12,13
 724 150 724 150 730.5 142.5 c 128,-1,14
 737 135 737 135 757 135 c 1,15,-1
 717 -10 l 1,16,-1
 661 -10 l 2,17,18
 593 -10 593 -10 565 18 c 0,19,20
 545 38 545 38 545 76 c 0,21,22
 545 93 545 93 549 113 c 2,23,-1
 590 349 l 1,24,-1
 495 349 l 1,25,-1
 434 0 l 1,26,-1
 263 0 l 1,27,-1
 324 349 l 1,28,-1
 228 349 l 1,29,-1
 167 0 l 1,30,-1
 -4 0 l 1,31,-1
 57 349 l 1,32,-1
 12 349 l 1,33,-1
 35 476 l 1,34,-1
 80 476 l 1,35,-1
 90 535 l 2,36,37
 114 671 114 671 253 671 c 0,38,39
 290 671 290 671 356 667 c 1,40,-1
 318 517 l 1,41,42
 285 520 285 520 275 520 c 0,43,44
 257 520 257 520 253 502 c 2,45,-1
 249 476 l 1,46,-1
 347 476 l 1,47,-1
 357 535 l 2,48,49
 381 671 381 671 519 671 c 0,0,1
EndSplineSet
EndChar

StartChar: uniE021
Encoding: 57377 57377 269
Width: 658
Flags: W
LayerCount: 2
Fore
SplineSet
188 590 m 1,0,1
 188 590 188 590 54 590 c 1,2,-1
 74 704 l 1,3,-1
 708 704 l 1,4,-1
 688 589 l 1,5,-1
 512 589 l 2,6,-1
 537 586 l 0,7,8
 553 584 553 584 581 552 c 0,9,10
 603 527 603 527 603 485 c 0,11,12
 603 470 603 470 600 452 c 0,13,14
 592 405 592 405 568 363 c 0,15,16
 548 328 548 328 512 308 c 0,17,18
 456 275 456 275 438 275 c 2,19,20
 438 275 438 275 430 275 c 1,21,-1
 566 0 l 1,22,-1
 424 0 l 1,23,-1
 307 268 l 1,24,-1
 245 268 l 1,25,-1
 196 0 l 1,26,-1
 82 0 l 1,27,-1
 188 590 l 1,0,1
399 370 m 16,28,29
 427 378 427 378 451 407 c 0,30,31
 469 430 469 430 475 456 c 0,32,33
 477 465 477 465 477 474 c 0,34,35
 477 507 477 507 451 524 c 0,36,37
 418 544 418 544 363 544 c 2,38,-1
 294 544 l 1,39,-1
 261 357 l 1,40,41
 266 357 266 357 272 357 c 10,42,43
 352 357 352 357 399 370 c 16,28,29
EndSplineSet
EndChar

StartChar: uniE022
Encoding: 57378 57378 270
Width: 739
Flags: W
LayerCount: 2
Fore
SplineSet
792 704 m 17,0,-1
 772 590 l 1,1,-1
 558 590 l 1,2,3
 589 586 589 586 589 586 c 2,4,5
 615 583 615 583 662 524 c 0,6,7
 698 477 698 477 698 400 c 0,8,9
 698 367 698 367 691 327 c 0,10,11
 674 230 674 230 612 148 c 0,12,13
 557 74 557 74 476 37 c 0,14,15
 397 0 397 0 279 0 c 2,16,17
 279 0 279 0 129 0 c 1,18,-1
 176 262 l 1,19,-1
 60 262 l 1,20,-1
 98 357 l 1,21,-1
 192 357 l 1,22,23
 192 358 192 358 204 420 c 1,24,-1
 88 420 l 1,25,-1
 126 515 l 1,26,-1
 220 515 l 1,27,-1
 233 590 l 1,28,-1
 65 590 l 1,29,30
 70 610 70 610 74 638 c 0,31,32
 76 647 76 647 78 657 c 0,33,34
 82 677 82 677 85 701 c 9,35,-1
 792 704 l 17,0,-1
269 117 m 1,36,-1
 305 118 l 2,37,38
 358 119 358 119 416 145 c 0,39,40
 472 169 472 169 512 218 c 0,41,42
 545 258 545 258 558 332 c 0,43,44
 564 365 564 365 564 393 c 0,45,46
 564 462 564 462 526 490 c 0,47,48
 454 544 454 544 384 544 c 0,49,50
 384 544 384 544 382 544 c 0,51,52
 370 544 370 544 359 544 c 2,53,54
 351 544 351 544 344 544 c 1,55,-1
 339 515 l 1,56,-1
 406 515 l 1,57,58
 368 420 368 420 368 420 c 1,59,-1
 322 420 l 1,60,-1
 311 357 l 1,61,-1
 378 357 l 1,62,63
 378 356 378 356 340 262 c 1,64,-1
 294 262 l 1,65,-1
 269 117 l 1,36,-1
EndSplineSet
EndChar

StartChar: uniE023
Encoding: 57379 57379 271
Width: 834
Flags: W
LayerCount: 2
Fore
SplineSet
217 524 m 0,0,1
 217 524 217 524 266 524 c 1,2,3
 214 445 214 445 185 414 c 1,4,-1
 289 414 l 1,5,-1
 376 590 l 1,6,-1
 65 590 l 1,7,-1
 85 704 l 1,8,-1
 873 704 l 1,9,-1
 853 590 l 1,10,-1
 562 590 l 1,11,-1
 584 414 l 1,12,-1
 678 414 l 1,13,14
 660 442 660 442 635 524 c 1,15,-1
 687 524 l 1,16,17
 692 518 692 518 708 495.5 c 128,-1,18
 724 473 724 473 732 463.5 c 128,-1,19
 740 454 740 454 753.5 439.5 c 128,-1,20
 767 425 767 425 779.5 415.5 c 128,-1,21
 792 406 792 406 804 399 c 1,22,-1
 802 386 l 1,23,-1
 796 352 l 1,24,25
 726 310 726 310 633 220 c 1,26,-1
 611 220 l 1,27,-1
 657 0 l 1,28,-1
 542 0 l 9,29,-1
 492 326 l 16,30,31
 492 326 492 326 347 326 c 1,32,-1
 194 0 l 1,33,-1
 84 0 l 1,34,-1
 196 220 l 1,35,-1
 170 220 l 1,36,37
 121 304 121 304 38 352 c 1,38,-1
 46 399 l 1,39,40
 134 443 134 443 217 524 c 0,0,1
604 261 m 1,41,42
 628 296 628 296 659 326 c 1,43,-1
 592 327 l 1,44,-1
 604 261 l 1,41,42
211 258 m 1,45,-1
 244 328 l 1,46,-1
 176 328 l 1,47,48
 194 308 194 308 211 258 c 1,45,-1
467 580 m 1,49,50
 466 580 466 580 395 414 c 1,51,-1
 477 414 l 1,52,-1
 467 580 l 1,49,50
EndSplineSet
EndChar

StartChar: uniE024
Encoding: 57380 57380 272
Width: 993
Flags: W
LayerCount: 2
Fore
SplineSet
462 500 m 0,0,1
 463 501 463 501 607 738 c 1,2,-1
 745 738 l 1,3,-1
 627 546 l 1,4,-1
 717 571 l 1,5,6
 717 578 717 578 718 585 c 0,7,8
 724 618 724 618 776 662 c 0,9,10
 823 702 823 702 879.5 702 c 128,-1,11
 936 702 936 702 969 662 c 0,12,13
 994 631 994 631 994 591 c 0,14,15
 994 579 994 579 992 566 c 0,16,17
 982 510 982 510 935 470 c 0,18,19
 887 430 887 430 831 430 c 0,20,21
 770 430 770 430 744 465 c 0,22,23
 740 474 740 474 735 480 c 1,24,-1
 557 430 l 1,25,-1
 467 284 l 1,26,-1
 668 219 l 1,27,28
 676 232 676 232 697 249 c 0,29,30
 744 289 744 289 799 289 c 0,31,32
 800 288 800 288 800 288 c 0,33,34
 856 288 856 288 890 248 c 0,35,36
 915 218 915 218 915 180 c 0,37,38
 915 179 915 179 915 177 c 0,39,40
 915 165 915 165 913 152 c 0,41,42
 903 96 903 96 856 56 c 0,43,44
 808 16 808 16 752 16 c 0,45,46
 694 16 694 16 663 55 c 0,47,48
 637 90 637 90 636 120 c 1,49,-1
 413 194 l 1,50,-1
 295 0 l 1,51,-1
 157 0 l 1,52,-1
 299 232 l 1,53,-1
 244 250 l 1,54,55
 240 242 240 242 211 218 c 0,56,57
 178 190 178 190 117 190 c 0,58,59
 60 190 60 190 28 230 c 0,60,61
 3 261 3 261 3 301 c 0,62,63
 3 313 3 313 5 327 c 0,64,65
 15 383 15 383 62 423.5 c 128,-1,66
 109 464 109 464 166 464 c 0,67,68
 234 464 234 464 243 448 c 0,69,70
 245 444 245 444 249 440 c 1,71,72
 396 481 396 481 462 500 c 0,0,1
800 566 m 0,73,74
 799 561 799 561 799 556 c 0,75,76
 799 538 799 538 810 525 c 0,77,78
 824 508 824 508 848.5 508 c 128,-1,79
 873 508 873 508 893 525 c 128,-1,80
 913 542 913 542 917 566 c 0,81,82
 918 571 918 571 918 577 c 0,83,84
 918 595 918 595 907 608 c 0,85,86
 893 625 893 625 868.5 625 c 128,-1,87
 844 625 844 625 824 607.5 c 128,-1,88
 804 590 804 590 800 566 c 0,73,74
722 150 m 0,89,90
 721 144 721 144 721 139 c 0,91,92
 721 122 721 122 732 109 c 0,93,94
 746 92 746 92 770.5 92 c 128,-1,95
 795 92 795 92 815 109 c 0,96,97
 836 126 836 126 840 150 c 0,98,99
 841 156 841 156 841 161 c 0,100,101
 841 178 841 178 830 191 c 0,102,103
 816 208 816 208 791.5 208 c 128,-1,104
 767 208 767 208 746.5 191 c 128,-1,105
 726 174 726 174 722 150 c 0,89,90
86 328 m 0,106,107
 85 323 85 323 85 318 c 0,108,109
 85 301 85 301 96 287 c 0,110,111
 110 270 110 270 134.5 270 c 128,-1,112
 159 270 159 270 179 287 c 128,-1,113
 199 304 199 304 203 328 c 0,114,115
 204 333 204 333 204 338 c 0,116,117
 204 355 204 355 193 369 c 0,118,119
 179 386 179 386 154.5 386 c 128,-1,120
 130 386 130 386 110 369 c 128,-1,121
 90 352 90 352 86 328 c 0,106,107
393 385 m 1,122,123
 393 385 393 385 280 354 c 1,124,125
 280 349 280 349 280 344 c 1,126,-1
 353 320 l 1,127,-1
 393 385 l 1,122,123
EndSplineSet
EndChar

StartChar: uniE025
Encoding: 57381 57381 273
Width: 977
Flags: W
LayerCount: 2
Fore
SplineSet
86 328 m 0,0,1
 85 323 85 323 85 318 c 0,2,3
 85 301 85 301 96 287 c 0,4,5
 110 270 110 270 134.5 270 c 128,-1,6
 159 270 159 270 179 287 c 128,-1,7
 199 304 199 304 203 328 c 0,8,9
 204 333 204 333 204 338 c 0,10,11
 204 355 204 355 193 369 c 0,12,13
 179 386 179 386 154.5 386 c 128,-1,14
 130 386 130 386 110 369 c 128,-1,15
 90 352 90 352 86 328 c 0,0,1
734 150 m 0,16,17
 733 144 733 144 733 139 c 0,18,19
 733 122 733 122 744 109 c 0,20,21
 758 92 758 92 782.5 92 c 128,-1,22
 807 92 807 92 827 109 c 0,23,24
 848 126 848 126 852 150 c 0,25,26
 853 156 853 156 853 161 c 0,27,28
 853 178 853 178 842 191 c 0,29,30
 828 208 828 208 803.5 208 c 128,-1,31
 779 208 779 208 758.5 191 c 128,-1,32
 738 174 738 174 734 150 c 0,16,17
812 566 m 0,33,34
 811 561 811 561 811 556 c 0,35,36
 811 538 811 538 822 525 c 0,37,38
 836 508 836 508 860.5 508 c 128,-1,39
 885 508 885 508 905 525 c 128,-1,40
 925 542 925 542 929 566 c 0,41,42
 930 571 930 571 930 577 c 0,43,44
 930 595 930 595 919 608 c 0,45,46
 905 625 905 625 880.5 625 c 128,-1,47
 856 625 856 625 836 607.5 c 128,-1,48
 816 590 816 590 812 566 c 0,33,34
747 480 m 16,49,50
 747 480 747 480 506 414 c 1,51,52
 525 408 525 408 525 408 c 0,53,54
 544 402 544 402 579 382 c 0,55,56
 611 362 611 362 621 352 c 0,57,58
 637 332 637 332 647 316 c 0,59,60
 659 292 659 292 662 266 c 0,61,62
 665 237 665 237 665 224 c 1,63,-1
 680 219 l 1,64,65
 688 232 688 232 709 249 c 0,66,67
 756 289 756 289 811 289 c 0,68,69
 812 288 812 288 812 288 c 0,70,71
 868 288 868 288 902 248 c 0,72,73
 927 218 927 218 927 180 c 0,74,75
 927 179 927 179 927 177 c 0,76,77
 927 165 927 165 925 152 c 0,78,79
 915 96 915 96 868 56 c 0,80,81
 820 16 820 16 764 16 c 0,82,83
 706 16 706 16 675 55 c 0,84,85
 649 90 649 90 648 120 c 1,86,-1
 638 122 l 1,87,88
 616 78 616 78 574 44 c 0,89,90
 509 -10 509 -10 393 -10 c 0,91,92
 181 -10 181 -10 181 167 c 0,93,94
 181 169 181 169 181 170 c 1,95,-1
 287 188 l 1,96,97
 294 140 294 140 327 110 c 0,98,99
 327 109 327 109 327 108 c 0,100,101
 327 88 327 88 396 88 c 0,102,103
 400 88 400 88 403 88 c 8,104,105
 456 89 456 89 507 112 c 16,106,107
 530 122 530 122 544 153 c 1,108,-1
 244 250 l 1,109,110
 240 242 240 242 212 218 c 0,111,112
 179 190 179 190 118 190 c 0,113,114
 62 190 62 190 28 230 c 0,115,116
 3 260 3 260 3 299 c 0,117,118
 3 301 3 301 3 302 c 0,119,120
 3 314 3 314 5 327 c 0,121,122
 15 384 15 384 62 424 c 128,-1,123
 109 464 109 464 166 464 c 0,124,125
 232 464 232 464 243 448 c 0,126,127
 245 444 245 444 249 440 c 1,128,-1
 272 446 l 1,129,130
 271 458 271 458 271 472 c 0,131,132
 271 495 271 495 275 522 c 0,133,134
 293 624 293 624 357 678 c 0,135,136
 435 744 435 744 512 745 c 0,137,138
 612 745 612 745 655 715 c 128,-1,139
 698 685 698 685 703 590 c 1,140,-1
 585 570 l 1,141,142
 582 612 582 612 557.5 624 c 128,-1,143
 533 636 533 636 493 636 c 0,144,145
 467 636 467 636 428 606 c 0,146,147
 405 589 405 589 393 546 c 0,148,149
 391 532 391 532 389 522 c 0,150,151
 386 505 386 505 386 495 c 0,152,153
 386 487 386 487 388 483 c 0,154,155
 389 480 389 480 389 478 c 1,156,-1
 729 571 l 1,157,158
 729 578 729 578 730 585 c 0,159,160
 736 618 736 618 788 662 c 0,161,162
 835 702 835 702 891.5 702 c 128,-1,163
 948 702 948 702 981 662 c 0,164,165
 1006 631 1006 631 1006 591 c 0,166,167
 1006 579 1006 579 1004 566 c 0,168,169
 994 510 994 510 947 470 c 0,170,171
 899 430 899 430 843 430 c 0,172,173
 781 430 781 430 756 465 c 8,174,175
 749 477 749 477 747 480 c 16,49,50
533 265 m 1,176,177
 531 268 531 268 529 270 c 0,178,179
 508 289 508 289 489 296 c 0,180,181
 448 312 448 312 431 318 c 0,182,183
 399 328 399 328 346 355 c 0,184,185
 335 362 335 362 324 366 c 1,186,-1
 281 354 l 1,187,188
 281 349 281 349 280 344 c 1,189,-1
 533 265 l 1,176,177
EndSplineSet
EndChar

StartChar: uniE026
Encoding: 57382 57382 274
Width: 880
Flags: W
LayerCount: 2
Fore
SplineSet
178 0 m 1,0,-1
 12 0 l 1,1,-1
 109 590 l 1,2,-1
 61 590 l 1,3,-1
 81 704 l 1,4,-1
 924 704 l 1,5,-1
 904 590 l 1,6,-1
 801 590 l 1,7,8
 816 590 816 590 846 542 c 0,9,10
 861 517 861 517 861 484 c 0,11,12
 861 469 861 469 858 452 c 0,13,14
 858 452 858 452 857 450 c 0,15,16
 843 369 843 369 805.5 343.5 c 128,-1,17
 768 318 768 318 718 294 c 1,18,19
 718 294 718 294 800 0 c 1,20,-1
 674 0 l 1,21,-1
 599 268 l 1,22,-1
 567 268 l 1,23,-1
 512 0 l 1,24,-1
 348 0 l 1,25,26
 348 0 348 0 338 386 c 1,27,-1
 178 0 l 1,0,-1
749 486 m 0,28,29
 749 504 749 504 727 550 c 0,30,31
 712 580 712 580 640 580 c 2,32,-1
 630 580 l 1,33,-1
 594 383 l 1,34,-1
 615 383 l 2,35,36
 679 384 679 384 709 416 c 0,37,38
 749 460 749 460 749 486 c 0,28,29
216 590 m 1,39,-1
 145 194 l 1,40,41
 145 194 145 194 205 340 c 1,42,-1
 303 590 l 1,43,-1
 216 590 l 1,39,-1
441 590 m 1,44,-1
 445 312 l 2,45,46
 446 276 446 276 447 194 c 1,47,48
 457 234 457 234 457 234 c 1,49,-1
 524 590 l 1,50,51
 482 590 482 590 441 590 c 1,44,-1
EndSplineSet
EndChar

StartChar: uniE027
Encoding: 57383 57383 275
Width: 868
Flags: W
LayerCount: 2
Fore
SplineSet
421 590 m 129,-1,1
 421 590 421 590 316 590 c 1,2,-1
 307 540 l 1,3,-1
 402 540 l 1,4,0
 421 590 421 590 421 590 c 129,-1,1
595 202 m 17,5,-1
 700 590 l 1,6,-1
 567 590 l 9,7,-1
 595 202 l 17,5,-1
90 540 m 17,8,9
 90 540 90 540 193 540 c 1,10,-1
 202 590 l 1,11,-1
 65 590 l 1,12,-1
 85 704 l 1,13,-1
 907 704 l 1,14,-1
 887 590 l 1,15,-1
 810 590 l 1,16,-1
 642 0 l 1,17,-1
 496 0 l 1,18,-1
 465 423 l 9,19,20
 465 423 465 423 281 0 c 25,21,22
 281 0 281 0 118 0 c 17,23,-1
 155 288 l 1,24,-1
 29 288 l 1,25,26
 45 328 45 328 62 382 c 0,27,28
 62 382 62 382 169 382 c 1,29,-1
 178 444 l 1,30,-1
 51 444 l 9,31,-1
 90 540 l 17,8,9
291 444 m 1,32,-1
 282 382 l 1,33,-1
 330 382 l 1,34,-1
 358 444 l 1,35,-1
 291 444 l 1,32,-1
268 288 m 25,36,37
 268 288 268 288 290 288 c 1,38,-1
 251 198 l 9,39,-1
 268 288 l 25,36,37
EndSplineSet
EndChar
